{"glyphs":{"0":{"ha":935,"x_min":0,"x_max":0,"o":"m 467 -18 b 74 526 194 -18 74 206 b 467 1069 74 846 194 1069 l 468 1069 b 861 526 740 1069 861 846 b 467 -18 861 229 756 -18 m 468 136 b 661 526 593 136 661 269 b 468 915 661 782 593 915 b 274 526 343 915 274 782 b 468 136 274 269 343 136 "},"1":{"ha":615,"x_min":0,"x_max":0,"o":"m 311 864 l 56 703 l 56 881 l 322 1051 l 510 1051 l 510 0 l 311 0 "},"2":{"ha":904,"x_min":0,"x_max":0,"o":"m 83 0 b 326 481 85 222 132 368 l 479 569 b 613 756 569 622 613 663 b 463 917 613 849 563 917 b 278 701 349 917 286 847 l 88 701 b 464 1069 94 929 238 1069 b 814 746 675 1069 814 949 b 582 419 814 604 742 513 l 433 333 b 306 151 328 272 308 221 l 821 151 l 821 0 l 83 0 "},"3":{"ha":908,"x_min":0,"x_max":0,"o":"m 453 -18 b 69 307 215 -18 89 90 l 258 307 b 456 124 278 183 342 124 b 640 310 572 124 640 193 b 525 481 640 394 599 456 b 411 494 497 492 469 494 l 347 494 l 347 643 l 406 643 b 522 658 461 643 493 647 b 607 781 575 678 607 725 b 453 929 607 869 546 929 b 274 758 350 929 288 871 l 88 758 b 454 1069 104 954 238 1069 b 807 786 671 1069 807 958 b 639 563 807 678 747 593 b 836 314 767 540 836 449 b 453 -18 836 114 686 -18 "},"4":{"ha":1019,"x_min":0,"x_max":0,"o":"m 583 256 l 76 256 l 76 453 l 501 1051 l 783 1051 l 783 397 l 950 397 l 950 256 l 783 256 l 783 0 l 583 0 m 583 397 l 583 863 l 256 397 "},"5":{"ha":925,"x_min":0,"x_max":0,"o":"m 450 -18 b 89 278 243 -18 92 93 l 279 278 b 447 131 292 174 369 131 b 639 369 550 131 639 206 b 461 582 639 493 588 582 b 304 483 385 582 331 538 l 117 483 l 207 1051 l 782 1051 l 782 901 l 367 901 l 331 668 b 511 731 372 706 429 731 b 842 367 704 731 842 588 b 450 -18 842 150 721 -18 "},"6":{"ha":904,"x_min":0,"x_max":0,"o":"m 463 -15 b 74 492 172 -15 74 214 b 476 1069 74 850 160 1069 b 815 789 658 1069 794 964 l 629 789 b 475 928 610 883 560 928 b 278 588 318 928 283 783 b 517 699 338 668 419 699 b 836 357 731 699 836 532 b 463 -15 836 163 714 -15 m 468 135 b 636 346 553 135 636 203 b 468 557 636 489 553 557 b 289 346 372 557 289 490 b 468 135 289 201 372 135 "},"7":{"ha":842,"x_min":0,"x_max":0,"o":"m 583 896 l 49 896 l 49 1051 l 793 1051 l 793 896 l 396 0 l 182 0 "},"8":{"ha":924,"x_min":0,"x_max":0,"o":"m 463 -18 b 338 -8 418 -18 376 -17 b 74 279 178 25 74 129 b 278 551 74 406 142 513 b 101 790 168 590 101 683 b 343 1060 101 932 199 1028 b 463 1069 379 1068 419 1069 b 578 1061 503 1069 542 1068 b 822 790 725 1031 822 933 b 646 551 822 683 756 590 b 850 279 782 513 850 406 b 589 -8 850 128 744 25 b 463 -18 550 -17 507 -18 m 463 121 b 656 297 558 121 656 188 b 461 467 656 407 571 467 b 269 297 353 467 269 407 b 463 121 269 188 365 121 m 463 631 b 632 774 544 631 632 669 b 463 925 632 876 554 925 b 292 774 367 925 292 878 b 463 631 292 669 379 631 "},"9":{"ha":904,"x_min":0,"x_max":0,"o":"m 424 -17 b 86 274 244 -17 107 90 l 272 274 b 436 125 292 172 349 125 b 626 488 588 125 621 272 b 388 376 567 393 485 376 b 68 710 174 376 68 543 b 442 1069 68 892 190 1069 b 831 583 732 1069 831 835 b 424 -17 831 206 744 -17 m 436 518 b 615 721 532 518 615 585 b 436 919 615 853 532 919 b 268 721 351 919 268 851 b 436 518 268 586 351 518 "},"\r":{"ha":319,"x_min":0,"x_max":0,"o":""}," ":{"ha":354,"x_min":0,"x_max":0,"o":""},"A":{"ha":1047,"x_min":0,"x_max":0,"o":"m 383 1051 l 661 1051 l 1022 0 l 815 0 l 725 267 l 333 267 l 249 0 l 25 0 m 675 417 l 524 865 l 381 417 "},"Á":{"ha":1047,"x_min":0,"x_max":0,"o":"m 383 1051 l 661 1051 l 1022 0 l 815 0 l 725 267 l 333 267 l 249 0 l 25 0 m 675 417 l 524 865 l 381 417 m 532 1339 l 746 1339 l 600 1132 l 444 1132 "},"Ă":{"ha":1047,"x_min":0,"x_max":0,"o":"m 383 1051 l 661 1051 l 1022 0 l 815 0 l 725 267 l 333 267 l 249 0 l 25 0 m 675 417 l 524 865 l 381 417 m 522 1122 b 297 1339 407 1122 313 1192 l 442 1339 b 522 1231 446 1265 472 1231 b 601 1339 571 1231 597 1265 l 746 1339 b 522 1122 731 1192 636 1122 "},"Â":{"ha":1047,"x_min":0,"x_max":0,"o":"m 383 1051 l 661 1051 l 1022 0 l 815 0 l 725 267 l 333 267 l 249 0 l 25 0 m 675 417 l 524 865 l 381 417 m 403 1339 l 642 1339 l 758 1132 l 619 1132 l 522 1254 l 425 1132 l 286 1132 "},"Ä":{"ha":1047,"x_min":0,"x_max":0,"o":"m 383 1051 l 661 1051 l 1022 0 l 815 0 l 725 267 l 333 267 l 249 0 l 25 0 m 675 417 l 524 865 l 381 417 m 285 1339 l 474 1339 l 474 1156 l 285 1156 m 571 1339 l 760 1339 l 760 1156 l 571 1156 "},"À":{"ha":1047,"x_min":0,"x_max":0,"o":"m 383 1051 l 661 1051 l 1022 0 l 815 0 l 725 267 l 333 267 l 249 0 l 25 0 m 675 417 l 524 865 l 381 417 m 299 1339 l 513 1339 l 600 1132 l 444 1132 "},"Ā":{"ha":1047,"x_min":0,"x_max":0,"o":"m 383 1051 l 661 1051 l 1022 0 l 815 0 l 725 267 l 333 267 l 249 0 l 25 0 m 675 417 l 524 865 l 381 417 m 318 1269 l 726 1269 l 726 1142 l 318 1142 "},"Ą":{"ha":1047,"x_min":0,"x_max":0,"o":"m 922 -261 b 775 -118 844 -261 775 -207 b 825 0 775 -76 790 -37 l 815 0 l 725 267 l 333 267 l 249 0 l 25 0 l 383 1051 l 661 1051 l 1022 0 b 915 -107 929 -56 915 -85 b 954 -144 915 -131 932 -144 b 1026 -124 975 -144 1003 -136 l 1026 -229 b 922 -261 993 -251 957 -261 m 675 417 l 524 865 l 381 417 "},"Å":{"ha":1047,"x_min":0,"x_max":0,"o":"m 383 1051 l 661 1051 l 1022 0 l 815 0 l 725 267 l 333 267 l 249 0 l 25 0 m 675 417 l 524 865 l 381 417 m 525 1097 b 368 1254 439 1097 368 1168 b 525 1406 368 1336 439 1406 b 676 1254 607 1406 676 1336 b 525 1097 676 1168 607 1097 m 524 1193 b 583 1253 556 1193 583 1218 b 524 1313 583 1286 556 1313 b 464 1253 489 1313 464 1286 b 524 1193 464 1218 489 1193 "},"Ã":{"ha":1047,"x_min":0,"x_max":0,"o":"m 383 1051 l 661 1051 l 1022 0 l 815 0 l 725 267 l 333 267 l 249 0 l 25 0 m 675 417 l 524 865 l 381 417 m 608 1119 b 503 1153 560 1119 528 1138 b 443 1178 479 1167 461 1178 b 400 1122 419 1178 401 1160 l 289 1122 b 447 1308 285 1232 343 1308 b 551 1272 494 1308 525 1289 b 601 1247 572 1257 588 1247 b 646 1308 625 1247 643 1265 l 756 1308 b 608 1119 760 1197 704 1119 "},"Æ":{"ha":1488,"x_min":0,"x_max":0,"o":"m 531 1051 l 1386 1051 l 1386 890 l 858 890 l 894 626 l 1372 626 l 1372 471 l 917 471 l 958 161 l 1400 161 l 1400 0 l 776 0 l 739 267 l 372 267 l 253 0 l 25 0 m 717 424 l 653 875 l 646 875 l 443 424 "},"Ǽ":{"ha":1488,"x_min":0,"x_max":0,"o":"m 531 1051 l 1386 1051 l 1386 890 l 858 890 l 894 626 l 1372 626 l 1372 471 l 917 471 l 958 161 l 1400 161 l 1400 0 l 776 0 l 739 267 l 372 267 l 253 0 l 25 0 m 717 424 l 653 875 l 646 875 l 443 424 m 732 1339 l 946 1339 l 800 1132 l 644 1132 "},"B":{"ha":1000,"x_min":0,"x_max":0,"o":"m 97 1051 l 481 1051 b 740 1024 608 1051 678 1044 b 907 800 844 989 906 907 b 728 564 908 683 844 593 b 939 310 874 532 938 431 b 747 29 940 168 871 74 b 506 0 690 8 615 0 l 97 0 m 486 153 b 667 185 553 153 621 158 b 732 315 708 208 732 249 b 654 456 732 390 701 432 b 496 481 615 475 565 481 l 300 481 l 300 153 l 486 153 m 467 628 b 632 650 529 628 590 631 b 699 765 674 669 699 704 b 618 885 699 838 665 868 b 467 899 575 897 521 899 l 300 899 l 300 628 l 467 628 "},"C":{"ha":1092,"x_min":0,"x_max":0,"o":"m 571 -18 b 60 521 258 -18 60 192 b 571 1069 60 857 258 1069 b 1032 722 817 1069 990 942 l 824 722 b 571 906 792 840 701 906 b 268 521 381 906 268 763 b 568 146 268 289 383 146 b 833 358 710 146 806 222 l 1040 358 b 571 -18 1008 121 831 -18 "},"Ć":{"ha":1092,"x_min":0,"x_max":0,"o":"m 571 -18 b 60 521 258 -18 60 192 b 571 1069 60 857 258 1069 b 1032 722 817 1069 990 942 l 824 722 b 571 906 792 840 701 906 b 268 521 381 906 268 763 b 568 146 268 289 383 146 b 833 358 710 146 806 222 l 1040 358 b 571 -18 1008 121 831 -18 m 581 1339 l 794 1339 l 649 1132 l 493 1132 "},"Č":{"ha":1092,"x_min":0,"x_max":0,"o":"m 571 -18 b 60 521 258 -18 60 192 b 571 1069 60 857 258 1069 b 1032 722 817 1069 990 942 l 824 722 b 571 906 792 840 701 906 b 268 521 381 906 268 763 b 568 146 268 289 383 146 b 833 358 710 146 806 222 l 1040 358 b 571 -18 1008 121 831 -18 m 335 1339 l 474 1339 l 571 1217 l 668 1339 l 807 1339 l 690 1132 l 451 1132 "},"Ç":{"ha":1092,"x_min":0,"x_max":0,"o":"m 571 -18 b 60 521 258 -18 60 192 b 571 1069 60 857 258 1069 b 1032 722 817 1069 990 942 l 824 722 b 571 906 792 840 701 906 b 268 521 381 906 268 763 b 568 146 268 289 383 146 b 833 358 710 146 806 222 l 1040 358 b 571 -18 1008 121 831 -18 m 493 -64 l 649 -64 l 561 -271 l 347 -271 "},"Ĉ":{"ha":1092,"x_min":0,"x_max":0,"o":"m 571 -18 b 60 521 258 -18 60 192 b 571 1069 60 857 258 1069 b 1032 722 817 1069 990 942 l 824 722 b 571 906 792 840 701 906 b 268 521 381 906 268 763 b 568 146 268 289 383 146 b 833 358 710 146 806 222 l 1040 358 b 571 -18 1008 121 831 -18 m 451 1339 l 690 1339 l 807 1132 l 668 1132 l 571 1254 l 474 1132 l 335 1132 "},"Ċ":{"ha":1092,"x_min":0,"x_max":0,"o":"m 571 -18 b 60 521 258 -18 60 192 b 571 1069 60 857 258 1069 b 1032 722 817 1069 990 942 l 824 722 b 571 906 792 840 701 906 b 268 521 381 906 268 763 b 568 146 268 289 383 146 b 833 358 710 146 806 222 l 1040 358 b 571 -18 1008 121 831 -18 m 468 1339 l 672 1339 l 672 1156 l 468 1156 "},"D":{"ha":1067,"x_min":0,"x_max":0,"o":"m 97 1051 l 347 1051 b 651 1029 468 1051 568 1049 b 1007 526 861 979 1007 819 b 651 22 1007 232 861 72 b 347 0 568 3 468 0 l 97 0 m 403 153 b 568 167 476 153 524 156 b 799 526 699 200 799 317 b 568 885 799 735 699 851 b 403 899 524 896 476 899 l 304 899 l 304 153 l 403 153 "},"Ď":{"ha":1067,"x_min":0,"x_max":0,"o":"m 97 1051 l 347 1051 b 651 1029 468 1051 568 1049 b 1007 526 861 979 1007 819 b 651 22 1007 232 861 72 b 347 0 568 3 468 0 l 97 0 m 403 153 b 568 167 476 153 524 156 b 799 526 699 200 799 317 b 568 885 799 735 699 851 b 403 899 524 896 476 899 l 304 899 l 304 153 l 403 153 m 250 1339 l 389 1339 l 486 1217 l 583 1339 l 722 1339 l 606 1132 l 367 1132 "},"Đ":{"ha":1094,"x_min":0,"x_max":0,"o":"m 125 476 l 28 476 l 28 622 l 125 622 l 125 1051 l 375 1051 b 679 1029 496 1051 596 1049 b 1035 526 889 979 1035 819 b 679 22 1035 232 889 72 b 375 0 596 3 496 0 l 125 0 m 431 153 b 596 167 504 153 551 156 b 826 526 726 200 826 317 b 596 885 826 735 726 851 b 431 899 551 896 504 899 l 332 899 l 332 622 l 574 622 l 574 476 l 332 476 l 332 153 l 431 153 "},"Ð":{"ha":1094,"x_min":0,"x_max":0,"o":"m 125 476 l 28 476 l 28 622 l 125 622 l 125 1051 l 375 1051 b 679 1029 496 1051 596 1049 b 1035 526 889 979 1035 819 b 679 22 1035 232 889 72 b 375 0 596 3 496 0 l 125 0 m 431 153 b 596 167 504 153 551 156 b 826 526 726 200 826 317 b 596 885 826 735 726 851 b 431 899 551 896 504 899 l 332 899 l 332 622 l 574 622 l 574 476 l 332 476 l 332 153 l 431 153 "},"E":{"ha":910,"x_min":0,"x_max":0,"o":"m 97 1051 l 808 1051 l 808 890 l 306 890 l 306 628 l 794 628 l 794 471 l 306 471 l 306 161 l 822 161 l 822 0 l 97 0 "},"É":{"ha":910,"x_min":0,"x_max":0,"o":"m 97 1051 l 808 1051 l 808 890 l 306 890 l 306 628 l 794 628 l 794 471 l 306 471 l 306 161 l 822 161 l 822 0 l 97 0 m 463 1339 l 676 1339 l 531 1132 l 375 1132 "},"Ĕ":{"ha":910,"x_min":0,"x_max":0,"o":"m 97 1051 l 808 1051 l 808 890 l 306 890 l 306 628 l 794 628 l 794 471 l 306 471 l 306 161 l 822 161 l 822 0 l 97 0 m 453 1122 b 228 1339 338 1122 243 1192 l 372 1339 b 453 1231 376 1265 403 1231 b 532 1339 501 1231 528 1265 l 676 1339 b 453 1122 661 1192 567 1122 "},"Ě":{"ha":910,"x_min":0,"x_max":0,"o":"m 97 1051 l 808 1051 l 808 890 l 306 890 l 306 628 l 794 628 l 794 471 l 306 471 l 306 161 l 822 161 l 822 0 l 97 0 m 217 1339 l 356 1339 l 453 1217 l 550 1339 l 689 1339 l 572 1132 l 333 1132 "},"Ê":{"ha":910,"x_min":0,"x_max":0,"o":"m 97 1051 l 808 1051 l 808 890 l 306 890 l 306 628 l 794 628 l 794 471 l 306 471 l 306 161 l 822 161 l 822 0 l 97 0 m 333 1339 l 572 1339 l 689 1132 l 550 1132 l 453 1254 l 356 1132 l 217 1132 "},"Ë":{"ha":910,"x_min":0,"x_max":0,"o":"m 97 1051 l 808 1051 l 808 890 l 306 890 l 306 628 l 794 628 l 794 471 l 306 471 l 306 161 l 822 161 l 822 0 l 97 0 m 215 1339 l 404 1339 l 404 1156 l 215 1156 m 501 1339 l 690 1339 l 690 1156 l 501 1156 "},"Ė":{"ha":910,"x_min":0,"x_max":0,"o":"m 97 1051 l 808 1051 l 808 890 l 306 890 l 306 628 l 794 628 l 794 471 l 306 471 l 306 161 l 822 161 l 822 0 l 97 0 m 350 1339 l 554 1339 l 554 1156 l 350 1156 "},"È":{"ha":910,"x_min":0,"x_max":0,"o":"m 97 1051 l 808 1051 l 808 890 l 306 890 l 306 628 l 794 628 l 794 471 l 306 471 l 306 161 l 822 161 l 822 0 l 97 0 m 257 1339 l 471 1339 l 558 1132 l 403 1132 "},"Ē":{"ha":910,"x_min":0,"x_max":0,"o":"m 97 1051 l 808 1051 l 808 890 l 306 890 l 306 628 l 794 628 l 794 471 l 306 471 l 306 161 l 822 161 l 822 0 l 97 0 m 249 1269 l 657 1269 l 657 1142 l 249 1142 "},"Ę":{"ha":910,"x_min":0,"x_max":0,"o":"m 722 -261 b 575 -118 644 -261 575 -207 b 625 0 575 -76 590 -37 l 97 0 l 97 1051 l 808 1051 l 808 890 l 306 890 l 306 628 l 794 628 l 794 471 l 306 471 l 306 161 l 822 161 l 822 0 b 715 -107 729 -56 715 -85 b 754 -144 715 -131 732 -144 b 826 -124 775 -144 803 -136 l 826 -229 b 722 -261 793 -251 757 -261 "},"Ə":{"ha":1121,"x_min":0,"x_max":0,"o":"m 550 -18 b 60 572 219 -18 60 218 l 60 593 l 846 593 b 550 906 818 801 713 906 b 289 699 433 906 319 849 l 81 699 b 550 1069 121 936 306 1069 b 1061 521 864 1069 1061 857 b 550 -18 1061 190 864 -18 m 557 146 b 850 440 728 146 831 264 l 264 440 b 557 146 283 264 386 146 "},"F":{"ha":847,"x_min":0,"x_max":0,"o":"m 97 1051 l 794 1051 l 794 890 l 307 890 l 307 585 l 781 585 l 781 428 l 307 428 l 307 0 l 97 0 "},"G":{"ha":1115,"x_min":0,"x_max":0,"o":"m 571 -18 b 60 521 290 -18 60 157 b 582 1069 60 892 290 1068 b 1018 778 793 1071 969 974 l 804 778 b 586 906 775 854 706 906 b 268 521 346 906 268 722 b 568 146 268 326 353 146 b 864 426 711 146 856 193 l 558 426 l 558 579 l 1053 579 l 1053 0 l 906 0 l 906 156 b 571 -18 829 31 715 -18 "},"Ğ":{"ha":1115,"x_min":0,"x_max":0,"o":"m 571 -18 b 60 521 290 -18 60 157 b 582 1069 60 892 290 1068 b 1018 778 793 1071 969 974 l 804 778 b 586 906 775 854 706 906 b 268 521 346 906 268 722 b 568 146 268 326 353 146 b 864 426 711 146 856 193 l 558 426 l 558 579 l 1053 579 l 1053 0 l 906 0 l 906 156 b 571 -18 829 31 715 -18 m 582 1122 b 357 1339 467 1122 372 1192 l 501 1339 b 582 1231 506 1265 532 1231 b 661 1339 631 1231 657 1265 l 806 1339 b 582 1122 790 1192 696 1122 "},"Ǧ":{"ha":1115,"x_min":0,"x_max":0,"o":"m 571 -18 b 60 521 290 -18 60 157 b 582 1069 60 892 290 1068 b 1018 778 793 1071 969 974 l 804 778 b 586 906 775 854 706 906 b 268 521 346 906 268 722 b 568 146 268 326 353 146 b 864 426 711 146 856 193 l 558 426 l 558 579 l 1053 579 l 1053 0 l 906 0 l 906 156 b 571 -18 829 31 715 -18 m 346 1339 l 485 1339 l 582 1217 l 679 1339 l 818 1339 l 701 1132 l 463 1132 "},"Ģ":{"ha":1115,"x_min":0,"x_max":0,"o":"m 571 -18 b 60 521 290 -18 60 157 b 582 1069 60 892 290 1068 b 1018 778 793 1071 969 974 l 804 778 b 586 906 775 854 706 906 b 268 521 346 906 268 722 b 568 146 268 326 353 146 b 864 426 711 146 856 193 l 558 426 l 558 579 l 1053 579 l 1053 0 l 906 0 l 906 156 b 571 -18 829 31 715 -18 m 525 -292 l 525 -101 l 685 -101 l 685 -292 l 593 -460 l 472 -460 "},"Ġ":{"ha":1115,"x_min":0,"x_max":0,"o":"m 571 -18 b 60 521 290 -18 60 157 b 582 1069 60 892 290 1068 b 1018 778 793 1071 969 974 l 804 778 b 586 906 775 854 706 906 b 268 521 346 906 268 722 b 568 146 268 326 353 146 b 864 426 711 146 856 193 l 558 426 l 558 579 l 1053 579 l 1053 0 l 906 0 l 906 156 b 571 -18 829 31 715 -18 m 479 1339 l 683 1339 l 683 1156 l 479 1156 "},"H":{"ha":1086,"x_min":0,"x_max":0,"o":"m 97 1051 l 306 1051 l 306 628 l 781 628 l 781 1051 l 989 1051 l 989 0 l 781 0 l 781 471 l 306 471 l 306 0 l 97 0 "},"Ħ":{"ha":1142,"x_min":0,"x_max":0,"o":"m 125 768 l 28 768 l 28 896 l 125 896 l 125 1051 l 333 1051 l 333 896 l 808 896 l 808 1051 l 1017 1051 l 1017 896 l 1114 896 l 1114 768 l 1017 768 l 1017 0 l 808 0 l 808 471 l 333 471 l 333 0 l 125 0 m 808 628 l 808 768 l 333 768 l 333 628 "},"I":{"ha":403,"x_min":0,"x_max":0,"o":"m 97 1051 l 306 1051 l 306 0 l 97 0 "},"Í":{"ha":403,"x_min":0,"x_max":0,"o":"m 97 1051 l 306 1051 l 306 0 l 97 0 m 211 1339 l 425 1339 l 279 1132 l 124 1132 "},"Ĭ":{"ha":403,"x_min":0,"x_max":0,"o":"m 97 1051 l 306 1051 l 306 0 l 97 0 m 201 1122 b -24 1339 86 1122 -8 1192 l 121 1339 b 201 1231 125 1265 151 1231 b 281 1339 250 1231 276 1265 l 425 1339 b 201 1122 410 1192 315 1122 "},"Î":{"ha":403,"x_min":0,"x_max":0,"o":"m 97 1051 l 306 1051 l 306 0 l 97 0 m 82 1339 l 321 1339 l 438 1132 l 299 1132 l 201 1254 l 104 1132 l -35 1132 "},"Ï":{"ha":403,"x_min":0,"x_max":0,"o":"m 97 1051 l 306 1051 l 306 0 l 97 0 m -36 1339 l 153 1339 l 153 1156 l -36 1156 m 250 1339 l 439 1339 l 439 1156 l 250 1156 "},"İ":{"ha":403,"x_min":0,"x_max":0,"o":"m 97 1051 l 306 1051 l 306 0 l 97 0 m 99 1339 l 303 1339 l 303 1156 l 99 1156 "},"Ì":{"ha":403,"x_min":0,"x_max":0,"o":"m 97 1051 l 306 1051 l 306 0 l 97 0 m -22 1339 l 192 1339 l 279 1132 l 124 1132 "},"Ī":{"ha":403,"x_min":0,"x_max":0,"o":"m 97 1051 l 306 1051 l 306 0 l 97 0 m -3 1269 l 406 1269 l 406 1142 l -3 1142 "},"Į":{"ha":403,"x_min":0,"x_max":0,"o":"m 206 -261 b 58 -118 128 -261 58 -207 b 108 0 58 -76 74 -37 l 97 0 l 97 1051 l 306 1051 l 306 0 b 199 -107 213 -56 199 -85 b 238 -144 199 -131 215 -144 b 310 -124 258 -144 286 -136 l 310 -229 b 206 -261 276 -251 240 -261 "},"Ĩ":{"ha":403,"x_min":0,"x_max":0,"o":"m 97 1051 l 306 1051 l 306 0 l 97 0 m 288 1119 b 182 1153 239 1119 207 1138 b 122 1178 158 1167 140 1178 b 79 1122 99 1178 81 1160 l -32 1122 b 126 1308 -36 1232 22 1308 b 231 1272 174 1308 204 1289 b 281 1247 251 1257 267 1247 b 325 1308 304 1247 322 1265 l 435 1308 b 288 1119 439 1197 383 1119 "},"J":{"ha":811,"x_min":0,"x_max":0,"o":"m 374 -18 b 40 311 149 -18 40 118 l 40 358 l 242 358 l 242 342 b 253 224 242 303 243 254 b 374 136 269 171 307 136 b 494 224 440 136 478 171 b 506 342 504 254 506 303 l 506 1051 l 714 1051 l 714 311 b 374 -18 714 118 604 -18 "},"K":{"ha":983,"x_min":0,"x_max":0,"o":"m 97 1051 l 306 1051 l 306 606 l 688 1051 l 928 1051 l 536 607 l 956 0 l 721 0 l 397 471 l 306 358 l 306 0 l 97 0 "},"Ķ":{"ha":983,"x_min":0,"x_max":0,"o":"m 97 1051 l 306 1051 l 306 606 l 688 1051 l 928 1051 l 536 607 l 956 0 l 721 0 l 397 471 l 306 358 l 306 0 l 97 0 m 425 -292 l 425 -101 l 585 -101 l 585 -292 l 493 -460 l 372 -460 "},"L":{"ha":810,"x_min":0,"x_max":0,"o":"m 97 1051 l 306 1051 l 306 175 l 763 175 l 763 0 l 97 0 "},"Ĺ":{"ha":810,"x_min":0,"x_max":0,"o":"m 97 1051 l 306 1051 l 306 175 l 763 175 l 763 0 l 97 0 m 211 1339 l 425 1339 l 279 1132 l 124 1132 "},"Ľ":{"ha":810,"x_min":0,"x_max":0,"o":"m 97 1051 l 306 1051 l 306 175 l 763 175 l 763 0 l 97 0 m 428 861 l 428 1051 l 588 1051 l 588 861 l 496 693 l 375 693 "},"Ļ":{"ha":810,"x_min":0,"x_max":0,"o":"m 97 1051 l 306 1051 l 306 175 l 763 175 l 763 0 l 97 0 m 350 -292 l 350 -101 l 510 -101 l 510 -292 l 418 -460 l 297 -460 "},"Ŀ":{"ha":810,"x_min":0,"x_max":0,"o":"m 97 1051 l 306 1051 l 306 175 l 763 175 l 763 0 l 97 0 m 506 678 l 710 678 l 710 450 l 506 450 "},"Ł":{"ha":851,"x_min":0,"x_max":0,"o":"m 139 311 l 51 261 l 51 422 l 139 472 l 139 1051 l 347 1051 l 347 592 l 674 779 l 674 618 l 347 431 l 347 175 l 804 175 l 804 0 l 139 0 "},"M":{"ha":1322,"x_min":0,"x_max":0,"o":"m 97 1051 l 369 1051 l 669 279 l 958 1051 l 1225 1051 l 1225 0 l 1018 0 l 1018 776 l 728 0 l 601 0 l 300 776 l 300 0 l 97 0 "},"N":{"ha":1079,"x_min":0,"x_max":0,"o":"m 97 1051 l 340 1051 l 792 276 l 792 1051 l 982 1051 l 982 0 l 739 0 l 288 779 l 288 0 l 97 0 "},"Ń":{"ha":1079,"x_min":0,"x_max":0,"o":"m 97 1051 l 340 1051 l 792 276 l 792 1051 l 982 1051 l 982 0 l 739 0 l 288 779 l 288 0 l 97 0 m 550 1339 l 764 1339 l 618 1132 l 463 1132 "},"Ň":{"ha":1079,"x_min":0,"x_max":0,"o":"m 97 1051 l 340 1051 l 792 276 l 792 1051 l 982 1051 l 982 0 l 739 0 l 288 779 l 288 0 l 97 0 m 304 1339 l 443 1339 l 540 1217 l 638 1339 l 776 1339 l 660 1132 l 421 1132 "},"Ņ":{"ha":1079,"x_min":0,"x_max":0,"o":"m 97 1051 l 340 1051 l 792 276 l 792 1051 l 982 1051 l 982 0 l 739 0 l 288 779 l 288 0 l 97 0 m 460 -292 l 460 -101 l 619 -101 l 619 -292 l 528 -460 l 407 -460 "},"Ñ":{"ha":1079,"x_min":0,"x_max":0,"o":"m 97 1051 l 340 1051 l 792 276 l 792 1051 l 982 1051 l 982 0 l 739 0 l 288 779 l 288 0 l 97 0 m 626 1119 b 521 1153 578 1119 546 1138 b 461 1178 497 1167 479 1178 b 418 1122 438 1178 419 1160 l 307 1122 b 465 1308 303 1232 361 1308 b 569 1272 513 1308 543 1289 b 619 1247 590 1257 606 1247 b 664 1308 643 1247 661 1265 l 774 1308 b 626 1119 778 1197 722 1119 "},"Ŋ":{"ha":1079,"x_min":0,"x_max":0,"o":"m 758 -261 b 642 -253 726 -261 686 -260 l 642 -122 b 701 -125 657 -124 672 -125 b 786 -24 757 -125 786 -94 l 786 11 l 288 779 l 288 0 l 97 0 l 97 1051 l 340 1051 l 792 276 l 792 1051 l 982 1051 l 982 -44 b 758 -261 982 -197 890 -261 "},"O":{"ha":1142,"x_min":0,"x_max":0,"o":"m 571 -17 b 60 526 256 -17 61 193 b 571 1069 61 860 256 1069 b 1082 526 886 1069 1081 860 b 571 -17 1081 193 886 -17 m 571 150 b 874 526 761 150 874 299 b 571 903 874 754 761 903 b 268 526 381 903 268 754 b 571 150 268 299 381 150 "},"Ó":{"ha":1142,"x_min":0,"x_max":0,"o":"m 571 -17 b 60 526 256 -17 61 193 b 571 1069 61 860 256 1069 b 1082 526 886 1069 1081 860 b 571 -17 1081 193 886 -17 m 571 150 b 874 526 761 150 874 299 b 571 903 874 754 761 903 b 268 526 381 903 268 754 b 571 150 268 299 381 150 m 581 1339 l 794 1339 l 649 1132 l 493 1132 "},"Ŏ":{"ha":1142,"x_min":0,"x_max":0,"o":"m 571 -17 b 60 526 256 -17 61 193 b 571 1069 61 860 256 1069 b 1082 526 886 1069 1081 860 b 571 -17 1081 193 886 -17 m 571 150 b 874 526 761 150 874 299 b 571 903 874 754 761 903 b 268 526 381 903 268 754 b 571 150 268 299 381 150 m 571 1122 b 346 1339 456 1122 361 1192 l 490 1339 b 571 1231 494 1265 521 1231 b 650 1339 619 1231 646 1265 l 794 1339 b 571 1122 779 1192 685 1122 "},"Ô":{"ha":1142,"x_min":0,"x_max":0,"o":"m 571 -17 b 60 526 256 -17 61 193 b 571 1069 61 860 256 1069 b 1082 526 886 1069 1081 860 b 571 -17 1081 193 886 -17 m 571 150 b 874 526 761 150 874 299 b 571 903 874 754 761 903 b 268 526 381 903 268 754 b 571 150 268 299 381 150 m 451 1339 l 690 1339 l 807 1132 l 668 1132 l 571 1254 l 474 1132 l 335 1132 "},"Ö":{"ha":1142,"x_min":0,"x_max":0,"o":"m 571 -17 b 60 526 256 -17 61 193 b 571 1069 61 860 256 1069 b 1082 526 886 1069 1081 860 b 571 -17 1081 193 886 -17 m 571 150 b 874 526 761 150 874 299 b 571 903 874 754 761 903 b 268 526 381 903 268 754 b 571 150 268 299 381 150 m 333 1339 l 522 1339 l 522 1156 l 333 1156 m 619 1339 l 808 1339 l 808 1156 l 619 1156 "},"Ò":{"ha":1142,"x_min":0,"x_max":0,"o":"m 571 -17 b 60 526 256 -17 61 193 b 571 1069 61 860 256 1069 b 1082 526 886 1069 1081 860 b 571 -17 1081 193 886 -17 m 571 150 b 874 526 761 150 874 299 b 571 903 874 754 761 903 b 268 526 381 903 268 754 b 571 150 268 299 381 150 m 347 1339 l 561 1339 l 649 1132 l 493 1132 "},"Ő":{"ha":1142,"x_min":0,"x_max":0,"o":"m 571 -17 b 60 526 256 -17 61 193 b 571 1069 61 860 256 1069 b 1082 526 886 1069 1081 860 b 571 -17 1081 193 886 -17 m 571 150 b 874 526 761 150 874 299 b 571 903 874 754 761 903 b 268 526 381 903 268 754 b 571 150 268 299 381 150 m 458 1339 l 653 1339 l 507 1132 l 371 1132 m 722 1339 l 917 1339 l 771 1132 l 635 1132 "},"Ō":{"ha":1142,"x_min":0,"x_max":0,"o":"m 571 -17 b 60 526 256 -17 61 193 b 571 1069 61 860 256 1069 b 1082 526 886 1069 1081 860 b 571 -17 1081 193 886 -17 m 571 150 b 874 526 761 150 874 299 b 571 903 874 754 761 903 b 268 526 381 903 268 754 b 571 150 268 299 381 150 m 367 1269 l 775 1269 l 775 1142 l 367 1142 "},"Ø":{"ha":1142,"x_min":0,"x_max":0,"o":"m 103 63 l 175 157 b 60 526 101 249 60 375 b 571 1069 61 860 256 1069 b 829 1010 669 1069 757 1049 l 890 1089 l 1024 989 l 960 906 b 1082 526 1038 813 1082 683 b 571 -17 1081 193 886 -17 b 303 47 468 -17 378 6 l 236 -39 m 571 150 b 874 526 761 150 874 299 b 832 739 874 608 860 681 l 414 193 b 571 150 457 165 510 150 m 719 865 b 571 903 676 890 628 903 b 268 526 381 903 268 754 b 306 326 268 450 281 382 l 719 865 "},"Ǿ":{"ha":1142,"x_min":0,"x_max":0,"o":"m 103 63 l 175 157 b 60 526 101 249 60 375 b 571 1069 61 860 256 1069 b 829 1010 669 1069 757 1049 l 890 1089 l 1024 989 l 960 906 b 1082 526 1038 813 1082 683 b 571 -17 1081 193 886 -17 b 303 47 468 -17 378 6 l 236 -39 m 571 150 b 874 526 761 150 874 299 b 832 739 874 608 860 681 l 414 193 b 571 150 457 165 510 150 m 719 865 b 571 903 676 890 628 903 b 268 526 381 903 268 754 b 306 326 268 450 281 382 l 719 865 m 581 1339 l 794 1339 l 649 1132 l 493 1132 "},"Õ":{"ha":1142,"x_min":0,"x_max":0,"o":"m 571 -17 b 60 526 256 -17 61 193 b 571 1069 61 860 256 1069 b 1082 526 886 1069 1081 860 b 571 -17 1081 193 886 -17 m 571 150 b 874 526 761 150 874 299 b 571 903 874 754 761 903 b 268 526 381 903 268 754 b 571 150 268 299 381 150 m 657 1119 b 551 1153 608 1119 576 1138 b 492 1178 528 1167 510 1178 b 449 1122 468 1178 450 1160 l 338 1122 b 496 1308 333 1232 392 1308 b 600 1272 543 1308 574 1289 b 650 1247 621 1257 636 1247 b 694 1308 674 1247 692 1265 l 804 1308 b 657 1119 808 1197 753 1119 "},"Œ":{"ha":1651,"x_min":0,"x_max":0,"o":"m 557 -18 b 60 521 258 -18 60 192 b 557 1069 60 857 258 1069 b 853 940 676 1069 786 1028 l 853 1051 l 1550 1051 l 1550 890 l 1063 890 l 1063 628 l 1536 628 l 1536 471 l 1063 471 l 1063 161 l 1564 161 l 1564 0 l 853 0 l 853 110 b 557 -18 786 24 676 -18 m 561 146 b 860 521 743 146 860 261 b 564 906 860 790 747 906 b 268 521 381 906 268 763 b 561 146 268 289 383 146 "},"P":{"ha":967,"x_min":0,"x_max":0,"o":"m 97 1051 l 486 1051 b 718 1021 576 1051 657 1044 b 908 718 836 975 908 865 b 721 417 908 568 836 461 b 471 385 657 392 576 385 l 306 385 l 306 0 l 97 0 m 478 538 b 596 549 524 538 556 538 b 700 715 657 567 700 618 b 593 886 700 817 657 868 b 489 899 556 897 524 899 l 306 899 l 306 538 l 478 538 "},"Þ":{"ha":967,"x_min":0,"x_max":0,"o":"m 97 1051 l 306 1051 l 306 860 l 486 860 b 718 829 576 860 657 853 b 908 526 836 783 908 674 b 721 225 908 376 836 269 b 471 193 657 200 576 193 l 306 193 l 306 0 l 97 0 m 478 346 b 596 357 524 346 556 346 b 700 524 657 375 700 426 b 593 694 700 625 657 676 b 489 707 556 706 524 707 l 306 707 l 306 346 l 478 346 "},"Q":{"ha":1142,"x_min":0,"x_max":0,"o":"m 571 -17 b 60 526 256 -17 61 193 b 571 1069 61 860 256 1069 b 1082 526 886 1069 1081 860 b 961 149 1082 371 1039 242 l 1099 149 l 1099 0 l 717 0 b 571 -17 671 -11 622 -17 m 571 150 b 874 526 761 150 874 299 b 571 903 874 754 761 903 b 268 526 381 903 268 754 b 571 150 268 299 381 150 "},"R":{"ha":1026,"x_min":0,"x_max":0,"o":"m 97 1051 l 508 1051 b 740 1021 599 1051 679 1044 b 928 733 858 975 928 867 b 744 449 928 601 858 488 b 665 429 721 440 693 435 l 963 0 l 733 0 l 444 419 l 306 419 l 306 0 l 97 0 m 507 567 b 622 578 553 567 582 567 b 726 733 683 594 726 646 b 619 888 726 818 683 869 b 515 899 582 897 550 899 l 306 899 l 306 567 l 507 567 "},"Ŕ":{"ha":1026,"x_min":0,"x_max":0,"o":"m 97 1051 l 508 1051 b 740 1021 599 1051 679 1044 b 928 733 858 975 928 867 b 744 449 928 601 858 488 b 665 429 721 440 693 435 l 963 0 l 733 0 l 444 419 l 306 419 l 306 0 l 97 0 m 507 567 b 622 578 553 567 582 567 b 726 733 683 594 726 646 b 619 888 726 818 683 869 b 515 899 582 897 550 899 l 306 899 l 306 567 l 507 567 m 500 1339 l 714 1339 l 568 1132 l 413 1132 "},"Ř":{"ha":1026,"x_min":0,"x_max":0,"o":"m 97 1051 l 508 1051 b 740 1021 599 1051 679 1044 b 928 733 858 975 928 867 b 744 449 928 601 858 488 b 665 429 721 440 693 435 l 963 0 l 733 0 l 444 419 l 306 419 l 306 0 l 97 0 m 507 567 b 622 578 553 567 582 567 b 726 733 683 594 726 646 b 619 888 726 818 683 869 b 515 899 582 897 550 899 l 306 899 l 306 567 l 507 567 m 254 1339 l 393 1339 l 490 1217 l 588 1339 l 726 1339 l 610 1132 l 371 1132 "},"Ŗ":{"ha":1026,"x_min":0,"x_max":0,"o":"m 97 1051 l 508 1051 b 740 1021 599 1051 679 1044 b 928 733 858 975 928 867 b 744 449 928 601 858 488 b 665 429 721 440 693 435 l 963 0 l 733 0 l 444 419 l 306 419 l 306 0 l 97 0 m 436 -292 l 436 -101 l 596 -101 l 596 -292 l 504 -460 l 383 -460 m 507 567 b 622 578 553 567 582 567 b 726 733 683 594 726 646 b 619 888 726 818 683 869 b 515 899 582 897 550 899 l 306 899 l 306 567 l 507 567 "},"S":{"ha":994,"x_min":0,"x_max":0,"o":"m 492 -18 b 308 7 425 -18 353 -8 b 46 331 151 54 60 168 l 261 331 b 511 147 275 206 354 147 b 742 301 657 147 742 204 b 574 438 742 382 703 414 l 381 472 b 65 757 167 510 65 603 b 307 1046 65 900 146 996 b 510 1069 363 1063 431 1071 b 690 1047 576 1068 642 1061 b 928 772 828 1007 917 906 l 724 772 b 503 907 703 864 640 906 b 274 779 364 908 274 860 b 431 661 274 711 313 682 l 625 626 b 949 325 850 586 949 494 b 696 7 949 172 856 56 b 492 -18 642 -8 567 -18 "},"Ś":{"ha":994,"x_min":0,"x_max":0,"o":"m 492 -18 b 308 7 425 -18 353 -8 b 46 331 151 54 60 168 l 261 331 b 511 147 275 206 354 147 b 742 301 657 147 742 204 b 574 438 742 382 703 414 l 381 472 b 65 757 167 510 65 603 b 307 1046 65 900 146 996 b 510 1069 363 1063 431 1071 b 690 1047 576 1068 642 1061 b 928 772 828 1007 917 906 l 724 772 b 503 907 703 864 640 906 b 274 779 364 908 274 860 b 431 661 274 711 313 682 l 625 626 b 949 325 850 586 949 494 b 696 7 949 172 856 56 b 492 -18 642 -8 567 -18 m 515 1339 l 729 1339 l 583 1132 l 428 1132 "},"Š":{"ha":994,"x_min":0,"x_max":0,"o":"m 492 -18 b 308 7 425 -18 353 -8 b 46 331 151 54 60 168 l 261 331 b 511 147 275 206 354 147 b 742 301 657 147 742 204 b 574 438 742 382 703 414 l 381 472 b 65 757 167 510 65 603 b 307 1046 65 900 146 996 b 510 1069 363 1063 431 1071 b 690 1047 576 1068 642 1061 b 928 772 828 1007 917 906 l 724 772 b 503 907 703 864 640 906 b 274 779 364 908 274 860 b 431 661 274 711 313 682 l 625 626 b 949 325 850 586 949 494 b 696 7 949 172 856 56 b 492 -18 642 -8 567 -18 m 269 1339 l 408 1339 l 506 1217 l 603 1339 l 742 1339 l 625 1132 l 386 1132 "},"Ş":{"ha":994,"x_min":0,"x_max":0,"o":"m 492 -18 b 308 7 425 -18 353 -8 b 46 331 151 54 60 168 l 261 331 b 511 147 275 206 354 147 b 742 301 657 147 742 204 b 574 438 742 382 703 414 l 381 472 b 65 757 167 510 65 603 b 307 1046 65 900 146 996 b 510 1069 363 1063 431 1071 b 690 1047 576 1068 642 1061 b 928 772 828 1007 917 906 l 724 772 b 503 907 703 864 640 906 b 274 779 364 908 274 860 b 431 661 274 711 313 682 l 625 626 b 949 325 850 586 949 494 b 696 7 949 172 856 56 b 492 -18 642 -8 567 -18 m 415 -64 l 571 -64 l 483 -271 l 269 -271 "},"Ŝ":{"ha":994,"x_min":0,"x_max":0,"o":"m 492 -18 b 308 7 425 -18 353 -8 b 46 331 151 54 60 168 l 261 331 b 511 147 275 206 354 147 b 742 301 657 147 742 204 b 574 438 742 382 703 414 l 381 472 b 65 757 167 510 65 603 b 307 1046 65 900 146 996 b 510 1069 363 1063 431 1071 b 690 1047 576 1068 642 1061 b 928 772 828 1007 917 906 l 724 772 b 503 907 703 864 640 906 b 274 779 364 908 274 860 b 431 661 274 711 313 682 l 625 626 b 949 325 850 586 949 494 b 696 7 949 172 856 56 b 492 -18 642 -8 567 -18 m 386 1339 l 625 1339 l 742 1132 l 603 1132 l 506 1254 l 408 1132 l 269 1132 "},"Ș":{"ha":994,"x_min":0,"x_max":0,"o":"m 492 -18 b 308 7 425 -18 353 -8 b 46 331 151 54 60 168 l 261 331 b 511 147 275 206 354 147 b 742 301 657 147 742 204 b 574 438 742 382 703 414 l 381 472 b 65 757 167 510 65 603 b 307 1046 65 900 146 996 b 510 1069 363 1063 431 1071 b 690 1047 576 1068 642 1061 b 928 772 828 1007 917 906 l 724 772 b 503 907 703 864 640 906 b 274 779 364 908 274 860 b 431 661 274 711 313 682 l 625 626 b 949 325 850 586 949 494 b 696 7 949 172 856 56 b 492 -18 642 -8 567 -18 m 413 -292 l 413 -101 l 572 -101 l 572 -292 l 481 -460 l 360 -460 "},"ẞ":{"ha":875,"x_min":0,"x_max":0,"o":""},"T":{"ha":921,"x_min":0,"x_max":0,"o":"m 357 890 l 47 890 l 47 1051 l 874 1051 l 874 890 l 565 890 l 565 0 l 357 0 "},"Ŧ":{"ha":921,"x_min":0,"x_max":0,"o":"m 357 468 l 172 468 l 172 606 l 357 606 l 357 890 l 47 890 l 47 1051 l 874 1051 l 874 890 l 565 890 l 565 606 l 750 606 l 750 468 l 565 468 l 565 0 l 357 0 "},"Ť":{"ha":921,"x_min":0,"x_max":0,"o":"m 357 890 l 47 890 l 47 1051 l 874 1051 l 874 890 l 565 890 l 565 0 l 357 0 m 225 1339 l 364 1339 l 461 1217 l 558 1339 l 697 1339 l 581 1132 l 342 1132 "},"Ţ":{"ha":921,"x_min":0,"x_max":0,"o":"m 357 890 l 47 890 l 47 1051 l 874 1051 l 874 890 l 565 890 l 565 0 l 357 0 m 383 -64 l 539 -64 l 451 -271 l 238 -271 "},"Ț":{"ha":921,"x_min":0,"x_max":0,"o":"m 357 890 l 47 890 l 47 1051 l 874 1051 l 874 890 l 565 890 l 565 0 l 357 0 m 381 -292 l 381 -101 l 540 -101 l 540 -292 l 449 -460 l 328 -460 "},"U":{"ha":1050,"x_min":0,"x_max":0,"o":"m 514 -19 b 97 336 132 -19 97 183 l 97 1049 l 307 1049 l 307 358 b 517 157 307 264 328 157 b 743 358 739 157 743 256 l 743 1049 l 953 1049 l 953 336 b 514 -19 953 169 899 -19 "},"Ú":{"ha":1050,"x_min":0,"x_max":0,"o":"m 514 -19 b 97 336 132 -19 97 183 l 97 1049 l 307 1049 l 307 358 b 517 157 307 264 328 157 b 743 358 739 157 743 256 l 743 1049 l 953 1049 l 953 336 b 514 -19 953 169 899 -19 m 513 1339 l 726 1339 l 581 1132 l 425 1132 "},"Ŭ":{"ha":1050,"x_min":0,"x_max":0,"o":"m 514 -19 b 97 336 132 -19 97 183 l 97 1049 l 307 1049 l 307 358 b 517 157 307 264 328 157 b 743 358 739 157 743 256 l 743 1049 l 953 1049 l 953 336 b 514 -19 953 169 899 -19 m 525 1122 b 300 1339 410 1122 315 1192 l 444 1339 b 525 1231 449 1265 475 1231 b 604 1339 574 1231 600 1265 l 749 1339 b 525 1122 733 1192 639 1122 "},"Û":{"ha":1050,"x_min":0,"x_max":0,"o":"m 514 -19 b 97 336 132 -19 97 183 l 97 1049 l 307 1049 l 307 358 b 517 157 307 264 328 157 b 743 358 739 157 743 256 l 743 1049 l 953 1049 l 953 336 b 514 -19 953 169 899 -19 m 406 1339 l 644 1339 l 761 1132 l 622 1132 l 525 1254 l 428 1132 l 289 1132 "},"Ü":{"ha":1050,"x_min":0,"x_max":0,"o":"m 514 -19 b 97 336 132 -19 97 183 l 97 1049 l 307 1049 l 307 358 b 517 157 307 264 328 157 b 743 358 739 157 743 256 l 743 1049 l 953 1049 l 953 336 b 514 -19 953 169 899 -19 m 288 1339 l 476 1339 l 476 1156 l 288 1156 m 574 1339 l 763 1339 l 763 1156 l 574 1156 "},"Ù":{"ha":1050,"x_min":0,"x_max":0,"o":"m 514 -19 b 97 336 132 -19 97 183 l 97 1049 l 307 1049 l 307 358 b 517 157 307 264 328 157 b 743 358 739 157 743 256 l 743 1049 l 953 1049 l 953 336 b 514 -19 953 169 899 -19 m 328 1339 l 542 1339 l 629 1132 l 474 1132 "},"Ű":{"ha":1050,"x_min":0,"x_max":0,"o":"m 514 -19 b 97 336 132 -19 97 183 l 97 1049 l 307 1049 l 307 358 b 517 157 307 264 328 157 b 743 358 739 157 743 256 l 743 1049 l 953 1049 l 953 336 b 514 -19 953 169 899 -19 m 390 1339 l 585 1339 l 439 1132 l 303 1132 m 654 1339 l 849 1339 l 703 1132 l 567 1132 "},"Ū":{"ha":1050,"x_min":0,"x_max":0,"o":"m 514 -19 b 97 336 132 -19 97 183 l 97 1049 l 307 1049 l 307 358 b 517 157 307 264 328 157 b 743 358 739 157 743 256 l 743 1049 l 953 1049 l 953 336 b 514 -19 953 169 899 -19 m 321 1269 l 729 1269 l 729 1142 l 321 1142 "},"Ų":{"ha":1050,"x_min":0,"x_max":0,"o":"m 586 -261 b 439 -118 508 -261 439 -207 b 474 -18 439 -83 449 -50 b 97 336 129 -4 97 189 l 97 1049 l 307 1049 l 307 358 b 517 157 307 264 328 157 b 743 358 739 157 743 256 l 743 1049 l 953 1049 l 953 336 b 678 -6 953 197 915 42 b 579 -107 592 -57 579 -86 b 618 -144 579 -131 596 -144 b 690 -124 639 -144 667 -136 l 690 -229 b 586 -261 657 -251 621 -261 "},"Ů":{"ha":1050,"x_min":0,"x_max":0,"o":"m 514 -19 b 97 336 132 -19 97 183 l 97 1049 l 307 1049 l 307 358 b 517 157 307 264 328 157 b 743 358 739 157 743 256 l 743 1049 l 953 1049 l 953 336 b 514 -19 953 169 899 -19 m 528 1097 b 371 1254 442 1097 371 1168 b 528 1406 371 1336 442 1406 b 679 1254 610 1406 679 1336 b 528 1097 679 1168 610 1097 m 526 1193 b 586 1253 558 1193 586 1218 b 526 1313 586 1286 558 1313 b 467 1253 492 1313 467 1286 b 526 1193 467 1218 492 1193 "},"Ũ":{"ha":1050,"x_min":0,"x_max":0,"o":"m 514 -19 b 97 336 132 -19 97 183 l 97 1049 l 307 1049 l 307 358 b 517 157 307 264 328 157 b 743 358 739 157 743 256 l 743 1049 l 953 1049 l 953 336 b 514 -19 953 169 899 -19 m 611 1119 b 506 1153 563 1119 531 1138 b 446 1178 482 1167 464 1178 b 403 1122 422 1178 404 1160 l 292 1122 b 450 1308 288 1232 346 1308 b 554 1272 497 1308 528 1289 b 604 1247 575 1257 590 1247 b 649 1308 628 1247 646 1265 l 758 1308 b 611 1119 763 1197 707 1119 "},"V":{"ha":1015,"x_min":0,"x_max":0,"o":"m 25 1051 l 240 1051 l 508 221 l 775 1051 l 990 1051 l 640 0 l 375 0 "},"W":{"ha":1450,"x_min":0,"x_max":0,"o":"m 32 1051 l 236 1051 l 421 224 l 596 1051 l 853 1051 l 1033 224 l 1214 1051 l 1418 1051 l 1167 0 l 897 0 l 724 831 l 553 0 l 283 0 "},"Ẃ":{"ha":1450,"x_min":0,"x_max":0,"o":"m 32 1051 l 236 1051 l 421 224 l 596 1051 l 853 1051 l 1033 224 l 1214 1051 l 1418 1051 l 1167 0 l 897 0 l 724 831 l 553 0 l 283 0 m 738 1339 l 951 1339 l 806 1132 l 650 1132 "},"Ŵ":{"ha":1450,"x_min":0,"x_max":0,"o":"m 32 1051 l 236 1051 l 421 224 l 596 1051 l 853 1051 l 1033 224 l 1214 1051 l 1418 1051 l 1167 0 l 897 0 l 724 831 l 553 0 l 283 0 m 608 1339 l 847 1339 l 964 1132 l 825 1132 l 728 1254 l 631 1132 l 492 1132 "},"Ẅ":{"ha":1450,"x_min":0,"x_max":0,"o":"m 32 1051 l 236 1051 l 421 224 l 596 1051 l 853 1051 l 1033 224 l 1214 1051 l 1418 1051 l 1167 0 l 897 0 l 724 831 l 553 0 l 283 0 m 490 1339 l 679 1339 l 679 1156 l 490 1156 m 776 1339 l 965 1339 l 965 1156 l 776 1156 "},"Ẁ":{"ha":1450,"x_min":0,"x_max":0,"o":"m 32 1051 l 236 1051 l 421 224 l 596 1051 l 853 1051 l 1033 224 l 1214 1051 l 1418 1051 l 1167 0 l 897 0 l 724 831 l 553 0 l 283 0 m 504 1339 l 718 1339 l 806 1132 l 650 1132 "},"X":{"ha":979,"x_min":0,"x_max":0,"o":"m 381 568 l 54 1051 l 286 1051 l 494 718 l 700 1051 l 928 1051 l 603 560 l 951 0 l 719 0 l 489 401 l 256 0 l 28 0 "},"Y":{"ha":969,"x_min":0,"x_max":0,"o":"m 383 350 l 21 1051 l 246 1051 l 490 565 l 726 1051 l 949 1051 l 585 350 l 585 0 l 383 0 "},"Ý":{"ha":969,"x_min":0,"x_max":0,"o":"m 383 350 l 21 1051 l 246 1051 l 490 565 l 726 1051 l 949 1051 l 585 350 l 585 0 l 383 0 m 479 1339 l 693 1339 l 547 1132 l 392 1132 "},"Ŷ":{"ha":969,"x_min":0,"x_max":0,"o":"m 383 350 l 21 1051 l 246 1051 l 490 565 l 726 1051 l 949 1051 l 585 350 l 585 0 l 383 0 m 364 1339 l 603 1339 l 719 1132 l 581 1132 l 483 1254 l 386 1132 l 247 1132 "},"Ÿ":{"ha":969,"x_min":0,"x_max":0,"o":"m 383 350 l 21 1051 l 246 1051 l 490 565 l 726 1051 l 949 1051 l 585 350 l 585 0 l 383 0 m 246 1339 l 435 1339 l 435 1156 l 246 1156 m 532 1339 l 721 1339 l 721 1156 l 532 1156 "},"Ỳ":{"ha":969,"x_min":0,"x_max":0,"o":"m 383 350 l 21 1051 l 246 1051 l 490 565 l 726 1051 l 949 1051 l 585 350 l 585 0 l 383 0 m 286 1339 l 500 1339 l 588 1132 l 432 1132 "},"Ȳ":{"ha":969,"x_min":0,"x_max":0,"o":"m 383 350 l 21 1051 l 246 1051 l 490 565 l 726 1051 l 949 1051 l 585 350 l 585 0 l 383 0 m 279 1269 l 688 1269 l 688 1142 l 279 1142 "},"Z":{"ha":964,"x_min":0,"x_max":0,"o":"m 67 156 l 631 896 l 94 896 l 94 1051 l 876 1051 l 876 896 l 313 156 l 897 156 l 897 0 l 67 0 "},"Ź":{"ha":964,"x_min":0,"x_max":0,"o":"m 67 156 l 631 896 l 94 896 l 94 1051 l 876 1051 l 876 896 l 313 156 l 897 156 l 897 0 l 67 0 m 511 1339 l 725 1339 l 579 1132 l 424 1132 "},"Ž":{"ha":964,"x_min":0,"x_max":0,"o":"m 67 156 l 631 896 l 94 896 l 94 1051 l 876 1051 l 876 896 l 313 156 l 897 156 l 897 0 l 67 0 m 265 1339 l 404 1339 l 501 1217 l 599 1339 l 738 1339 l 621 1132 l 382 1132 "},"Ż":{"ha":964,"x_min":0,"x_max":0,"o":"m 67 156 l 631 896 l 94 896 l 94 1051 l 876 1051 l 876 896 l 313 156 l 897 156 l 897 0 l 67 0 m 399 1339 l 603 1339 l 603 1156 l 399 1156 "},"a":{"ha":833,"x_min":0,"x_max":0,"o":"m 328 -17 b 56 235 164 -17 56 83 b 174 425 56 335 101 390 b 558 499 260 467 449 483 l 558 542 b 433 647 558 611 510 647 b 289 551 346 647 306 619 l 94 551 b 432 782 108 708 217 782 b 753 531 639 782 753 693 l 753 0 l 569 0 l 569 99 b 328 -17 519 25 428 -17 m 374 125 b 557 301 485 125 557 194 l 557 376 b 397 338 517 365 454 353 b 254 225 321 318 254 292 b 374 125 254 161 299 125 "},"á":{"ha":833,"x_min":0,"x_max":0,"o":"m 328 -17 b 56 235 164 -17 56 83 b 174 425 56 335 101 390 b 558 499 260 467 449 483 l 558 542 b 433 647 558 611 510 647 b 289 551 346 647 306 619 l 94 551 b 432 782 108 708 217 782 b 753 531 639 782 753 693 l 753 0 l 569 0 l 569 99 b 328 -17 519 25 428 -17 m 374 125 b 557 301 485 125 557 194 l 557 376 b 397 338 517 365 454 353 b 254 225 321 318 254 292 b 374 125 254 161 299 125 m 442 1051 l 656 1051 l 510 844 l 354 844 "},"ă":{"ha":833,"x_min":0,"x_max":0,"o":"m 328 -17 b 56 235 164 -17 56 83 b 174 425 56 335 101 390 b 558 499 260 467 449 483 l 558 542 b 433 647 558 611 510 647 b 289 551 346 647 306 619 l 94 551 b 432 782 108 708 217 782 b 753 531 639 782 753 693 l 753 0 l 569 0 l 569 99 b 328 -17 519 25 428 -17 m 374 125 b 557 301 485 125 557 194 l 557 376 b 397 338 517 365 454 353 b 254 225 321 318 254 292 b 374 125 254 161 299 125 m 432 835 b 207 1051 317 835 222 904 l 351 1051 b 432 943 356 978 382 943 b 511 1051 481 943 507 978 l 656 1051 b 432 835 640 904 546 835 "},"â":{"ha":833,"x_min":0,"x_max":0,"o":"m 328 -17 b 56 235 164 -17 56 83 b 174 425 56 335 101 390 b 558 499 260 467 449 483 l 558 542 b 433 647 558 611 510 647 b 289 551 346 647 306 619 l 94 551 b 432 782 108 708 217 782 b 753 531 639 782 753 693 l 753 0 l 569 0 l 569 99 b 328 -17 519 25 428 -17 m 374 125 b 557 301 485 125 557 194 l 557 376 b 397 338 517 365 454 353 b 254 225 321 318 254 292 b 374 125 254 161 299 125 m 313 1051 l 551 1051 l 668 844 l 529 844 l 432 967 l 335 844 l 196 844 "},"ä":{"ha":833,"x_min":0,"x_max":0,"o":"m 328 -17 b 56 235 164 -17 56 83 b 174 425 56 335 101 390 b 558 499 260 467 449 483 l 558 542 b 433 647 558 611 510 647 b 289 551 346 647 306 619 l 94 551 b 432 782 108 708 217 782 b 753 531 639 782 753 693 l 753 0 l 569 0 l 569 99 b 328 -17 519 25 428 -17 m 374 125 b 557 301 485 125 557 194 l 557 376 b 397 338 517 365 454 353 b 254 225 321 318 254 292 b 374 125 254 161 299 125 m 194 1051 l 383 1051 l 383 868 l 194 868 m 481 1051 l 669 1051 l 669 868 l 481 868 "},"à":{"ha":833,"x_min":0,"x_max":0,"o":"m 328 -17 b 56 235 164 -17 56 83 b 174 425 56 335 101 390 b 558 499 260 467 449 483 l 558 542 b 433 647 558 611 510 647 b 289 551 346 647 306 619 l 94 551 b 432 782 108 708 217 782 b 753 531 639 782 753 693 l 753 0 l 569 0 l 569 99 b 328 -17 519 25 428 -17 m 374 125 b 557 301 485 125 557 194 l 557 376 b 397 338 517 365 454 353 b 254 225 321 318 254 292 b 374 125 254 161 299 125 m 208 1051 l 422 1051 l 510 844 l 354 844 "},"ā":{"ha":833,"x_min":0,"x_max":0,"o":"m 328 -17 b 56 235 164 -17 56 83 b 174 425 56 335 101 390 b 558 499 260 467 449 483 l 558 542 b 433 647 558 611 510 647 b 289 551 346 647 306 619 l 94 551 b 432 782 108 708 217 782 b 753 531 639 782 753 693 l 753 0 l 569 0 l 569 99 b 328 -17 519 25 428 -17 m 374 125 b 557 301 485 125 557 194 l 557 376 b 397 338 517 365 454 353 b 254 225 321 318 254 292 b 374 125 254 161 299 125 m 228 982 l 636 982 l 636 854 l 228 854 "},"ą":{"ha":833,"x_min":0,"x_max":0,"o":"m 667 -261 b 519 -118 589 -261 519 -207 b 569 0 519 -76 535 -37 l 569 99 b 328 -17 519 25 428 -17 b 56 235 164 -17 56 83 b 174 425 56 335 101 390 b 558 499 260 467 449 483 l 558 542 b 433 647 558 611 510 647 b 289 551 346 647 306 619 l 94 551 b 432 782 108 708 217 782 b 753 531 639 782 753 693 l 753 1 l 767 0 b 660 -107 674 -56 660 -85 b 699 -144 660 -131 676 -144 b 771 -124 719 -144 747 -136 l 771 -229 b 667 -261 738 -251 701 -261 m 374 125 b 557 301 485 125 557 194 l 557 376 b 397 338 517 365 454 353 b 254 225 321 318 254 292 b 374 125 254 161 299 125 "},"å":{"ha":833,"x_min":0,"x_max":0,"o":"m 328 -17 b 56 235 164 -17 56 83 b 174 425 56 335 101 390 b 558 499 260 467 449 483 l 558 542 b 433 647 558 611 510 647 b 289 551 346 647 306 619 l 94 551 b 432 782 108 708 217 782 b 753 531 639 782 753 693 l 753 0 l 569 0 l 569 99 b 328 -17 519 25 428 -17 m 374 125 b 557 301 485 125 557 194 l 557 376 b 397 338 517 365 454 353 b 254 225 321 318 254 292 b 374 125 254 161 299 125 m 435 810 b 278 967 349 810 278 881 b 435 1118 278 1049 349 1118 b 586 967 517 1118 586 1049 b 435 810 586 881 517 810 m 433 906 b 493 965 465 906 493 931 b 433 1025 493 999 465 1025 b 374 965 399 1025 374 999 b 433 906 374 931 399 906 "},"ã":{"ha":797,"x_min":0,"x_max":0,"o":"m 328 -17 b 56 235 164 -17 56 83 b 174 425 56 335 101 390 b 558 499 260 467 449 483 l 558 542 b 433 647 558 611 510 647 b 289 551 346 647 306 619 l 94 551 b 432 782 108 708 217 782 b 753 531 639 782 753 693 l 753 0 l 569 0 l 569 99 b 328 -17 519 25 428 -17 m 374 125 b 557 301 485 125 557 194 l 557 376 b 397 338 517 365 454 353 b 254 225 321 318 254 292 b 374 125 254 161 299 125 m 486 832 b 381 865 438 832 406 850 b 321 890 357 879 339 890 b 278 835 297 890 279 872 l 167 835 b 325 1021 163 944 221 1021 b 429 985 372 1021 403 1001 b 479 960 450 969 465 960 b 524 1021 503 960 521 978 l 633 1021 b 486 832 638 910 582 832 "},"æ":{"ha":1368,"x_min":0,"x_max":0,"o":"m 942 -18 b 649 110 814 -18 715 31 b 350 -17 582 24 469 -17 b 56 235 199 -17 56 71 b 214 446 56 332 93 406 b 360 474 254 460 303 467 l 474 489 b 565 556 540 497 565 514 b 433 647 565 611 510 647 b 289 551 346 647 306 619 l 94 551 b 419 782 108 708 217 782 b 686 690 557 782 632 753 b 944 782 751 751 838 782 b 1319 385 1215 782 1319 579 l 1319 340 l 751 340 b 942 133 764 218 826 133 b 1122 249 1032 133 1093 171 l 1307 249 b 942 -18 1290 85 1125 -18 m 374 125 b 564 301 485 125 564 194 l 564 381 b 492 367 551 376 524 372 l 369 346 b 251 225 288 332 251 299 b 374 125 251 161 296 125 m 1128 468 b 942 639 1118 557 1071 639 b 756 468 828 639 771 574 l 1128 468 "},"ǽ":{"ha":1368,"x_min":0,"x_max":0,"o":"m 942 -18 b 649 110 814 -18 715 31 b 350 -17 582 24 469 -17 b 56 235 199 -17 56 71 b 214 446 56 332 93 406 b 360 474 254 460 303 467 l 474 489 b 565 556 540 497 565 514 b 433 647 565 611 510 647 b 289 551 346 647 306 619 l 94 551 b 419 782 108 708 217 782 b 686 690 557 782 632 753 b 944 782 751 751 838 782 b 1319 385 1215 782 1319 579 l 1319 340 l 751 340 b 942 133 764 218 826 133 b 1122 249 1032 133 1093 171 l 1307 249 b 942 -18 1290 85 1125 -18 m 374 125 b 564 301 485 125 564 194 l 564 381 b 492 367 551 376 524 372 l 369 346 b 251 225 288 332 251 299 b 374 125 251 161 296 125 m 1128 468 b 942 639 1118 557 1071 639 b 756 468 828 639 771 574 l 1128 468 m 703 1051 l 917 1051 l 771 844 l 615 844 "},"b":{"ha":886,"x_min":0,"x_max":0,"o":"m 497 -18 b 268 122 379 -18 303 35 l 268 0 l 88 0 l 88 1051 l 274 1051 l 274 656 b 497 782 310 735 386 782 b 614 761 522 782 574 776 b 838 382 753 711 836 567 b 614 3 836 197 753 53 b 497 -18 565 -15 529 -18 m 454 135 b 646 381 582 135 646 244 b 454 628 646 515 583 628 b 275 381 308 628 275 507 b 454 135 275 254 308 135 "},"c":{"ha":824,"x_min":0,"x_max":0,"o":"m 426 -18 b 49 382 199 -18 49 142 b 426 782 49 622 199 782 b 771 515 610 782 757 668 l 579 515 b 429 638 557 596 506 638 b 246 382 317 638 246 543 b 429 126 246 221 317 126 b 588 269 511 126 565 174 l 781 269 b 426 -18 772 106 619 -18 "},"ć":{"ha":824,"x_min":0,"x_max":0,"o":"m 426 -18 b 49 382 199 -18 49 142 b 426 782 49 622 199 782 b 771 515 610 782 757 668 l 579 515 b 429 638 557 596 506 638 b 246 382 317 638 246 543 b 429 126 246 221 317 126 b 588 269 511 126 565 174 l 781 269 b 426 -18 772 106 619 -18 m 436 1051 l 650 1051 l 504 844 l 349 844 "},"č":{"ha":824,"x_min":0,"x_max":0,"o":"m 426 -18 b 49 382 199 -18 49 142 b 426 782 49 622 199 782 b 771 515 610 782 757 668 l 579 515 b 429 638 557 596 506 638 b 246 382 317 638 246 543 b 429 126 246 221 317 126 b 588 269 511 126 565 174 l 781 269 b 426 -18 772 106 619 -18 m 190 1051 l 329 1051 l 426 929 l 524 1051 l 663 1051 l 546 844 l 307 844 "},"ç":{"ha":824,"x_min":0,"x_max":0,"o":"m 426 -18 b 49 382 199 -18 49 142 b 426 782 49 622 199 782 b 771 515 610 782 757 668 l 579 515 b 429 638 557 596 506 638 b 246 382 317 638 246 543 b 429 126 246 221 317 126 b 588 269 511 126 565 174 l 781 269 b 426 -18 772 106 619 -18 m 349 -64 l 504 -64 l 417 -271 l 203 -271 "},"ĉ":{"ha":824,"x_min":0,"x_max":0,"o":"m 426 -18 b 49 382 199 -18 49 142 b 426 782 49 622 199 782 b 771 515 610 782 757 668 l 579 515 b 429 638 557 596 506 638 b 246 382 317 638 246 543 b 429 126 246 221 317 126 b 588 269 511 126 565 174 l 781 269 b 426 -18 772 106 619 -18 m 307 1051 l 546 1051 l 663 844 l 524 844 l 426 967 l 329 844 l 190 844 "},"ċ":{"ha":824,"x_min":0,"x_max":0,"o":"m 426 -18 b 49 382 199 -18 49 142 b 426 782 49 622 199 782 b 771 515 610 782 757 668 l 579 515 b 429 638 557 596 506 638 b 246 382 317 638 246 543 b 429 126 246 221 317 126 b 588 269 511 126 565 174 l 781 269 b 426 -18 772 106 619 -18 m 324 1051 l 528 1051 l 528 868 l 324 868 "},"d":{"ha":886,"x_min":0,"x_max":0,"o":"m 389 -18 b 272 3 357 -18 321 -15 b 49 382 133 53 50 197 b 272 761 50 567 133 711 b 389 782 313 776 364 782 b 613 656 500 782 576 735 l 613 1051 l 799 1051 l 799 0 l 618 0 l 618 122 b 389 -18 583 35 507 -18 m 432 135 b 611 381 578 135 611 254 b 432 628 611 507 578 628 b 240 381 303 628 240 515 b 432 135 240 244 304 135 "},"ď":{"ha":1067,"x_min":0,"x_max":0,"o":"m 389 -18 b 272 3 357 -18 321 -15 b 49 382 133 53 50 197 b 272 761 50 567 133 711 b 389 782 313 776 364 782 b 613 656 500 782 576 735 l 613 1051 l 799 1051 l 799 0 l 618 0 l 618 122 b 389 -18 583 35 507 -18 m 432 135 b 611 381 578 135 611 254 b 432 628 611 507 578 628 b 240 381 303 628 240 515 b 432 135 240 244 304 135 m 924 861 l 924 1051 l 1083 1051 l 1083 861 l 992 693 l 871 693 "},"đ":{"ha":947,"x_min":0,"x_max":0,"o":"m 389 -18 b 272 3 357 -18 321 -15 b 49 382 133 53 50 197 b 272 761 50 567 133 711 b 389 782 313 776 364 782 b 613 656 500 782 576 735 l 613 840 l 396 840 l 396 957 l 613 957 l 613 1051 l 799 1051 l 799 957 l 904 957 l 904 840 l 799 840 l 799 0 l 618 0 l 618 122 b 389 -18 583 35 507 -18 m 432 135 b 611 381 578 135 611 254 b 432 628 611 507 578 628 b 240 381 303 628 240 515 b 432 135 240 244 304 135 "},"ð":{"ha":876,"x_min":0,"x_max":0,"o":"m 433 -18 b 49 372 192 -18 49 153 b 418 761 49 590 189 761 b 596 685 483 761 561 736 b 390 892 575 764 479 857 l 315 792 l 214 863 l 268 933 l 194 954 l 232 1085 l 358 1053 l 460 1188 l 557 1114 l 476 1008 b 821 421 703 899 821 647 b 433 -18 821 188 696 -18 m 433 135 b 626 372 560 135 626 240 b 433 607 626 501 560 607 b 242 372 307 607 242 501 b 433 135 242 240 307 135 "},"e":{"ha":865,"x_min":0,"x_max":0,"o":"m 432 -18 b 49 382 183 -18 49 158 b 436 782 49 615 199 782 b 817 385 708 782 817 579 l 817 340 l 247 340 b 436 135 247 218 322 135 b 611 249 521 135 583 172 l 804 249 b 568 -1 783 114 681 29 b 432 -18 519 -15 479 -18 m 614 472 b 439 636 604 557 557 638 l 435 636 b 254 472 325 635 269 572 l 614 472 "},"é":{"ha":865,"x_min":0,"x_max":0,"o":"m 432 -18 b 49 382 183 -18 49 158 b 436 782 49 615 199 782 b 817 385 708 782 817 579 l 817 340 l 247 340 b 436 135 247 218 322 135 b 611 249 521 135 583 172 l 804 249 b 568 -1 783 114 681 29 b 432 -18 519 -15 479 -18 m 614 472 b 439 636 604 557 557 638 l 435 636 b 254 472 325 635 269 572 l 614 472 m 446 1051 l 660 1051 l 514 844 l 358 844 "},"ĕ":{"ha":865,"x_min":0,"x_max":0,"o":"m 432 -18 b 49 382 183 -18 49 158 b 436 782 49 615 199 782 b 817 385 708 782 817 579 l 817 340 l 247 340 b 436 135 247 218 322 135 b 611 249 521 135 583 172 l 804 249 b 568 -1 783 114 681 29 b 432 -18 519 -15 479 -18 m 614 472 b 439 636 604 557 557 638 l 435 636 b 254 472 325 635 269 572 l 614 472 m 436 835 b 211 1051 321 835 226 904 l 356 1051 b 436 943 360 978 386 943 b 515 1051 485 943 511 978 l 660 1051 b 436 835 644 904 550 835 "},"ě":{"ha":865,"x_min":0,"x_max":0,"o":"m 432 -18 b 49 382 183 -18 49 158 b 436 782 49 615 199 782 b 817 385 708 782 817 579 l 817 340 l 247 340 b 436 135 247 218 322 135 b 611 249 521 135 583 172 l 804 249 b 568 -1 783 114 681 29 b 432 -18 519 -15 479 -18 m 614 472 b 439 636 604 557 557 638 l 435 636 b 254 472 325 635 269 572 l 614 472 m 200 1051 l 339 1051 l 436 929 l 533 1051 l 672 1051 l 556 844 l 317 844 "},"ê":{"ha":865,"x_min":0,"x_max":0,"o":"m 432 -18 b 49 382 183 -18 49 158 b 436 782 49 615 199 782 b 817 385 708 782 817 579 l 817 340 l 247 340 b 436 135 247 218 322 135 b 611 249 521 135 583 172 l 804 249 b 568 -1 783 114 681 29 b 432 -18 519 -15 479 -18 m 614 472 b 439 636 604 557 557 638 l 435 636 b 254 472 325 635 269 572 l 614 472 m 317 1051 l 556 1051 l 672 844 l 533 844 l 436 967 l 339 844 l 200 844 "},"ë":{"ha":865,"x_min":0,"x_max":0,"o":"m 432 -18 b 49 382 183 -18 49 158 b 436 782 49 615 199 782 b 817 385 708 782 817 579 l 817 340 l 247 340 b 436 135 247 218 322 135 b 611 249 521 135 583 172 l 804 249 b 568 -1 783 114 681 29 b 432 -18 519 -15 479 -18 m 614 472 b 439 636 604 557 557 638 l 435 636 b 254 472 325 635 269 572 l 614 472 m 199 1051 l 388 1051 l 388 868 l 199 868 m 485 1051 l 674 1051 l 674 868 l 485 868 "},"ė":{"ha":865,"x_min":0,"x_max":0,"o":"m 432 -18 b 49 382 183 -18 49 158 b 436 782 49 615 199 782 b 817 385 708 782 817 579 l 817 340 l 247 340 b 436 135 247 218 322 135 b 611 249 521 135 583 172 l 804 249 b 568 -1 783 114 681 29 b 432 -18 519 -15 479 -18 m 614 472 b 439 636 604 557 557 638 l 435 636 b 254 472 325 635 269 572 l 614 472 m 333 1051 l 538 1051 l 538 868 l 333 868 "},"è":{"ha":865,"x_min":0,"x_max":0,"o":"m 432 -18 b 49 382 183 -18 49 158 b 436 782 49 615 199 782 b 817 385 708 782 817 579 l 817 340 l 247 340 b 436 135 247 218 322 135 b 611 249 521 135 583 172 l 804 249 b 568 -1 783 114 681 29 b 432 -18 519 -15 479 -18 m 614 472 b 439 636 604 557 557 638 l 435 636 b 254 472 325 635 269 572 l 614 472 m 213 1051 l 426 1051 l 514 844 l 358 844 "},"ē":{"ha":865,"x_min":0,"x_max":0,"o":"m 432 -18 b 49 382 183 -18 49 158 b 436 782 49 615 199 782 b 817 385 708 782 817 579 l 817 340 l 247 340 b 436 135 247 218 322 135 b 611 249 521 135 583 172 l 804 249 b 568 -1 783 114 681 29 b 432 -18 519 -15 479 -18 m 614 472 b 439 636 604 557 557 638 l 435 636 b 254 472 325 635 269 572 l 614 472 m 232 982 l 640 982 l 640 854 l 232 854 "},"ę":{"ha":865,"x_min":0,"x_max":0,"o":"m 501 -261 b 354 -118 424 -261 354 -207 b 390 -17 354 -82 365 -49 b 49 382 168 3 49 171 b 436 782 49 615 199 782 b 817 385 708 782 817 579 l 817 340 l 247 340 b 436 135 247 218 322 135 b 611 249 521 135 583 172 l 804 249 b 639 25 788 143 721 68 l 600 0 l 557 -29 b 494 -107 508 -62 494 -85 b 533 -144 494 -135 511 -144 b 606 -124 554 -144 582 -136 l 606 -229 b 501 -261 572 -251 536 -261 m 614 472 b 439 636 604 557 557 638 l 435 636 b 254 472 325 635 269 572 l 614 472 "},"ə":{"ha":865,"x_min":0,"x_max":0,"o":"m 429 -18 b 49 379 157 -18 49 185 l 49 424 l 618 424 b 429 629 618 546 543 629 b 254 515 344 629 282 592 l 61 515 b 297 765 82 650 185 735 b 433 782 346 779 386 782 b 817 382 682 782 817 606 b 429 -18 817 149 667 -18 m 431 128 b 611 292 540 129 596 192 l 251 292 b 426 128 261 207 308 126 l 431 128 "},"f":{"ha":560,"x_min":0,"x_max":0,"o":"m 147 621 l 39 621 l 39 764 l 147 764 l 147 850 b 421 1051 147 985 236 1051 l 524 1051 l 524 917 l 483 917 b 338 808 382 917 338 882 l 338 764 l 507 764 l 507 621 l 338 621 l 338 0 l 147 0 "},"g":{"ha":886,"x_min":0,"x_max":0,"o":"m 428 -261 b 82 -50 217 -261 107 -206 l 282 -50 b 438 -126 300 -101 340 -126 b 608 17 551 -126 608 -79 l 608 132 b 389 7 572 53 500 7 b 272 28 364 7 313 13 b 49 394 133 75 50 215 b 272 761 50 574 133 714 b 389 782 321 779 357 782 b 618 646 507 782 583 731 l 618 764 l 799 764 l 796 8 b 428 -261 796 -153 688 -261 m 432 157 b 611 396 578 157 611 274 b 432 633 611 518 578 633 b 240 396 304 633 240 528 b 432 157 240 265 303 157 "},"ğ":{"ha":886,"x_min":0,"x_max":0,"o":"m 428 -261 b 82 -50 217 -261 107 -206 l 282 -50 b 438 -126 300 -101 340 -126 b 608 17 551 -126 608 -79 l 608 132 b 389 7 572 53 500 7 b 272 28 364 7 313 13 b 49 394 133 75 50 215 b 272 761 50 574 133 714 b 389 782 321 779 357 782 b 618 646 507 782 583 731 l 618 764 l 799 764 l 796 8 b 428 -261 796 -153 688 -261 m 432 157 b 611 396 578 157 611 274 b 432 633 611 518 578 633 b 240 396 304 633 240 528 b 432 157 240 265 303 157 m 454 835 b 229 1051 339 835 244 904 l 374 1051 b 454 943 378 978 404 943 b 533 1051 503 943 529 978 l 678 1051 b 454 835 663 904 568 835 "},"ǧ":{"ha":886,"x_min":0,"x_max":0,"o":"m 428 -261 b 82 -50 217 -261 107 -206 l 282 -50 b 438 -126 300 -101 340 -126 b 608 17 551 -126 608 -79 l 608 132 b 389 7 572 53 500 7 b 272 28 364 7 313 13 b 49 394 133 75 50 215 b 272 761 50 574 133 714 b 389 782 321 779 357 782 b 618 646 507 782 583 731 l 618 764 l 799 764 l 796 8 b 428 -261 796 -153 688 -261 m 432 157 b 611 396 578 157 611 274 b 432 633 611 518 578 633 b 240 396 304 633 240 528 b 432 157 240 265 303 157 m 218 1051 l 357 1051 l 454 929 l 551 1051 l 690 1051 l 574 844 l 335 844 "},"ģ":{"ha":886,"x_min":0,"x_max":0,"o":"m 428 -261 b 82 -50 217 -261 107 -206 l 282 -50 b 438 -126 300 -101 340 -126 b 608 17 551 -126 608 -79 l 608 132 b 389 7 572 53 500 7 b 272 28 364 7 313 13 b 49 394 133 75 50 215 b 272 761 50 574 133 714 b 389 782 321 779 357 782 b 618 646 507 782 583 731 l 618 764 l 799 764 l 796 8 b 428 -261 796 -153 688 -261 m 432 157 b 611 396 578 157 611 274 b 432 633 611 518 578 633 b 240 396 304 633 240 528 b 432 157 240 265 303 157 m 375 1056 l 467 1224 l 588 1224 l 535 1056 l 535 865 l 375 865 "},"ġ":{"ha":886,"x_min":0,"x_max":0,"o":"m 428 -261 b 82 -50 217 -261 107 -206 l 282 -50 b 438 -126 300 -101 340 -126 b 608 17 551 -126 608 -79 l 608 132 b 389 7 572 53 500 7 b 272 28 364 7 313 13 b 49 394 133 75 50 215 b 272 761 50 574 133 714 b 389 782 321 779 357 782 b 618 646 507 782 583 731 l 618 764 l 799 764 l 796 8 b 428 -261 796 -153 688 -261 m 432 157 b 611 396 578 157 611 274 b 432 633 611 518 578 633 b 240 396 304 633 240 528 b 432 157 240 265 303 157 m 351 1051 l 556 1051 l 556 868 l 351 868 "},"h":{"ha":849,"x_min":0,"x_max":0,"o":"m 88 1051 l 272 1051 l 272 646 b 510 782 306 724 382 782 b 688 721 579 782 639 761 b 747 633 713 697 735 668 b 768 492 761 600 768 563 l 768 0 l 572 0 l 572 492 b 557 576 572 525 569 550 b 464 631 539 614 503 631 b 340 568 414 631 375 607 b 301 510 325 550 313 532 b 283 390 286 479 283 457 l 283 0 l 88 0 "},"ħ":{"ha":849,"x_min":0,"x_max":0,"o":"m 88 840 l -18 840 l -18 957 l 88 957 l 88 1051 l 272 1051 l 272 957 l 490 957 l 490 840 l 272 840 l 272 646 b 510 782 306 724 382 782 b 688 721 579 782 639 761 b 747 633 713 697 735 668 b 768 492 761 600 768 563 l 768 0 l 572 0 l 572 492 b 557 576 572 525 569 550 b 464 631 539 614 503 631 b 340 568 414 631 375 607 b 301 510 325 550 313 532 b 283 390 286 479 283 457 l 283 0 l 88 0 "},"i":{"ha":371,"x_min":0,"x_max":0,"o":"m 88 764 l 283 764 l 283 0 l 88 0 m 83 1051 l 288 1051 l 288 868 l 83 868 "},"ı":{"ha":371,"x_min":0,"x_max":0,"o":"m 88 764 l 283 764 l 283 0 l 88 0 "},"í":{"ha":371,"x_min":0,"x_max":0,"o":"m 88 764 l 283 764 l 283 0 l 88 0 m 196 1051 l 410 1051 l 264 844 l 108 844 "},"ĭ":{"ha":371,"x_min":0,"x_max":0,"o":"m 88 764 l 283 764 l 283 0 l 88 0 m 186 835 b -39 1051 71 835 -24 904 l 106 1051 b 186 943 110 978 136 943 b 265 1051 235 943 261 978 l 410 1051 b 186 835 394 904 300 835 "},"î":{"ha":371,"x_min":0,"x_max":0,"o":"m 88 764 l 283 764 l 283 0 l 88 0 m 67 1051 l 306 1051 l 422 844 l 283 844 l 186 967 l 89 844 l -50 844 "},"ï":{"ha":371,"x_min":0,"x_max":0,"o":"m 88 764 l 283 764 l 283 0 l 88 0 m -51 1051 l 138 1051 l 138 868 l -51 868 m 235 1051 l 424 1051 l 424 868 l 235 868 "},"ì":{"ha":371,"x_min":0,"x_max":0,"o":"m 88 764 l 283 764 l 283 0 l 88 0 m -37 1051 l 176 1051 l 264 844 l 108 844 "},"ī":{"ha":371,"x_min":0,"x_max":0,"o":"m 88 764 l 283 764 l 283 0 l 88 0 m -18 982 l 390 982 l 390 854 l -18 854 "},"į":{"ha":371,"x_min":0,"x_max":0,"o":"m 183 -261 b 36 -118 106 -261 36 -207 b 88 1 36 -76 51 -37 l 88 764 l 283 764 l 283 0 b 176 -107 190 -56 176 -85 b 215 -144 176 -131 193 -144 b 288 -124 236 -144 264 -136 l 288 -229 b 183 -261 254 -251 218 -261 m 83 1051 l 288 1051 l 288 868 l 83 868 "},"ĩ":{"ha":371,"x_min":0,"x_max":0,"o":"m 88 764 l 283 764 l 283 0 l 88 0 m 272 832 b 167 865 224 832 192 850 b 107 890 143 879 125 890 b 64 835 83 890 65 872 l -47 835 b 111 1021 -51 944 7 1021 b 215 985 158 1021 189 1001 b 265 960 236 969 251 960 b 310 1021 289 960 307 978 l 419 1021 b 272 832 424 910 368 832 "},"j":{"ha":371,"x_min":0,"x_max":0,"o":"m 88 764 l 283 764 l 283 -243 l 88 -243 m 83 1051 l 288 1051 l 288 868 l 83 868 "},"ȷ":{"ha":371,"x_min":0,"x_max":0,"o":"m 88 764 l 283 764 l 283 -243 l 88 -243 "},"k":{"ha":799,"x_min":0,"x_max":0,"o":"m 88 1051 l 283 1051 l 283 492 l 540 764 l 756 764 l 478 469 l 778 0 l 565 0 l 351 349 l 283 276 l 283 0 l 88 0 "},"ķ":{"ha":799,"x_min":0,"x_max":0,"o":"m 88 1051 l 283 1051 l 283 492 l 540 764 l 756 764 l 478 469 l 778 0 l 565 0 l 351 349 l 283 276 l 283 0 l 88 0 m 324 -292 l 324 -101 l 483 -101 l 483 -292 l 392 -460 l 271 -460 "},"l":{"ha":371,"x_min":0,"x_max":0,"o":"m 88 1051 l 283 1051 l 283 0 l 88 0 "},"ĺ":{"ha":371,"x_min":0,"x_max":0,"o":"m 88 1051 l 283 1051 l 283 0 l 88 0 m 196 1339 l 410 1339 l 264 1132 l 108 1132 "},"ľ":{"ha":551,"x_min":0,"x_max":0,"o":"m 88 1051 l 283 1051 l 283 0 l 88 0 m 408 861 l 408 1051 l 568 1051 l 568 861 l 476 693 l 356 693 "},"ļ":{"ha":371,"x_min":0,"x_max":0,"o":"m 88 1051 l 283 1051 l 283 0 l 88 0 m 106 -292 l 106 -101 l 265 -101 l 265 -292 l 174 -460 l 53 -460 "},"ŀ":{"ha":614,"x_min":0,"x_max":0,"o":"m 88 1051 l 283 1051 l 283 0 l 88 0 m 394 632 l 599 632 l 599 404 l 394 404 "},"ł":{"ha":479,"x_min":0,"x_max":0,"o":"m 142 453 l 36 392 l 36 542 l 142 603 l 142 1051 l 338 1051 l 338 715 l 443 776 l 443 626 l 338 565 l 338 0 l 142 0 "},"m":{"ha":1286,"x_min":0,"x_max":0,"o":"m 88 764 l 267 764 l 267 639 b 490 782 301 731 378 782 b 658 721 556 782 613 761 b 710 644 679 700 700 674 b 957 782 754 731 836 782 b 1128 721 1024 782 1082 761 b 1186 633 1151 697 1174 668 b 1206 492 1199 600 1206 563 l 1206 0 l 1011 0 l 1011 492 b 997 576 1011 525 1008 550 b 910 631 981 614 947 631 b 799 568 867 631 831 607 b 761 510 783 550 772 532 b 744 390 747 479 744 457 l 744 0 l 549 0 l 549 492 b 535 576 549 525 546 550 b 449 631 519 614 485 631 b 336 568 403 631 367 607 b 299 510 322 550 308 532 b 282 390 285 479 282 457 l 282 0 l 88 0 "},"n":{"ha":849,"x_min":0,"x_max":0,"o":"m 88 764 l 272 764 l 272 646 b 510 782 306 724 382 782 b 688 721 579 782 639 761 b 747 633 713 697 735 668 b 768 492 761 600 768 563 l 768 0 l 572 0 l 572 492 b 557 576 572 525 569 550 b 464 631 539 614 503 631 b 340 568 414 631 375 607 b 301 510 325 550 313 532 b 283 390 286 479 283 457 l 283 0 l 88 0 "},"ń":{"ha":849,"x_min":0,"x_max":0,"o":"m 88 764 l 272 764 l 272 646 b 510 782 306 724 382 782 b 688 721 579 782 639 761 b 747 633 713 697 735 668 b 768 492 761 600 768 563 l 768 0 l 572 0 l 572 492 b 557 576 572 525 569 550 b 464 631 539 614 503 631 b 340 568 414 631 375 607 b 301 510 325 550 313 532 b 283 390 286 479 283 457 l 283 0 l 88 0 m 418 1051 l 632 1051 l 486 844 l 331 844 "},"ň":{"ha":849,"x_min":0,"x_max":0,"o":"m 88 764 l 272 764 l 272 646 b 510 782 306 724 382 782 b 688 721 579 782 639 761 b 747 633 713 697 735 668 b 768 492 761 600 768 563 l 768 0 l 572 0 l 572 492 b 557 576 572 525 569 550 b 464 631 539 614 503 631 b 340 568 414 631 375 607 b 301 510 325 550 313 532 b 283 390 286 479 283 457 l 283 0 l 88 0 m 172 1051 l 311 1051 l 408 929 l 506 1051 l 644 1051 l 528 844 l 289 844 "},"ņ":{"ha":849,"x_min":0,"x_max":0,"o":"m 88 764 l 272 764 l 272 646 b 510 782 306 724 382 782 b 688 721 579 782 639 761 b 747 633 713 697 735 668 b 768 492 761 600 768 563 l 768 0 l 572 0 l 572 492 b 557 576 572 525 569 550 b 464 631 539 614 503 631 b 340 568 414 631 375 607 b 301 510 325 550 313 532 b 283 390 286 479 283 457 l 283 0 l 88 0 m 347 -292 l 347 -101 l 507 -101 l 507 -292 l 415 -460 l 294 -460 "},"ñ":{"ha":849,"x_min":0,"x_max":0,"o":"m 88 764 l 272 764 l 272 646 b 510 782 306 724 382 782 b 688 721 579 782 639 761 b 747 633 713 697 735 668 b 768 492 761 600 768 563 l 768 0 l 572 0 l 572 492 b 557 576 572 525 569 550 b 464 631 539 614 503 631 b 340 568 414 631 375 607 b 301 510 325 550 313 532 b 283 390 286 479 283 457 l 283 0 l 88 0 m 494 832 b 389 865 446 832 414 850 b 329 890 365 879 347 890 b 286 835 306 890 288 872 l 175 835 b 333 1021 171 944 229 1021 b 438 985 381 1021 411 1001 b 488 960 458 969 474 960 b 532 1021 511 960 529 978 l 642 1021 b 494 832 646 910 590 832 "},"ŋ":{"ha":849,"x_min":0,"x_max":0,"o":"m 544 -261 b 442 -253 513 -261 486 -260 l 442 -124 b 492 -125 458 -125 476 -125 b 572 -24 544 -125 572 -94 l 572 492 b 557 576 572 525 569 550 b 464 631 539 614 503 631 b 340 568 414 631 375 607 b 301 510 325 550 313 532 b 283 390 286 479 283 457 l 283 0 l 88 0 l 88 764 l 272 764 l 272 646 b 510 782 306 724 382 782 b 688 721 579 782 639 761 b 747 633 713 697 735 668 b 768 492 761 600 768 563 l 768 -44 b 544 -261 768 -197 676 -261 "},"o":{"ha":867,"x_min":0,"x_max":0,"o":"m 433 -18 b 49 382 192 -18 49 153 b 433 782 49 611 192 782 b 818 382 675 782 818 611 b 433 -18 818 153 661 -18 m 433 135 b 626 382 560 135 626 240 b 433 629 626 522 560 629 b 240 382 307 629 240 522 b 433 135 240 240 307 135 "},"ó":{"ha":867,"x_min":0,"x_max":0,"o":"m 433 -18 b 49 382 192 -18 49 153 b 433 782 49 611 192 782 b 818 382 675 782 818 611 b 433 -18 818 153 661 -18 m 433 135 b 626 382 560 135 626 240 b 433 629 626 522 560 629 b 240 382 307 629 240 522 b 433 135 240 240 307 135 m 443 1051 l 657 1051 l 511 844 l 356 844 "},"ŏ":{"ha":867,"x_min":0,"x_max":0,"o":"m 433 -18 b 49 382 192 -18 49 153 b 433 782 49 611 192 782 b 818 382 675 782 818 611 b 433 -18 818 153 661 -18 m 433 135 b 626 382 560 135 626 240 b 433 629 626 522 560 629 b 240 382 307 629 240 522 b 433 135 240 240 307 135 m 433 835 b 208 1051 318 835 224 904 l 353 1051 b 433 943 357 978 383 943 b 513 1051 482 943 508 978 l 657 1051 b 433 835 642 904 547 835 "},"ô":{"ha":867,"x_min":0,"x_max":0,"o":"m 433 -18 b 49 382 192 -18 49 153 b 433 782 49 611 192 782 b 818 382 675 782 818 611 b 433 -18 818 153 661 -18 m 433 135 b 626 382 560 135 626 240 b 433 629 626 522 560 629 b 240 382 307 629 240 522 b 433 135 240 240 307 135 m 314 1051 l 553 1051 l 669 844 l 531 844 l 433 967 l 336 844 l 197 844 "},"ö":{"ha":867,"x_min":0,"x_max":0,"o":"m 433 -18 b 49 382 192 -18 49 153 b 433 782 49 611 192 782 b 818 382 675 782 818 611 b 433 -18 818 153 661 -18 m 433 135 b 626 382 560 135 626 240 b 433 629 626 522 560 629 b 240 382 307 629 240 522 b 433 135 240 240 307 135 m 196 1051 l 385 1051 l 385 868 l 196 868 m 482 1051 l 671 1051 l 671 868 l 482 868 "},"ò":{"ha":867,"x_min":0,"x_max":0,"o":"m 433 -18 b 49 382 192 -18 49 153 b 433 782 49 611 192 782 b 818 382 675 782 818 611 b 433 -18 818 153 661 -18 m 433 135 b 626 382 560 135 626 240 b 433 629 626 522 560 629 b 240 382 307 629 240 522 b 433 135 240 240 307 135 m 210 1051 l 424 1051 l 511 844 l 356 844 "},"ő":{"ha":867,"x_min":0,"x_max":0,"o":"m 433 -18 b 49 382 192 -18 49 153 b 433 782 49 611 192 782 b 818 382 675 782 818 611 b 433 -18 818 153 661 -18 m 433 135 b 626 382 560 135 626 240 b 433 629 626 522 560 629 b 240 382 307 629 240 522 b 433 135 240 240 307 135 m 321 1051 l 515 1051 l 369 844 l 233 844 m 585 1051 l 779 1051 l 633 844 l 497 844 "},"ō":{"ha":867,"x_min":0,"x_max":0,"o":"m 433 -18 b 49 382 192 -18 49 153 b 433 782 49 611 192 782 b 818 382 675 782 818 611 b 433 -18 818 153 661 -18 m 433 135 b 626 382 560 135 626 240 b 433 629 626 522 560 629 b 240 382 307 629 240 522 b 433 135 240 240 307 135 m 229 982 l 638 982 l 638 854 l 229 854 "},"ø":{"ha":867,"x_min":0,"x_max":0,"o":"m 111 10 l 160 86 b 49 382 88 158 49 263 b 433 782 49 611 192 782 b 588 754 490 782 543 772 l 638 832 l 756 756 l 706 679 b 818 382 779 607 818 503 b 433 -18 818 153 661 -18 b 276 10 375 -18 322 -8 l 228 -65 m 507 629 b 433 642 486 638 461 642 b 231 382 299 642 231 532 b 257 238 231 328 239 278 l 507 629 m 433 121 b 636 382 568 121 636 231 b 608 528 636 438 626 486 l 357 135 b 433 121 379 126 404 121 "},"ǿ":{"ha":867,"x_min":0,"x_max":0,"o":"m 111 10 l 160 86 b 49 382 88 158 49 263 b 433 782 49 611 192 782 b 588 754 490 782 543 772 l 638 832 l 756 756 l 706 679 b 818 382 779 607 818 503 b 433 -18 818 153 661 -18 b 276 10 375 -18 322 -8 l 228 -65 m 507 629 b 433 642 486 638 461 642 b 231 382 299 642 231 532 b 257 238 231 328 239 278 l 507 629 m 433 121 b 636 382 568 121 636 231 b 608 528 636 438 626 486 l 357 135 b 433 121 379 126 404 121 m 443 1051 l 657 1051 l 511 844 l 356 844 "},"õ":{"ha":867,"x_min":0,"x_max":0,"o":"m 433 -18 b 49 382 192 -18 49 153 b 433 782 49 611 192 782 b 818 382 675 782 818 611 b 433 -18 818 153 661 -18 m 433 135 b 626 382 560 135 626 240 b 433 629 626 522 560 629 b 240 382 307 629 240 522 b 433 135 240 240 307 135 m 519 832 b 414 865 471 832 439 850 b 354 890 390 879 372 890 b 311 835 331 890 313 872 l 200 835 b 358 1021 196 944 254 1021 b 463 985 406 1021 436 1001 b 513 960 483 969 499 960 b 557 1021 536 960 554 978 l 667 1021 b 519 832 671 910 615 832 "},"œ":{"ha":1413,"x_min":0,"x_max":0,"o":"m 428 -18 b 49 382 192 -18 49 153 b 428 782 49 611 192 782 b 704 650 547 782 638 736 b 989 782 771 736 871 782 b 1364 385 1256 782 1364 579 l 1364 340 l 806 340 b 989 135 806 218 881 135 b 1158 249 1068 135 1131 172 l 1351 249 b 1115 -1 1331 114 1228 29 b 985 -18 1067 -15 1029 -18 b 708 115 869 -18 775 29 b 428 -18 640 28 549 -18 m 428 135 b 615 382 549 135 615 240 b 428 629 615 522 549 629 b 242 382 307 629 242 522 b 428 135 242 240 307 135 m 1161 472 b 992 636 1151 557 1104 636 l 988 636 b 813 472 883 636 828 572 l 1161 472 "},"p":{"ha":886,"x_min":0,"x_max":0,"o":"m 88 764 l 268 764 l 268 642 b 497 782 303 729 379 782 b 614 761 529 782 565 779 b 838 382 753 711 836 567 b 614 3 836 197 753 53 b 497 -18 574 -12 522 -18 b 274 108 386 -18 310 29 l 274 -243 l 88 -243 m 454 136 b 646 383 583 136 646 249 b 454 629 646 519 582 629 b 275 383 308 629 275 510 b 454 136 275 257 308 136 "},"þ":{"ha":886,"x_min":0,"x_max":0,"o":"m 88 1051 l 268 1051 l 268 642 b 497 782 303 729 379 782 b 614 761 529 782 565 779 b 838 382 753 711 836 567 b 614 3 836 197 753 53 b 497 -18 574 -12 522 -18 b 274 108 386 -18 310 29 l 274 -243 l 88 -243 m 454 136 b 646 383 583 136 646 249 b 454 629 646 519 582 629 b 275 383 308 629 275 510 b 454 136 275 257 308 136 "},"q":{"ha":886,"x_min":0,"x_max":0,"o":"m 613 108 b 389 -18 576 29 500 -18 b 272 3 364 -18 313 -12 b 49 382 133 53 50 197 b 272 761 50 567 133 711 b 389 782 321 779 357 782 b 618 642 507 782 583 729 l 618 764 l 799 764 l 799 -243 l 613 -243 l 613 108 m 432 136 b 611 383 578 136 611 257 b 432 629 611 510 578 629 b 240 383 304 629 240 519 b 432 136 240 249 303 136 "},"r":{"ha":624,"x_min":0,"x_max":0,"o":"m 88 764 l 281 764 l 281 582 b 543 779 332 719 431 779 b 590 776 558 779 575 779 l 590 596 l 571 596 b 349 506 451 596 396 563 b 283 283 300 444 283 385 l 283 0 l 88 0 "},"ŕ":{"ha":624,"x_min":0,"x_max":0,"o":"m 88 764 l 281 764 l 281 582 b 543 779 332 719 431 779 b 590 776 558 779 575 779 l 590 596 l 571 596 b 349 506 451 596 396 563 b 283 283 300 444 283 385 l 283 0 l 88 0 m 360 1051 l 574 1051 l 428 844 l 272 844 "},"ř":{"ha":624,"x_min":0,"x_max":0,"o":"m 88 764 l 281 764 l 281 582 b 543 779 332 719 431 779 b 590 776 558 779 575 779 l 590 596 l 571 596 b 349 506 451 596 396 563 b 283 283 300 444 283 385 l 283 0 l 88 0 m 114 1051 l 253 1051 l 350 929 l 447 1051 l 586 1051 l 469 844 l 231 844 "},"ŗ":{"ha":624,"x_min":0,"x_max":0,"o":"m 88 764 l 281 764 l 281 582 b 543 779 332 719 431 779 b 590 776 558 779 575 779 l 590 596 l 571 596 b 349 506 451 596 396 563 b 283 283 300 444 283 385 l 283 0 l 88 0 m 103 -292 l 103 -101 l 263 -101 l 263 -292 l 171 -460 l 50 -460 "},"s":{"ha":796,"x_min":0,"x_max":0,"o":"m 403 -18 b 42 233 172 -18 46 78 l 225 233 b 403 115 233 156 300 115 b 563 221 507 115 563 154 b 435 303 563 276 525 293 l 331 314 b 51 536 133 336 51 403 b 390 782 51 683 179 782 b 731 556 592 782 717 697 l 544 556 b 390 649 533 618 482 649 b 242 557 297 649 242 614 b 364 481 242 504 279 489 l 468 471 b 754 240 676 450 754 379 b 403 -18 754 83 625 -18 "},"ś":{"ha":796,"x_min":0,"x_max":0,"o":"m 403 -18 b 42 233 172 -18 46 78 l 225 233 b 403 115 233 156 300 115 b 563 221 507 115 563 154 b 435 303 563 276 525 293 l 331 314 b 51 536 133 336 51 403 b 390 782 51 683 179 782 b 731 556 592 782 717 697 l 544 556 b 390 649 533 618 482 649 b 242 557 297 649 242 614 b 364 481 242 504 279 489 l 468 471 b 754 240 676 450 754 379 b 403 -18 754 83 625 -18 m 404 1051 l 618 1051 l 472 844 l 317 844 "},"š":{"ha":796,"x_min":0,"x_max":0,"o":"m 403 -18 b 42 233 172 -18 46 78 l 225 233 b 403 115 233 156 300 115 b 563 221 507 115 563 154 b 435 303 563 276 525 293 l 331 314 b 51 536 133 336 51 403 b 390 782 51 683 179 782 b 731 556 592 782 717 697 l 544 556 b 390 649 533 618 482 649 b 242 557 297 649 242 614 b 364 481 242 504 279 489 l 468 471 b 754 240 676 450 754 379 b 403 -18 754 83 625 -18 m 158 1051 l 297 1051 l 394 929 l 492 1051 l 631 1051 l 514 844 l 275 844 "},"ş":{"ha":796,"x_min":0,"x_max":0,"o":"m 403 -18 b 42 233 172 -18 46 78 l 225 233 b 403 115 233 156 300 115 b 563 221 507 115 563 154 b 435 303 563 276 525 293 l 331 314 b 51 536 133 336 51 403 b 390 782 51 683 179 782 b 731 556 592 782 717 697 l 544 556 b 390 649 533 618 482 649 b 242 557 297 649 242 614 b 364 481 242 504 279 489 l 468 471 b 754 240 676 450 754 379 b 403 -18 754 83 625 -18 m 315 -64 l 471 -64 l 383 -271 l 169 -271 "},"ŝ":{"ha":796,"x_min":0,"x_max":0,"o":"m 403 -18 b 42 233 172 -18 46 78 l 225 233 b 403 115 233 156 300 115 b 563 221 507 115 563 154 b 435 303 563 276 525 293 l 331 314 b 51 536 133 336 51 403 b 390 782 51 683 179 782 b 731 556 592 782 717 697 l 544 556 b 390 649 533 618 482 649 b 242 557 297 649 242 614 b 364 481 242 504 279 489 l 468 471 b 754 240 676 450 754 379 b 403 -18 754 83 625 -18 m 275 1051 l 514 1051 l 631 844 l 492 844 l 394 967 l 297 844 l 158 844 "},"ș":{"ha":796,"x_min":0,"x_max":0,"o":"m 403 -18 b 42 233 172 -18 46 78 l 225 233 b 403 115 233 156 300 115 b 563 221 507 115 563 154 b 435 303 563 276 525 293 l 331 314 b 51 536 133 336 51 403 b 390 782 51 683 179 782 b 731 556 592 782 717 697 l 544 556 b 390 649 533 618 482 649 b 242 557 297 649 242 614 b 364 481 242 504 279 489 l 468 471 b 754 240 676 450 754 379 b 403 -18 754 83 625 -18 m 313 -292 l 313 -101 l 472 -101 l 472 -292 l 381 -460 l 260 -460 "},"ß":{"ha":889,"x_min":0,"x_max":0,"o":"m 458 -10 b 369 -3 431 -10 401 -8 l 369 146 b 428 142 396 143 414 142 b 653 340 569 142 653 215 b 369 553 653 463 568 551 l 369 693 l 396 693 b 542 808 501 693 542 725 b 426 922 542 881 499 922 b 283 736 325 922 283 857 l 283 0 l 88 0 l 88 767 b 438 1069 88 964 208 1069 b 738 833 621 1069 738 978 b 604 642 738 742 694 681 l 604 635 b 840 343 751 600 840 492 b 458 -10 840 125 694 -10 "},"t":{"ha":574,"x_min":0,"x_max":0,"o":"m 369 -14 b 149 179 244 -14 149 33 l 149 621 l 43 621 l 43 764 l 149 764 l 149 951 l 344 951 l 344 764 l 519 764 l 519 621 l 344 621 l 344 222 b 439 133 344 153 386 133 b 531 140 468 133 501 138 l 531 8 b 369 -14 476 -6 421 -14 "},"ŧ":{"ha":574,"x_min":0,"x_max":0,"o":"m 369 -14 b 149 179 244 -14 149 33 l 149 358 l 43 358 l 43 486 l 149 486 l 149 621 l 43 621 l 43 764 l 149 764 l 149 951 l 344 951 l 344 764 l 519 764 l 519 621 l 344 621 l 344 486 l 519 486 l 519 358 l 344 358 l 344 222 b 439 133 344 153 386 133 b 531 140 468 133 501 138 l 531 8 b 369 -14 476 -6 421 -14 "},"ť":{"ha":561,"x_min":0,"x_max":0,"o":"m 369 -14 b 149 179 244 -14 149 33 l 149 621 l 43 621 l 43 764 l 149 764 l 149 951 l 344 951 l 344 764 l 519 764 l 519 621 l 344 621 l 344 222 b 439 133 344 153 386 133 b 531 140 468 133 501 138 l 531 8 b 369 -14 476 -6 421 -14 m 425 960 l 425 1131 l 585 1131 l 585 960 l 501 819 l 381 819 "},"ţ":{"ha":574,"x_min":0,"x_max":0,"o":"m 369 -14 b 149 179 244 -14 149 33 l 149 621 l 43 621 l 43 764 l 149 764 l 149 951 l 344 951 l 344 764 l 519 764 l 519 621 l 344 621 l 344 222 b 439 133 344 153 386 133 b 531 140 468 133 501 138 l 531 8 b 369 -14 476 -6 421 -14 m 256 -64 l 411 -64 l 324 -271 l 110 -271 "},"ț":{"ha":574,"x_min":0,"x_max":0,"o":"m 369 -14 b 149 179 244 -14 149 33 l 149 621 l 43 621 l 43 764 l 149 764 l 149 951 l 344 951 l 344 764 l 519 764 l 519 621 l 344 621 l 344 222 b 439 133 344 153 386 133 b 531 140 468 133 501 138 l 531 8 b 369 -14 476 -6 421 -14 m 253 -292 l 253 -101 l 413 -101 l 413 -292 l 321 -460 l 200 -460 "},"u":{"ha":849,"x_min":0,"x_max":0,"o":"m 339 -18 b 161 43 269 -18 210 3 b 101 131 136 67 114 96 b 81 272 88 164 81 201 l 81 764 l 276 764 l 276 272 b 292 188 276 239 279 214 b 385 133 310 150 346 133 b 508 196 435 133 474 157 b 547 254 524 214 536 232 b 565 374 563 285 565 307 l 565 764 l 761 764 l 761 0 l 576 0 l 576 118 b 339 -18 543 40 467 -18 "},"ú":{"ha":849,"x_min":0,"x_max":0,"o":"m 339 -18 b 161 43 269 -18 210 3 b 101 131 136 67 114 96 b 81 272 88 164 81 201 l 81 764 l 276 764 l 276 272 b 292 188 276 239 279 214 b 385 133 310 150 346 133 b 508 196 435 133 474 157 b 547 254 524 214 536 232 b 565 374 563 285 565 307 l 565 764 l 761 764 l 761 0 l 576 0 l 576 118 b 339 -18 543 40 467 -18 m 431 1051 l 644 1051 l 499 844 l 343 844 "},"ŭ":{"ha":849,"x_min":0,"x_max":0,"o":"m 339 -18 b 161 43 269 -18 210 3 b 101 131 136 67 114 96 b 81 272 88 164 81 201 l 81 764 l 276 764 l 276 272 b 292 188 276 239 279 214 b 385 133 310 150 346 133 b 508 196 435 133 474 157 b 547 254 524 214 536 232 b 565 374 563 285 565 307 l 565 764 l 761 764 l 761 0 l 576 0 l 576 118 b 339 -18 543 40 467 -18 m 421 835 b 196 1051 306 835 211 904 l 340 1051 b 421 943 344 978 371 943 b 500 1051 469 943 496 978 l 644 1051 b 421 835 629 904 535 835 "},"û":{"ha":849,"x_min":0,"x_max":0,"o":"m 339 -18 b 161 43 269 -18 210 3 b 101 131 136 67 114 96 b 81 272 88 164 81 201 l 81 764 l 276 764 l 276 272 b 292 188 276 239 279 214 b 385 133 310 150 346 133 b 508 196 435 133 474 157 b 547 254 524 214 536 232 b 565 374 563 285 565 307 l 565 764 l 761 764 l 761 0 l 576 0 l 576 118 b 339 -18 543 40 467 -18 m 301 1051 l 540 1051 l 657 844 l 518 844 l 421 967 l 324 844 l 185 844 "},"ü":{"ha":849,"x_min":0,"x_max":0,"o":"m 339 -18 b 161 43 269 -18 210 3 b 101 131 136 67 114 96 b 81 272 88 164 81 201 l 81 764 l 276 764 l 276 272 b 292 188 276 239 279 214 b 385 133 310 150 346 133 b 508 196 435 133 474 157 b 547 254 524 214 536 232 b 565 374 563 285 565 307 l 565 764 l 761 764 l 761 0 l 576 0 l 576 118 b 339 -18 543 40 467 -18 m 183 1051 l 372 1051 l 372 868 l 183 868 m 469 1051 l 658 1051 l 658 868 l 469 868 "},"ù":{"ha":849,"x_min":0,"x_max":0,"o":"m 339 -18 b 161 43 269 -18 210 3 b 101 131 136 67 114 96 b 81 272 88 164 81 201 l 81 764 l 276 764 l 276 272 b 292 188 276 239 279 214 b 385 133 310 150 346 133 b 508 196 435 133 474 157 b 547 254 524 214 536 232 b 565 374 563 285 565 307 l 565 764 l 761 764 l 761 0 l 576 0 l 576 118 b 339 -18 543 40 467 -18 m 197 1051 l 411 1051 l 499 844 l 343 844 "},"ű":{"ha":849,"x_min":0,"x_max":0,"o":"m 339 -18 b 161 43 269 -18 210 3 b 101 131 136 67 114 96 b 81 272 88 164 81 201 l 81 764 l 276 764 l 276 272 b 292 188 276 239 279 214 b 385 133 310 150 346 133 b 508 196 435 133 474 157 b 547 254 524 214 536 232 b 565 374 563 285 565 307 l 565 764 l 761 764 l 761 0 l 576 0 l 576 118 b 339 -18 543 40 467 -18 m 308 1051 l 503 1051 l 357 844 l 221 844 m 572 1051 l 767 1051 l 621 844 l 485 844 "},"ū":{"ha":849,"x_min":0,"x_max":0,"o":"m 339 -18 b 161 43 269 -18 210 3 b 101 131 136 67 114 96 b 81 272 88 164 81 201 l 81 764 l 276 764 l 276 272 b 292 188 276 239 279 214 b 385 133 310 150 346 133 b 508 196 435 133 474 157 b 547 254 524 214 536 232 b 565 374 563 285 565 307 l 565 764 l 761 764 l 761 0 l 576 0 l 576 118 b 339 -18 543 40 467 -18 m 217 982 l 625 982 l 625 854 l 217 854 "},"ų":{"ha":849,"x_min":0,"x_max":0,"o":"m 661 -261 b 514 -118 583 -261 514 -207 b 576 13 514 -72 532 -31 l 576 118 b 339 -18 543 40 467 -18 b 161 43 269 -18 210 3 b 101 131 136 67 114 96 b 81 272 88 164 81 201 l 81 764 l 276 764 l 276 272 b 292 188 276 239 279 214 b 385 133 310 150 346 133 b 508 196 435 133 474 157 b 547 254 524 214 536 232 b 565 374 563 285 565 307 l 565 764 l 761 764 l 761 0 b 654 -107 668 -56 654 -85 b 693 -144 654 -131 671 -144 b 765 -124 714 -144 742 -136 l 765 -229 b 661 -261 732 -251 696 -261 "},"ů":{"ha":849,"x_min":0,"x_max":0,"o":"m 339 -18 b 161 43 269 -18 210 3 b 101 131 136 67 114 96 b 81 272 88 164 81 201 l 81 764 l 276 764 l 276 272 b 292 188 276 239 279 214 b 385 133 310 150 346 133 b 508 196 435 133 474 157 b 547 254 524 214 536 232 b 565 374 563 285 565 307 l 565 764 l 761 764 l 761 0 l 576 0 l 576 118 b 339 -18 543 40 467 -18 m 424 810 b 267 967 338 810 267 881 b 424 1118 267 1049 338 1118 b 575 967 506 1118 575 1049 b 424 810 575 881 506 810 m 422 906 b 482 965 454 906 482 931 b 422 1025 482 999 454 1025 b 363 965 388 1025 363 999 b 422 906 363 931 388 906 "},"ũ":{"ha":849,"x_min":0,"x_max":0,"o":"m 339 -18 b 161 43 269 -18 210 3 b 101 131 136 67 114 96 b 81 272 88 164 81 201 l 81 764 l 276 764 l 276 272 b 292 188 276 239 279 214 b 385 133 310 150 346 133 b 508 196 435 133 474 157 b 547 254 524 214 536 232 b 565 374 563 285 565 307 l 565 764 l 761 764 l 761 0 l 576 0 l 576 118 b 339 -18 543 40 467 -18 m 507 832 b 401 865 458 832 426 850 b 342 890 378 879 360 890 b 299 835 318 890 300 872 l 188 835 b 346 1021 183 944 242 1021 b 450 985 393 1021 424 1001 b 500 960 471 969 486 960 b 544 1021 524 960 542 978 l 654 1021 b 507 832 658 910 603 832 "},"v":{"ha":774,"x_min":0,"x_max":0,"o":"m 18 764 l 218 764 l 389 183 l 564 764 l 756 764 l 514 0 l 258 0 "},"w":{"ha":1165,"x_min":0,"x_max":0,"o":"m 25 764 l 211 764 l 354 232 l 492 764 l 679 764 l 817 232 l 960 764 l 1140 764 l 924 0 l 711 0 l 585 499 l 456 0 l 243 0 "},"ẃ":{"ha":1165,"x_min":0,"x_max":0,"o":"m 25 764 l 211 764 l 354 232 l 492 764 l 679 764 l 817 232 l 960 764 l 1140 764 l 924 0 l 711 0 l 585 499 l 456 0 l 243 0 m 593 1051 l 807 1051 l 661 844 l 506 844 "},"ŵ":{"ha":1165,"x_min":0,"x_max":0,"o":"m 25 764 l 211 764 l 354 232 l 492 764 l 679 764 l 817 232 l 960 764 l 1140 764 l 924 0 l 711 0 l 585 499 l 456 0 l 243 0 m 464 1051 l 703 1051 l 819 844 l 681 844 l 583 967 l 486 844 l 347 844 "},"ẅ":{"ha":1165,"x_min":0,"x_max":0,"o":"m 25 764 l 211 764 l 354 232 l 492 764 l 679 764 l 817 232 l 960 764 l 1140 764 l 924 0 l 711 0 l 585 499 l 456 0 l 243 0 m 346 1051 l 535 1051 l 535 868 l 346 868 m 632 1051 l 821 1051 l 821 868 l 632 868 "},"ẁ":{"ha":1165,"x_min":0,"x_max":0,"o":"m 25 764 l 211 764 l 354 232 l 492 764 l 679 764 l 817 232 l 960 764 l 1140 764 l 924 0 l 711 0 l 585 499 l 456 0 l 243 0 m 360 1051 l 574 1051 l 661 844 l 506 844 "},"x":{"ha":858,"x_min":0,"x_max":0,"o":"m 311 404 l 51 764 l 271 764 l 435 533 l 599 764 l 808 764 l 549 400 l 832 0 l 615 0 l 425 271 l 238 0 l 26 0 "},"y":{"ha":793,"x_min":0,"x_max":0,"o":"m 321 13 l 18 764 l 224 764 l 418 257 l 581 764 l 775 764 l 425 -243 l 232 -243 "},"ý":{"ha":793,"x_min":0,"x_max":0,"o":"m 321 13 l 18 764 l 224 764 l 418 257 l 581 764 l 775 764 l 425 -243 l 232 -243 m 414 1051 l 628 1051 l 482 844 l 326 844 "},"ŷ":{"ha":793,"x_min":0,"x_max":0,"o":"m 321 13 l 18 764 l 224 764 l 418 257 l 581 764 l 775 764 l 425 -243 l 232 -243 m 285 1051 l 524 1051 l 640 844 l 501 844 l 404 967 l 307 844 l 168 844 "},"ÿ":{"ha":793,"x_min":0,"x_max":0,"o":"m 321 13 l 18 764 l 224 764 l 418 257 l 581 764 l 775 764 l 425 -243 l 232 -243 m 167 1051 l 356 1051 l 356 868 l 167 868 m 453 1051 l 642 1051 l 642 868 l 453 868 "},"ỳ":{"ha":793,"x_min":0,"x_max":0,"o":"m 321 13 l 18 764 l 224 764 l 418 257 l 581 764 l 775 764 l 425 -243 l 232 -243 m 181 1051 l 394 1051 l 482 844 l 326 844 "},"ȳ":{"ha":793,"x_min":0,"x_max":0,"o":"m 321 13 l 18 764 l 224 764 l 418 257 l 581 764 l 775 764 l 425 -243 l 232 -243 m 200 982 l 608 982 l 608 854 l 200 854 "},"z":{"ha":722,"x_min":0,"x_max":0,"o":"m 49 136 l 425 625 l 74 625 l 74 764 l 653 764 l 653 628 l 279 143 l 674 143 l 674 0 l 49 0 "},"ź":{"ha":722,"x_min":0,"x_max":0,"o":"m 49 136 l 425 625 l 74 625 l 74 764 l 653 764 l 653 628 l 279 143 l 674 143 l 674 0 l 49 0 m 363 1051 l 576 1051 l 431 844 l 275 844 "},"ž":{"ha":722,"x_min":0,"x_max":0,"o":"m 49 136 l 425 625 l 74 625 l 74 764 l 653 764 l 653 628 l 279 143 l 674 143 l 674 0 l 49 0 m 117 1051 l 256 1051 l 353 929 l 450 1051 l 589 1051 l 472 844 l 233 844 "},"ż":{"ha":722,"x_min":0,"x_max":0,"o":"m 49 136 l 425 625 l 74 625 l 74 764 l 653 764 l 653 628 l 279 143 l 674 143 l 674 0 l 49 0 m 250 1051 l 454 1051 l 454 868 l 250 868 "},"ª":{"ha":583,"x_min":0,"x_max":0,"o":"m 286 564 b 210 576 265 564 240 565 b 63 817 118 608 64 700 b 210 1057 64 933 118 1025 b 286 1069 236 1067 271 1069 b 429 994 361 1069 404 1040 l 435 994 l 435 1058 l 517 1058 l 517 575 l 438 575 l 438 647 l 435 647 b 286 564 411 597 365 564 m 299 635 b 425 747 364 635 413 675 b 431 817 431 774 431 793 b 425 886 431 839 431 860 b 299 999 413 957 364 999 b 157 817 201 999 157 914 b 299 635 157 717 203 635 "},"º":{"ha":594,"x_min":0,"x_max":0,"o":"m 297 567 b 63 817 151 567 63 671 l 63 818 b 297 1069 63 965 151 1069 b 532 818 443 1069 532 965 l 532 817 b 297 567 532 671 443 567 m 297 638 b 438 818 383 638 438 707 b 297 1000 438 929 383 1000 b 157 818 211 1000 157 929 b 297 638 157 707 211 638 "},"А":{"ha":1047,"x_min":0,"x_max":0,"o":"m 383 1051 l 661 1051 l 1022 0 l 815 0 l 725 267 l 333 267 l 249 0 l 25 0 m 675 417 l 524 865 l 381 417 "},"Б":{"ha":975,"x_min":0,"x_max":0,"o":"m 97 1051 l 857 1051 l 857 890 l 306 890 l 306 650 l 485 650 b 735 618 590 650 671 643 b 919 332 850 574 919 468 b 732 31 919 185 850 76 b 500 0 671 7 590 0 l 97 0 m 500 149 b 604 160 535 149 567 150 b 711 332 668 178 711 229 b 607 490 711 422 668 474 b 489 501 567 501 535 501 l 306 501 l 306 149 l 500 149 "},"В":{"ha":1000,"x_min":0,"x_max":0,"o":"m 97 1051 l 481 1051 b 740 1024 608 1051 678 1044 b 907 800 844 989 906 907 b 728 564 908 683 844 593 b 939 310 874 532 938 431 b 747 29 940 168 871 74 b 506 0 690 8 615 0 l 97 0 m 486 153 b 667 185 553 153 621 158 b 732 315 708 208 732 249 b 654 456 732 390 701 432 b 496 481 615 475 565 481 l 300 481 l 300 153 l 486 153 m 467 628 b 632 650 529 628 590 631 b 699 765 674 669 699 704 b 618 885 699 838 665 868 b 467 899 575 897 521 899 l 300 899 l 300 628 l 467 628 "},"Г":{"ha":803,"x_min":0,"x_max":0,"o":"m 97 1051 l 756 1051 l 756 890 l 306 890 l 306 0 l 97 0 "},"Ѓ":{"ha":803,"x_min":0,"x_max":0,"o":"m 97 1051 l 756 1051 l 756 890 l 306 890 l 306 0 l 97 0 m 415 1339 l 629 1339 l 483 1132 l 328 1132 "},"Ґ":{"ha":803,"x_min":0,"x_max":0,"o":"m 97 1051 l 568 1051 l 568 1288 l 756 1288 l 756 890 l 306 890 l 306 0 l 97 0 "},"Ғ":{"ha":879,"x_min":0,"x_max":0,"o":"m 174 486 l 53 486 l 53 643 l 174 643 l 174 1051 l 832 1051 l 832 890 l 382 890 l 382 643 l 590 643 l 590 486 l 382 486 l 382 0 l 174 0 "},"Д":{"ha":1181,"x_min":0,"x_max":0,"o":"m 53 165 l 139 165 b 258 849 233 346 258 606 l 258 1051 l 989 1051 l 989 165 l 1128 165 l 1128 -243 l 931 -243 l 931 0 l 250 0 l 250 -243 l 53 -243 m 781 157 l 781 894 l 460 894 l 460 849 b 346 157 460 628 433 333 "},"Е":{"ha":910,"x_min":0,"x_max":0,"o":"m 97 1051 l 808 1051 l 808 890 l 306 890 l 306 628 l 794 628 l 794 471 l 306 471 l 306 161 l 822 161 l 822 0 l 97 0 "},"Ѐ":{"ha":910,"x_min":0,"x_max":0,"o":"m 97 1051 l 808 1051 l 808 890 l 306 890 l 306 628 l 794 628 l 794 471 l 306 471 l 306 161 l 822 161 l 822 0 l 97 0 m 229 1339 l 443 1339 l 531 1132 l 375 1132 "},"Ё":{"ha":910,"x_min":0,"x_max":0,"o":"m 97 1051 l 808 1051 l 808 890 l 306 890 l 306 628 l 794 628 l 794 471 l 306 471 l 306 161 l 822 161 l 822 0 l 97 0 m 215 1339 l 404 1339 l 404 1156 l 215 1156 m 501 1339 l 690 1339 l 690 1156 l 501 1156 "},"Ж":{"ha":1500,"x_min":0,"x_max":0,"o":"m 439 604 l 67 1051 l 299 1051 l 650 599 l 650 1051 l 850 1051 l 850 599 l 1201 1051 l 1433 1051 l 1061 604 l 1472 0 l 1244 0 l 921 468 l 850 390 l 850 0 l 650 0 l 650 390 l 579 468 l 256 0 l 28 0 "},"З":{"ha":999,"x_min":0,"x_max":0,"o":"m 507 -18 b 53 321 236 -18 79 63 l 267 321 b 511 129 289 196 353 129 b 729 315 651 129 729 194 b 511 481 729 433 669 481 l 392 481 l 392 629 l 506 629 b 699 771 626 629 699 660 b 513 924 699 874 638 924 b 289 765 360 924 304 864 l 81 765 b 508 1069 103 985 258 1069 b 907 786 749 1069 907 990 b 721 568 907 672 839 596 b 940 314 863 543 940 435 b 507 -18 940 76 757 -18 "},"И":{"ha":1088,"x_min":0,"x_max":0,"o":"m 97 1051 l 300 1051 l 300 275 l 772 1051 l 990 1051 l 990 0 l 788 0 l 788 782 l 314 0 l 97 0 "},"Й":{"ha":1088,"x_min":0,"x_max":0,"o":"m 97 1051 l 300 1051 l 300 275 l 772 1051 l 990 1051 l 990 0 l 788 0 l 788 782 l 314 0 l 97 0 m 546 1090 b 256 1326 383 1090 268 1174 l 442 1326 b 544 1219 453 1257 486 1219 b 649 1326 604 1219 639 1257 l 835 1326 b 546 1090 822 1174 707 1090 "},"Ѝ":{"ha":1088,"x_min":0,"x_max":0,"o":"m 97 1051 l 300 1051 l 300 275 l 772 1051 l 990 1051 l 990 0 l 788 0 l 788 782 l 314 0 l 97 0 m 360 1339 l 574 1339 l 661 1132 l 506 1132 "},"К":{"ha":983,"x_min":0,"x_max":0,"o":"m 97 1051 l 306 1051 l 306 606 l 688 1051 l 928 1051 l 536 607 l 956 0 l 721 0 l 397 471 l 306 358 l 306 0 l 97 0 "},"Ќ":{"ha":983,"x_min":0,"x_max":0,"o":"m 97 1051 l 306 1051 l 306 606 l 688 1051 l 928 1051 l 536 607 l 956 0 l 721 0 l 397 471 l 306 358 l 306 0 l 97 0 m 485 1339 l 699 1339 l 553 1132 l 397 1132 "},"Л":{"ha":1067,"x_min":0,"x_max":0,"o":"m 49 0 b 242 807 203 275 242 517 l 242 1051 l 969 1051 l 969 0 l 761 0 l 761 894 l 446 894 l 446 779 b 411 390 446 703 438 533 b 275 0 381 219 332 92 l 49 0 "},"М":{"ha":1322,"x_min":0,"x_max":0,"o":"m 97 1051 l 369 1051 l 669 279 l 958 1051 l 1225 1051 l 1225 0 l 1018 0 l 1018 776 l 728 0 l 601 0 l 300 776 l 300 0 l 97 0 "},"Н":{"ha":1086,"x_min":0,"x_max":0,"o":"m 97 1051 l 306 1051 l 306 628 l 781 628 l 781 1051 l 989 1051 l 989 0 l 781 0 l 781 471 l 306 471 l 306 0 l 97 0 "},"О":{"ha":1142,"x_min":0,"x_max":0,"o":"m 571 -17 b 60 526 256 -17 61 193 b 571 1069 61 860 256 1069 b 1082 526 886 1069 1081 860 b 571 -17 1081 193 886 -17 m 571 150 b 874 526 761 150 874 299 b 571 903 874 754 761 903 b 268 526 381 903 268 754 b 571 150 268 299 381 150 "},"П":{"ha":1056,"x_min":0,"x_max":0,"o":"m 97 1051 l 958 1051 l 958 0 l 750 0 l 750 894 l 306 894 l 306 0 l 97 0 "},"Р":{"ha":967,"x_min":0,"x_max":0,"o":"m 97 1051 l 486 1051 b 718 1021 576 1051 657 1044 b 908 718 836 975 908 865 b 721 417 908 568 836 461 b 471 385 657 392 576 385 l 306 385 l 306 0 l 97 0 m 478 538 b 596 549 524 538 556 538 b 700 715 657 567 700 618 b 593 886 700 817 657 868 b 489 899 556 897 524 899 l 306 899 l 306 538 l 478 538 "},"С":{"ha":1092,"x_min":0,"x_max":0,"o":"m 571 -18 b 60 521 258 -18 60 192 b 571 1069 60 857 258 1069 b 1032 722 817 1069 990 942 l 824 722 b 571 906 792 840 701 906 b 268 521 381 906 268 763 b 568 146 268 289 383 146 b 833 358 710 146 806 222 l 1040 358 b 571 -18 1008 121 831 -18 "},"Т":{"ha":921,"x_min":0,"x_max":0,"o":"m 357 890 l 47 890 l 47 1051 l 874 1051 l 874 890 l 565 890 l 565 0 l 357 0 "},"У":{"ha":967,"x_min":0,"x_max":0,"o":"m 403 286 l 21 1051 l 249 1051 l 501 488 l 736 1051 l 947 1051 l 488 0 l 272 0 "},"Ў":{"ha":967,"x_min":0,"x_max":0,"o":"m 403 286 l 21 1051 l 249 1051 l 501 488 l 736 1051 l 947 1051 l 488 0 l 272 0 m 485 1090 b 194 1326 322 1090 207 1174 l 381 1326 b 483 1219 392 1257 425 1219 b 588 1326 543 1219 578 1257 l 774 1326 b 485 1090 761 1174 646 1090 "},"Ф":{"ha":1436,"x_min":0,"x_max":0,"o":"m 617 113 l 556 113 b 354 131 457 113 399 119 b 60 533 174 174 60 329 b 354 935 60 735 172 886 b 556 954 399 946 457 954 l 617 954 l 617 1069 l 819 1069 l 819 954 l 881 954 b 1082 935 979 954 1038 946 b 1376 533 1264 886 1376 735 b 1082 131 1376 329 1263 174 b 881 113 1038 119 979 113 l 819 113 l 819 -18 l 617 -18 m 618 260 l 618 807 l 567 807 b 429 792 515 807 465 801 b 264 533 319 763 264 669 b 429 275 264 397 319 304 b 567 260 465 265 515 260 m 869 260 b 1007 275 921 260 971 265 b 1172 533 1117 304 1172 397 b 1007 792 1172 669 1117 763 b 869 807 971 801 921 807 l 818 807 l 818 260 l 869 260 "},"Х":{"ha":979,"x_min":0,"x_max":0,"o":"m 381 568 l 54 1051 l 286 1051 l 494 718 l 700 1051 l 928 1051 l 603 560 l 951 0 l 719 0 l 489 401 l 256 0 l 28 0 "},"Ч":{"ha":1029,"x_min":0,"x_max":0,"o":"m 724 382 l 503 382 b 296 400 421 382 351 385 b 106 583 190 429 133 504 b 85 735 90 626 85 676 l 85 1051 l 293 1051 l 293 769 b 308 647 293 719 294 681 b 518 539 342 568 419 539 l 724 539 l 724 1051 l 932 1051 l 932 0 l 724 0 "},"Ц":{"ha":1135,"x_min":0,"x_max":0,"o":"m 885 0 l 97 0 l 97 1051 l 306 1051 l 306 157 l 735 157 l 735 1051 l 943 1051 l 943 165 l 1082 165 l 1082 -243 l 885 -243 "},"Ш":{"ha":1542,"x_min":0,"x_max":0,"o":"m 97 1051 l 306 1051 l 306 157 l 667 157 l 667 1051 l 875 1051 l 875 157 l 1236 157 l 1236 1051 l 1444 1051 l 1444 0 l 97 0 "},"Щ":{"ha":1567,"x_min":0,"x_max":0,"o":"m 1317 0 l 97 0 l 97 1051 l 306 1051 l 306 157 l 632 157 l 632 1051 l 840 1051 l 840 157 l 1167 157 l 1167 1051 l 1375 1051 l 1375 165 l 1514 165 l 1514 -243 l 1317 -243 "},"Џ":{"ha":1056,"x_min":0,"x_max":0,"o":"m 429 0 l 97 0 l 97 1051 l 306 1051 l 306 157 l 750 157 l 750 1051 l 958 1051 l 958 0 l 626 0 l 626 -243 l 429 -243 "},"Ь":{"ha":975,"x_min":0,"x_max":0,"o":"m 97 1051 l 306 1051 l 306 650 l 485 650 b 735 618 590 650 671 643 b 919 325 850 574 919 468 b 732 31 919 185 850 76 b 500 0 671 7 590 0 l 97 0 m 500 149 b 604 160 535 149 567 150 b 711 325 668 178 711 229 b 607 490 711 422 668 474 b 489 501 567 501 535 501 l 306 501 l 306 149 l 500 149 "},"Ы":{"ha":1283,"x_min":0,"x_max":0,"o":"m 97 1051 l 306 1051 l 306 650 l 471 650 b 721 618 576 650 657 643 b 906 325 836 574 906 468 b 718 31 906 185 836 76 b 486 0 657 7 576 0 l 97 0 m 486 149 b 590 160 521 149 553 150 b 697 325 654 178 697 229 b 593 490 697 422 654 474 b 475 501 553 501 521 501 l 306 501 l 306 149 l 486 149 m 978 1051 l 1186 1051 l 1186 0 l 978 0 "},"Ъ":{"ha":1207,"x_min":0,"x_max":0,"o":"m 329 890 l 47 890 l 47 1051 l 538 1051 l 538 650 l 717 650 b 967 618 822 650 903 643 b 1151 325 1082 574 1151 468 b 964 31 1151 185 1082 76 b 732 0 903 7 822 0 l 329 0 m 732 149 b 836 160 767 149 799 150 b 943 325 900 178 943 229 b 839 490 943 422 900 474 b 721 501 799 501 767 501 l 538 501 l 538 149 l 732 149 "},"Є":{"ha":1092,"x_min":0,"x_max":0,"o":"m 571 -18 b 60 521 258 -18 60 192 b 571 1069 60 857 258 1069 b 1032 722 817 1069 990 942 l 824 722 b 571 906 792 840 701 906 b 279 642 415 906 311 810 l 718 642 l 718 485 l 269 485 b 568 146 281 274 393 146 b 833 358 710 146 806 222 l 1040 358 b 571 -18 1008 121 831 -18 "},"Э":{"ha":1092,"x_min":0,"x_max":0,"o":"m 521 -18 b 51 358 261 -18 83 121 l 258 358 b 524 146 286 222 382 146 b 822 485 699 146 811 274 l 374 485 l 374 642 l 813 642 b 521 906 781 810 676 906 b 268 722 390 906 300 840 l 60 722 b 521 1069 101 942 275 1069 b 1032 521 833 1069 1032 857 b 521 -18 1032 192 833 -18 "},"І":{"ha":403,"x_min":0,"x_max":0,"o":"m 97 1051 l 306 1051 l 306 0 l 97 0 "},"Ї":{"ha":403,"x_min":0,"x_max":0,"o":"m 97 1051 l 306 1051 l 306 0 l 97 0 m -36 1339 l 153 1339 l 153 1156 l -36 1156 m 250 1339 l 439 1339 l 439 1156 l 250 1156 "},"Ю":{"ha":1453,"x_min":0,"x_max":0,"o":"m 894 -18 b 397 476 628 -18 414 143 l 306 476 l 306 0 l 97 0 l 97 1051 l 306 1051 l 306 633 l 403 633 b 894 1069 444 928 646 1069 b 1393 521 1174 1069 1393 892 b 894 -18 1393 157 1174 -18 m 894 146 b 1185 521 1101 146 1185 310 b 894 906 1185 735 1106 906 b 604 521 683 906 604 735 b 894 146 604 313 688 146 "},"Я":{"ha":1043,"x_min":0,"x_max":0,"o":"m 335 418 b 278 433 314 422 296 428 b 94 722 164 472 94 586 b 282 1021 94 867 164 975 b 514 1051 343 1044 424 1051 l 946 1051 l 946 0 l 738 0 l 738 404 l 547 404 l 293 0 l 64 0 l 335 418 m 738 551 l 738 903 l 508 903 b 404 892 474 903 442 901 b 297 728 340 874 297 822 b 401 563 297 631 340 579 b 517 551 442 551 471 551 "},"Ӏ":{"ha":403,"x_min":0,"x_max":0,"o":"m 97 1051 l 306 1051 l 306 0 l 97 0 "},"Ә":{"ha":1121,"x_min":0,"x_max":0,"o":"m 550 -18 b 60 572 219 -18 60 218 l 60 593 l 846 593 b 550 906 818 801 713 906 b 289 699 433 906 319 849 l 81 699 b 550 1069 121 936 306 1069 b 1061 521 864 1069 1061 857 b 550 -18 1061 190 864 -18 m 557 146 b 850 440 728 146 831 264 l 264 440 b 557 146 283 264 386 146 "},"Ӣ":{"ha":1088,"x_min":0,"x_max":0,"o":"m 97 1051 l 300 1051 l 300 275 l 772 1051 l 990 1051 l 990 0 l 788 0 l 788 782 l 314 0 l 97 0 m 340 1269 l 749 1269 l 749 1142 l 340 1142 "},"Ө":{"ha":1142,"x_min":0,"x_max":0,"o":"m 571 -17 b 60 526 256 -17 61 193 b 571 1069 61 860 256 1069 b 1082 526 886 1069 1081 860 b 571 -17 1081 193 886 -17 m 571 150 b 871 461 742 150 850 271 l 271 461 b 571 150 292 271 400 150 m 867 618 b 571 903 840 793 735 903 b 275 618 407 903 301 793 l 867 618 "},"Ӯ":{"ha":967,"x_min":0,"x_max":0,"o":"m 403 286 l 21 1051 l 249 1051 l 501 488 l 736 1051 l 947 1051 l 488 0 l 272 0 m 279 1269 l 688 1269 l 688 1142 l 279 1142 "},"а":{"ha":833,"x_min":0,"x_max":0,"o":"m 328 -17 b 56 235 164 -17 56 83 b 174 425 56 335 101 390 b 558 499 260 467 449 483 l 558 542 b 433 647 558 611 510 647 b 289 551 346 647 306 619 l 94 551 b 432 782 108 708 217 782 b 753 531 639 782 753 693 l 753 0 l 569 0 l 569 99 b 328 -17 519 25 428 -17 m 374 125 b 557 301 485 125 557 194 l 557 376 b 397 338 517 365 454 353 b 254 225 321 318 254 292 b 374 125 254 161 299 125 "},"б":{"ha":883,"x_min":0,"x_max":0,"o":"m 463 -18 b 67 386 224 -18 67 142 l 67 519 b 357 992 67 776 135 928 b 550 1026 411 1007 494 1019 b 786 1054 629 1038 707 1049 l 786 904 l 578 876 b 253 657 410 854 271 853 b 497 761 300 726 385 761 b 835 374 660 761 835 646 l 835 371 b 463 -18 835 135 689 -18 m 451 135 b 644 375 578 135 644 238 b 451 606 644 511 578 606 b 260 375 325 606 260 511 b 451 135 260 238 325 135 "},"в":{"ha":840,"x_min":0,"x_max":0,"o":"m 88 764 l 500 764 b 618 753 544 764 582 761 b 763 574 713 731 763 672 b 651 414 763 504 724 446 b 788 233 740 382 788 319 b 410 0 788 32 617 0 l 88 0 m 421 131 b 583 242 540 131 583 165 b 453 353 583 317 549 353 l 278 353 l 278 131 l 421 131 m 442 472 b 564 553 533 472 564 500 b 472 633 564 606 536 633 l 278 633 l 278 472 l 442 472 "},"г":{"ha":651,"x_min":0,"x_max":0,"o":"m 88 764 l 611 764 l 611 626 l 281 626 l 281 0 l 88 0 "},"ѓ":{"ha":651,"x_min":0,"x_max":0,"o":"m 88 764 l 611 764 l 611 626 l 281 626 l 281 0 l 88 0 m 374 1051 l 588 1051 l 442 844 l 286 844 "},"ґ":{"ha":651,"x_min":0,"x_max":0,"o":"m 88 764 l 444 764 l 444 971 l 611 971 l 611 626 l 281 626 l 281 0 l 88 0 "},"ғ":{"ha":693,"x_min":0,"x_max":0,"o":"m 129 343 l 42 343 l 42 460 l 129 460 l 129 764 l 653 764 l 653 626 l 322 626 l 322 460 l 522 460 l 522 343 l 322 343 l 322 0 l 129 0 "},"д":{"ha":928,"x_min":0,"x_max":0,"o":"m 42 143 l 108 143 b 190 621 171 268 190 450 l 190 764 l 786 764 l 786 143 l 886 143 l 886 -210 l 706 -210 l 706 0 l 222 0 l 222 -210 l 42 -210 m 597 135 l 597 626 l 369 626 l 369 596 b 290 135 369 447 349 251 "},"е":{"ha":865,"x_min":0,"x_max":0,"o":"m 432 -18 b 49 382 183 -18 49 158 b 436 782 49 615 199 782 b 817 385 708 782 817 579 l 817 340 l 247 340 b 436 135 247 218 322 135 b 611 249 521 135 583 172 l 804 249 b 568 -1 783 114 681 29 b 432 -18 519 -15 479 -18 m 614 472 b 439 636 604 557 557 638 l 435 636 b 254 472 325 635 269 572 l 614 472 "},"ѐ":{"ha":865,"x_min":0,"x_max":0,"o":"m 432 -18 b 49 382 183 -18 49 158 b 436 782 49 615 199 782 b 817 385 708 782 817 579 l 817 340 l 247 340 b 436 135 247 218 322 135 b 611 249 521 135 583 172 l 804 249 b 568 -1 783 114 681 29 b 432 -18 519 -15 479 -18 m 614 472 b 439 636 604 557 557 638 l 435 636 b 254 472 325 635 269 572 l 614 472 m 213 1051 l 426 1051 l 514 844 l 358 844 "},"ё":{"ha":865,"x_min":0,"x_max":0,"o":"m 432 -18 b 49 382 183 -18 49 158 b 436 782 49 615 199 782 b 817 385 708 782 817 579 l 817 340 l 247 340 b 436 135 247 218 322 135 b 611 249 521 135 583 172 l 804 249 b 568 -1 783 114 681 29 b 432 -18 519 -15 479 -18 m 614 472 b 439 636 604 557 557 638 l 435 636 b 254 472 325 635 269 572 l 614 472 m 199 1051 l 388 1051 l 388 868 l 199 868 m 485 1051 l 674 1051 l 674 868 l 485 868 "},"ж":{"ha":1219,"x_min":0,"x_max":0,"o":"m 340 447 l 54 764 l 265 764 l 517 461 l 517 764 l 703 764 l 703 461 l 954 764 l 1165 764 l 879 447 l 1199 0 l 981 0 l 760 329 l 703 268 l 703 0 l 517 0 l 517 268 l 460 329 l 239 0 l 21 0 "},"з":{"ha":829,"x_min":0,"x_max":0,"o":"m 414 -18 b 43 257 169 -18 49 101 l 233 257 b 418 115 243 174 288 115 b 582 238 533 115 582 169 b 419 339 582 315 535 339 l 314 339 l 314 460 l 414 460 b 556 553 524 460 556 493 b 475 644 556 599 529 633 b 411 650 454 649 435 650 b 246 536 299 650 261 606 l 56 536 b 418 782 69 700 182 782 b 747 568 617 782 747 718 b 626 410 747 506 713 444 b 776 231 725 382 776 313 b 414 -18 776 68 640 -18 "},"и":{"ha":868,"x_min":0,"x_max":0,"o":"m 88 764 l 275 764 l 275 218 l 549 764 l 781 764 l 781 0 l 593 0 l 593 546 l 319 0 l 88 0 "},"й":{"ha":868,"x_min":0,"x_max":0,"o":"m 88 764 l 275 764 l 275 218 l 549 764 l 781 764 l 781 0 l 593 0 l 593 546 l 319 0 l 88 0 m 432 803 b 142 1039 269 803 154 886 l 328 1039 b 431 932 339 969 372 932 b 535 1039 490 932 525 969 l 721 1039 b 432 803 708 886 593 803 "},"ѝ":{"ha":868,"x_min":0,"x_max":0,"o":"m 88 764 l 275 764 l 275 218 l 549 764 l 781 764 l 781 0 l 593 0 l 593 546 l 319 0 l 88 0 m 207 1051 l 421 1051 l 508 844 l 353 844 "},"к":{"ha":811,"x_min":0,"x_max":0,"o":"m 88 764 l 283 764 l 283 443 l 553 764 l 768 764 l 481 442 l 790 0 l 568 0 l 351 322 l 283 251 l 283 0 l 88 0 "},"ќ":{"ha":811,"x_min":0,"x_max":0,"o":"m 88 764 l 283 764 l 283 443 l 553 764 l 768 764 l 481 442 l 790 0 l 568 0 l 351 322 l 283 251 l 283 0 l 88 0 m 401 1051 l 615 1051 l 469 844 l 314 844 "},"л":{"ha":854,"x_min":0,"x_max":0,"o":"m 25 0 b 176 582 125 149 176 274 l 176 764 l 767 764 l 767 0 l 575 0 l 575 626 l 365 626 l 365 526 b 244 0 365 238 306 86 l 25 0 "},"м":{"ha":1069,"x_min":0,"x_max":0,"o":"m 88 764 l 336 764 l 536 204 l 735 764 l 982 764 l 982 0 l 792 0 l 792 515 l 608 0 l 457 0 l 274 515 l 274 0 l 88 0 "},"н":{"ha":843,"x_min":0,"x_max":0,"o":"m 88 764 l 283 764 l 283 478 l 560 478 l 560 764 l 756 764 l 756 0 l 560 0 l 560 340 l 283 340 l 283 0 l 88 0 "},"о":{"ha":867,"x_min":0,"x_max":0,"o":"m 433 -18 b 49 382 192 -18 49 153 b 433 782 49 611 192 782 b 818 382 675 782 818 611 b 433 -18 818 153 661 -18 m 433 135 b 626 382 560 135 626 240 b 433 629 626 522 560 629 b 240 382 307 629 240 522 b 433 135 240 240 307 135 "},"п":{"ha":836,"x_min":0,"x_max":0,"o":"m 88 764 l 749 764 l 749 0 l 553 0 l 553 626 l 283 626 l 283 0 l 88 0 "},"р":{"ha":886,"x_min":0,"x_max":0,"o":"m 88 764 l 268 764 l 268 642 b 497 782 303 729 379 782 b 614 761 529 782 565 779 b 838 382 753 711 836 567 b 614 3 836 197 753 53 b 497 -18 574 -12 522 -18 b 274 108 386 -18 310 29 l 274 -243 l 88 -243 m 454 136 b 646 383 583 136 646 249 b 454 629 646 519 582 629 b 275 383 308 629 275 510 b 454 136 275 257 308 136 "},"с":{"ha":824,"x_min":0,"x_max":0,"o":"m 426 -18 b 49 382 199 -18 49 142 b 426 782 49 622 199 782 b 771 515 610 782 757 668 l 579 515 b 429 638 557 596 506 638 b 246 382 317 638 246 543 b 429 126 246 221 317 126 b 588 269 511 126 565 174 l 781 269 b 426 -18 772 106 619 -18 "},"т":{"ha":728,"x_min":0,"x_max":0,"o":"m 267 626 l 40 626 l 40 764 l 688 764 l 688 626 l 461 626 l 461 0 l 267 0 "},"у":{"ha":793,"x_min":0,"x_max":0,"o":"m 321 13 l 18 764 l 224 764 l 418 257 l 581 764 l 775 764 l 425 -243 l 232 -243 "},"ў":{"ha":793,"x_min":0,"x_max":0,"o":"m 321 13 l 18 764 l 224 764 l 418 257 l 581 764 l 775 764 l 425 -243 l 232 -243 m 406 803 b 115 1039 243 803 128 886 l 301 1039 b 404 932 313 969 346 932 b 508 1039 464 932 499 969 l 694 1039 b 406 803 682 886 567 803 "},"ф":{"ha":1165,"x_min":0,"x_max":0,"o":"m 485 -18 b 49 382 215 -18 49 139 b 485 782 49 625 215 782 l 485 990 l 681 990 l 681 782 b 1117 382 950 782 1117 625 b 681 -18 1117 139 950 -18 l 681 -243 l 485 -243 l 485 -18 m 488 131 l 488 633 l 485 633 b 242 382 315 633 242 526 b 485 131 242 236 315 131 m 681 131 b 924 382 850 131 924 236 b 681 633 924 526 850 633 l 678 633 l 678 131 l 681 131 "},"х":{"ha":858,"x_min":0,"x_max":0,"o":"m 311 404 l 51 764 l 271 764 l 435 533 l 599 764 l 808 764 l 549 400 l 832 0 l 615 0 l 425 271 l 238 0 l 26 0 "},"ч":{"ha":821,"x_min":0,"x_max":0,"o":"m 538 267 l 379 267 b 61 538 164 267 61 354 l 61 764 l 257 764 l 257 561 b 410 414 257 461 306 414 l 538 414 l 538 764 l 733 764 l 733 0 l 538 0 "},"ц":{"ha":885,"x_min":0,"x_max":0,"o":"m 663 0 l 88 0 l 88 764 l 283 764 l 283 138 l 547 138 l 547 764 l 743 764 l 743 143 l 843 143 l 843 -210 l 663 -210 "},"ш":{"ha":1201,"x_min":0,"x_max":0,"o":"m 88 764 l 283 764 l 283 138 l 503 138 l 503 764 l 699 764 l 699 138 l 918 138 l 918 764 l 1114 764 l 1114 0 l 88 0 "},"щ":{"ha":1228,"x_min":0,"x_max":0,"o":"m 1006 0 l 88 0 l 88 764 l 283 764 l 283 138 l 489 138 l 489 764 l 685 764 l 685 138 l 890 138 l 890 764 l 1086 764 l 1086 143 l 1186 143 l 1186 -210 l 1006 -210 "},"џ":{"ha":836,"x_min":0,"x_max":0,"o":"m 335 0 l 88 0 l 88 764 l 283 764 l 283 138 l 553 138 l 553 764 l 749 764 l 749 0 l 501 0 l 501 -210 l 335 -210 "},"ь":{"ha":826,"x_min":0,"x_max":0,"o":"m 88 764 l 281 764 l 281 513 l 478 513 b 633 492 546 513 593 507 b 782 265 729 456 782 375 b 450 0 782 90 669 0 l 88 0 m 436 131 b 579 260 532 131 579 161 b 450 382 579 351 535 382 l 281 382 l 281 131 l 436 131 "},"ы":{"ha":1097,"x_min":0,"x_max":0,"o":"m 88 764 l 281 764 l 281 513 l 453 513 b 608 492 521 513 568 507 b 757 265 704 456 757 375 b 425 0 757 90 644 0 l 88 0 m 411 131 b 554 260 507 131 554 161 b 425 382 554 351 510 382 l 281 382 l 281 131 l 411 131 m 817 764 l 1010 764 l 1010 0 l 817 0 "},"ъ":{"ha":950,"x_min":0,"x_max":0,"o":"m 236 626 l 43 626 l 43 764 l 426 764 l 426 513 l 601 513 b 757 492 669 513 717 507 b 906 265 853 456 906 375 b 574 0 906 90 793 0 l 236 0 m 560 131 b 703 260 656 131 703 161 b 574 382 703 351 658 382 l 426 382 l 426 131 l 560 131 "},"ѕ":{"ha":796,"x_min":0,"x_max":0,"o":"m 403 -18 b 42 233 172 -18 46 78 l 225 233 b 403 115 233 156 300 115 b 563 221 507 115 563 154 b 435 303 563 276 525 293 l 331 314 b 51 536 133 336 51 403 b 390 782 51 683 179 782 b 731 556 592 782 717 697 l 544 556 b 390 649 533 618 482 649 b 242 557 297 649 242 614 b 364 481 242 504 279 489 l 468 471 b 754 240 676 450 754 379 b 403 -18 754 83 625 -18 "},"є":{"ha":842,"x_min":0,"x_max":0,"o":"m 433 -18 b 49 382 199 -18 49 142 b 433 782 49 622 199 782 b 789 515 628 782 775 668 l 597 515 b 436 638 575 596 519 638 b 253 467 336 638 274 575 l 524 467 l 524 335 l 247 335 b 433 126 260 203 325 126 b 606 269 525 126 583 174 l 799 269 b 433 -18 790 106 638 -18 "},"э":{"ha":842,"x_min":0,"x_max":0,"o":"m 408 -18 b 43 269 204 -18 51 106 l 236 269 b 408 126 258 174 317 126 b 594 335 517 126 582 203 l 318 335 l 318 467 l 589 467 b 406 638 568 575 506 638 b 244 515 322 638 267 596 l 53 515 b 408 782 67 668 214 782 b 793 382 643 782 793 622 b 408 -18 793 142 643 -18 "},"і":{"ha":371,"x_min":0,"x_max":0,"o":"m 88 764 l 283 764 l 283 0 l 88 0 m 83 1051 l 288 1051 l 288 868 l 83 868 "},"ї":{"ha":371,"x_min":0,"x_max":0,"o":"m 88 764 l 283 764 l 283 0 l 88 0 m -51 1051 l 138 1051 l 138 868 l -51 868 m 235 1051 l 424 1051 l 424 868 l 235 868 "},"ю":{"ha":1149,"x_min":0,"x_max":0,"o":"m 729 -18 b 357 342 504 -18 371 128 l 283 342 l 283 0 l 88 0 l 88 764 l 283 764 l 283 476 l 364 476 b 729 782 396 661 524 782 b 1100 382 965 782 1100 618 b 729 -18 1100 146 951 -18 m 729 135 b 907 383 847 135 907 228 b 729 629 907 538 847 629 b 549 383 608 629 549 538 b 729 135 549 228 608 135 "},"я":{"ha":851,"x_min":0,"x_max":0,"o":"m 215 294 b 67 508 124 335 67 410 b 244 744 67 621 128 707 b 404 764 288 757 338 764 l 764 764 l 764 0 l 568 0 l 568 263 l 407 263 l 254 0 l 39 0 l 215 294 m 568 392 l 568 633 l 421 633 b 329 621 376 633 353 631 b 267 510 290 606 267 576 b 326 406 267 450 290 421 b 424 392 353 394 382 392 "},"ӏ":{"ha":369,"x_min":0,"x_max":0,"o":"m 88 1051 l 282 1051 l 282 0 l 88 0 "},"ә":{"ha":865,"x_min":0,"x_max":0,"o":"m 429 -18 b 49 379 157 -18 49 185 l 49 424 l 618 424 b 429 629 618 546 543 629 b 254 515 344 629 282 592 l 61 515 b 297 765 82 650 185 735 b 433 782 346 779 386 782 b 817 382 682 782 817 606 b 429 -18 817 149 667 -18 m 431 128 b 611 292 540 129 596 192 l 251 292 b 426 128 261 207 308 126 l 431 128 "},"ӣ":{"ha":868,"x_min":0,"x_max":0,"o":"m 88 764 l 275 764 l 275 218 l 549 764 l 781 764 l 781 0 l 593 0 l 593 546 l 319 0 l 88 0 m 226 982 l 635 982 l 635 854 l 226 854 "},"ө":{"ha":867,"x_min":0,"x_max":0,"o":"m 433 -18 b 49 382 192 -18 49 153 b 433 782 49 611 192 782 b 818 382 675 782 818 611 b 433 -18 818 153 661 -18 m 433 135 b 625 343 547 135 614 221 l 242 343 b 433 135 253 221 319 135 m 619 460 b 433 629 599 560 535 629 b 247 460 332 629 268 560 l 619 460 "},"ӯ":{"ha":793,"x_min":0,"x_max":0,"o":"m 321 13 l 18 764 l 224 764 l 418 257 l 581 764 l 775 764 l 425 -243 l 232 -243 m 200 982 l 608 982 l 608 854 l 200 854 "},"Ω":{"ha":1150,"x_min":0,"x_max":0,"o":"m 69 158 l 206 158 l 206 164 b 64 535 108 239 64 378 b 575 1069 64 857 261 1069 b 1086 535 889 1069 1086 857 b 944 164 1086 378 1042 239 l 944 158 l 1081 158 l 1081 0 l 639 0 l 639 153 b 878 521 789 182 878 317 b 575 906 878 763 765 906 b 272 521 385 906 272 763 b 511 153 272 317 361 182 l 511 0 l 69 0 "},"μ":{"ha":856,"x_min":0,"x_max":0,"o":"m 88 764 l 283 764 l 283 272 b 299 188 283 239 286 214 b 392 133 317 150 353 133 b 515 196 442 133 481 157 b 554 254 531 214 543 232 b 572 374 569 285 572 307 l 572 764 l 768 764 l 768 0 l 583 0 l 583 118 b 346 -18 550 40 474 -18 b 283 -12 324 -18 303 -17 l 283 -243 l 88 -243 "},"π":{"ha":890,"x_min":0,"x_max":0,"o":"m 700 -7 b 550 150 607 -7 550 54 l 550 626 l 340 626 l 340 0 l 146 0 l 146 626 l 43 626 l 43 764 l 847 764 l 847 626 l 744 626 l 744 188 b 778 154 744 165 758 154 l 847 154 l 847 -7 l 700 -7 "},"➀":{"ha":1276,"x_min":0,"x_max":0,"o":"m 639 -53 b 60 526 318 -53 60 206 b 639 1104 60 846 318 1104 b 1217 526 958 1104 1217 846 b 639 -53 1217 206 958 -53 m 639 108 b 1050 526 868 108 1050 296 b 639 943 1050 756 868 943 b 226 526 408 943 226 756 b 639 108 226 296 408 108 m 599 661 l 469 581 l 469 706 l 604 789 l 726 789 l 726 263 l 599 263 "},"➁":{"ha":1276,"x_min":0,"x_max":0,"o":"m 639 -53 b 60 526 318 -53 60 206 b 639 1104 60 846 318 1104 b 1217 526 958 1104 1217 846 b 639 -53 1217 206 958 -53 m 639 108 b 1050 526 868 108 1050 296 b 639 943 1050 756 868 943 b 226 526 408 943 226 756 b 639 108 226 296 408 108 m 425 263 b 558 510 425 383 463 457 l 608 538 b 700 640 675 575 700 603 b 635 706 700 682 674 706 b 549 599 582 706 553 672 l 421 599 b 640 803 422 714 500 803 b 835 640 757 803 835 738 b 710 474 835 568 808 522 l 657 447 b 575 365 610 424 589 400 l 840 365 l 840 263 l 425 263 "},"➂":{"ha":1276,"x_min":0,"x_max":0,"o":"m 639 -53 b 60 526 318 -53 60 206 b 639 1104 60 846 318 1104 b 1217 526 958 1104 1217 846 b 639 -53 1217 206 958 -53 m 639 108 b 1050 526 868 108 1050 296 b 639 943 1050 756 868 943 b 226 526 408 943 226 756 b 639 108 226 296 408 108 m 633 249 b 408 429 499 249 417 311 l 549 429 b 633 343 556 368 582 343 b 717 425 686 343 717 372 b 621 507 717 482 682 507 l 571 507 l 571 593 l 618 593 b 699 654 675 593 699 617 b 628 711 699 686 674 711 b 546 636 575 711 551 686 l 413 636 b 638 803 417 736 489 803 b 833 667 760 803 833 749 b 738 553 833 615 800 569 b 851 414 817 533 851 475 b 633 249 851 308 761 249 "},"➃":{"ha":1276,"x_min":0,"x_max":0,"o":"m 639 -53 b 60 526 318 -53 60 206 b 639 1104 60 846 318 1104 b 1217 526 958 1104 1217 846 b 639 -53 1217 206 958 -53 m 639 108 b 1050 526 868 108 1050 296 b 639 943 1050 756 868 943 b 226 526 408 943 226 756 b 639 108 226 296 408 108 m 654 379 l 386 379 l 386 501 l 618 789 l 776 789 l 776 471 l 857 471 l 857 379 l 776 379 l 776 263 l 654 263 m 654 471 l 654 668 l 492 471 "},"➄":{"ha":1276,"x_min":0,"x_max":0,"o":"m 639 -53 b 60 526 318 -53 60 206 b 639 1104 60 846 318 1104 b 1217 526 958 1104 1217 846 b 639 -53 1217 206 958 -53 m 639 108 b 1050 526 868 108 1050 296 b 639 943 1050 756 868 943 b 226 526 408 943 226 756 b 639 108 226 296 408 108 m 629 249 b 428 415 508 249 433 315 l 553 415 b 631 349 560 372 588 349 b 717 451 689 349 717 400 b 636 544 717 517 685 544 b 553 493 593 544 564 524 l 435 493 l 475 789 l 807 789 l 807 699 l 579 699 l 561 607 b 661 632 585 625 617 632 b 842 456 772 632 842 544 b 629 249 842 333 758 249 "},"➅":{"ha":1276,"x_min":0,"x_max":0,"o":"m 639 -53 b 60 526 318 -53 60 206 b 639 1104 60 846 318 1104 b 1217 526 958 1104 1217 846 b 639 -53 1217 206 958 -53 m 639 108 b 1050 526 868 108 1050 296 b 639 943 1050 756 868 943 b 226 526 408 943 226 756 b 639 108 226 296 408 108 m 639 249 b 419 517 499 249 419 350 b 653 803 419 703 492 803 b 838 650 765 803 832 740 l 717 650 b 647 714 707 694 682 714 b 547 588 592 714 557 675 b 654 625 571 611 613 625 b 840 442 760 625 840 547 b 639 249 840 328 757 249 m 635 340 b 714 436 683 340 714 378 b 635 536 714 499 683 536 b 556 436 586 536 556 499 b 635 340 556 378 586 340 "},"➆":{"ha":1276,"x_min":0,"x_max":0,"o":"m 639 -53 b 60 526 318 -53 60 206 b 639 1104 60 846 318 1104 b 1217 526 958 1104 1217 846 b 639 -53 1217 206 958 -53 m 639 108 b 1050 526 868 108 1050 296 b 639 943 1050 756 868 943 b 226 526 408 943 226 756 b 639 108 226 296 408 108 m 696 690 l 436 690 l 436 789 l 825 789 l 825 690 l 647 263 l 518 263 "},"➇":{"ha":1276,"x_min":0,"x_max":0,"o":"m 639 -53 b 60 526 318 -53 60 206 b 639 1104 60 846 318 1104 b 1217 526 958 1104 1217 846 b 639 -53 1217 206 958 -53 m 639 108 b 1050 526 868 108 1050 296 b 639 943 1050 756 868 943 b 226 526 408 943 226 756 b 639 108 226 296 408 108 m 631 249 b 550 257 601 249 575 250 b 413 407 468 278 413 332 b 518 544 413 464 442 518 b 432 660 464 568 432 610 b 565 797 432 732 489 781 b 631 803 585 801 607 803 b 697 797 654 803 676 801 b 829 660 774 781 829 732 b 743 544 829 610 797 568 b 849 407 819 518 849 464 b 711 257 849 332 793 278 b 631 249 686 250 660 249 m 631 344 b 714 428 674 344 714 368 b 631 508 714 481 675 508 b 547 428 586 508 547 481 b 631 344 547 368 588 344 m 631 579 b 699 644 668 579 699 601 b 631 713 699 692 667 713 b 563 644 594 713 563 692 b 631 579 563 601 593 579 "},"➈":{"ha":1276,"x_min":0,"x_max":0,"o":"m 639 -53 b 60 526 318 -53 60 206 b 639 1104 60 846 318 1104 b 1217 526 958 1104 1217 846 b 639 -53 1217 206 958 -53 m 639 108 b 1050 526 868 108 1050 296 b 639 943 1050 756 868 943 b 226 526 408 943 226 756 b 639 108 226 296 408 108 m 615 249 b 431 406 503 249 436 311 l 551 406 b 621 338 558 358 586 338 b 721 475 676 338 717 379 b 614 438 697 446 656 438 b 428 613 508 438 428 515 b 629 803 428 724 511 803 b 849 538 769 803 849 701 b 615 249 849 351 776 249 m 633 526 b 713 621 682 526 713 564 b 633 711 713 674 682 711 b 554 621 585 711 554 674 b 633 526 554 564 585 526 "},"➊":{"ha":1276,"x_min":0,"x_max":0,"o":"m 639 -53 b 60 526 318 -53 60 206 b 639 1104 60 846 318 1104 b 1217 526 958 1104 1217 846 b 639 -53 1217 206 958 -53 m 736 263 l 736 789 l 614 789 l 479 706 l 479 581 l 608 661 l 608 263 "},"➋":{"ha":1276,"x_min":0,"x_max":0,"o":"m 639 -53 b 60 526 318 -53 60 206 b 639 1104 60 846 318 1104 b 1217 526 958 1104 1217 846 b 639 -53 1217 206 958 -53 m 851 263 l 851 365 l 586 365 b 668 447 600 400 621 424 l 721 474 b 846 640 819 522 846 568 b 651 803 846 738 768 803 b 432 599 511 803 433 714 l 560 599 b 646 706 564 672 593 706 b 711 640 685 706 711 682 b 619 538 711 603 686 575 l 569 510 b 436 263 474 457 436 383 "},"➌":{"ha":1276,"x_min":0,"x_max":0,"o":"m 639 -53 b 60 526 318 -53 60 206 b 639 1104 60 846 318 1104 b 1217 526 958 1104 1217 846 b 639 -53 1217 206 958 -53 m 642 249 b 860 414 769 249 860 308 b 746 553 860 475 825 533 b 842 667 808 569 842 615 b 646 803 842 749 768 803 b 421 636 497 803 425 736 l 554 636 b 636 711 560 686 583 711 b 707 654 682 711 707 686 b 626 593 707 617 683 593 l 579 593 l 579 507 l 629 507 b 725 425 690 507 725 482 b 642 343 725 372 694 343 b 557 429 590 343 564 368 l 417 429 b 642 249 425 311 507 249 "},"➍":{"ha":1276,"x_min":0,"x_max":0,"o":"m 639 -53 b 60 526 318 -53 60 206 b 639 1104 60 846 318 1104 b 1217 526 958 1104 1217 846 b 639 -53 1217 206 958 -53 m 793 263 l 793 379 l 874 379 l 874 471 l 793 471 l 793 789 l 635 789 l 403 501 l 403 379 l 671 379 l 671 263 m 671 668 l 671 471 l 508 471 m 671 719 l 703 707 l 671 668 "},"➎":{"ha":1276,"x_min":0,"x_max":0,"o":"m 639 -53 b 60 526 318 -53 60 206 b 639 1104 60 846 318 1104 b 1217 526 958 1104 1217 846 b 639 -53 1217 206 958 -53 m 643 249 b 856 456 772 249 856 333 b 675 632 856 544 786 632 b 575 607 631 632 599 625 l 593 699 l 821 699 l 821 789 l 489 789 l 449 493 l 567 493 b 650 544 578 524 607 544 b 731 451 699 544 731 517 b 644 349 731 400 703 349 b 567 415 601 349 574 372 l 442 415 b 643 249 447 315 522 249 m 549 572 b 575 607 556 586 565 597 l 565 553 l 549 572 "},"➏":{"ha":1276,"x_min":0,"x_max":0,"o":"m 639 -53 b 60 526 318 -53 60 206 b 639 1104 60 846 318 1104 b 1217 526 958 1104 1217 846 b 639 -53 1217 206 958 -53 m 647 249 b 849 442 765 249 849 328 b 663 625 849 547 768 625 b 556 588 621 625 579 611 b 656 714 565 675 600 714 b 725 650 690 714 715 694 l 846 650 b 661 803 840 740 774 803 b 428 517 500 803 428 703 b 647 249 428 350 507 249 m 643 340 b 564 436 594 340 564 378 b 643 536 564 499 594 536 b 722 436 692 536 722 499 b 643 340 722 378 692 340 "},"➐":{"ha":1276,"x_min":0,"x_max":0,"o":"m 639 -53 b 60 526 318 -53 60 206 b 639 1104 60 846 318 1104 b 1217 526 958 1104 1217 846 b 639 -53 1217 206 958 -53 m 656 263 l 833 690 l 833 789 l 444 789 l 444 690 l 704 690 l 526 263 "},"➑":{"ha":1276,"x_min":0,"x_max":0,"o":"m 639 -53 b 60 526 318 -53 60 206 b 639 1104 60 846 318 1104 b 1217 526 958 1104 1217 846 b 639 -53 1217 206 958 -53 m 639 249 b 719 257 668 249 694 250 b 857 407 801 278 857 332 b 751 544 857 464 828 518 b 838 660 806 568 838 610 b 706 797 838 732 782 781 b 639 803 685 801 663 803 b 574 797 615 803 593 801 b 440 660 497 781 440 732 b 526 544 440 610 472 568 b 421 407 450 518 421 464 b 558 257 421 332 476 278 b 639 249 583 250 610 249 m 639 344 b 556 428 596 344 556 368 b 639 508 556 481 594 508 b 722 428 683 508 722 481 b 639 344 722 368 682 344 m 639 579 b 571 644 601 579 571 601 b 639 713 571 692 603 713 b 707 644 675 713 707 692 b 639 579 707 601 676 579 "},"➒":{"ha":1276,"x_min":0,"x_max":0,"o":"m 639 -53 b 60 526 318 -53 60 206 b 639 1104 60 846 318 1104 b 1217 526 958 1104 1217 846 b 639 -53 1217 206 958 -53 m 621 249 b 854 538 782 249 854 351 b 635 803 854 701 775 803 b 433 613 517 803 433 724 b 619 438 433 515 514 438 b 726 475 661 438 703 446 b 626 338 722 379 682 338 b 557 406 592 338 564 358 l 436 406 b 621 249 442 311 508 249 m 639 526 b 560 621 590 526 560 564 b 639 711 560 674 590 711 b 718 621 688 711 718 674 b 639 526 718 564 688 526 "},"⁄":{"ha":143,"x_min":0,"x_max":0,"o":"m 243 1051 l 400 1051 l -99 1 l -257 0 "},"½":{"ha":1144,"x_min":0,"x_max":0,"o":"m 663 1051 l 819 1051 l 321 1 l 163 0 m 185 924 l 56 843 l 56 968 l 190 1051 l 313 1051 l 313 525 l 185 525 m 646 0 b 779 247 646 121 683 194 l 829 275 b 921 378 896 313 921 340 b 856 443 921 419 894 443 b 769 336 803 443 774 410 l 642 336 b 861 540 643 451 721 540 b 1056 378 978 540 1056 475 b 931 211 1056 306 1029 260 l 878 185 b 796 103 831 161 810 138 l 1061 103 l 1061 0 l 646 0 "},"⅔":{"ha":1321,"x_min":0,"x_max":0,"o":"m 854 1051 l 1011 1051 l 513 1 l 354 0 m 88 524 b 221 771 88 644 125 718 l 271 799 b 363 901 338 836 363 864 b 297 967 363 943 336 967 b 211 860 244 967 215 933 l 83 860 b 303 1064 85 975 163 1064 b 497 901 419 1064 497 999 b 372 735 497 829 471 783 l 319 708 b 238 626 272 685 251 661 l 503 626 l 503 524 l 88 524 m 1031 -15 b 806 165 896 -15 814 47 l 946 165 b 1031 79 953 104 979 79 b 1114 161 1083 79 1114 108 b 1018 243 1114 218 1079 243 l 968 243 l 968 329 l 1015 329 b 1096 390 1072 329 1096 353 b 1025 447 1096 422 1071 447 b 943 372 972 447 949 422 l 810 372 b 1035 539 814 472 886 539 b 1231 403 1157 539 1231 485 b 1135 289 1231 351 1197 306 b 1249 150 1214 269 1249 211 b 1031 -15 1249 44 1158 -15 "},"¼":{"ha":1103,"x_min":0,"x_max":0,"o":"m 669 1051 l 826 1051 l 328 1 l 169 0 m 185 924 l 56 843 l 56 968 l 190 1051 l 313 1051 l 313 525 l 185 525 m 831 117 l 563 117 l 563 239 l 794 526 l 953 526 l 953 208 l 1033 208 l 1033 117 l 953 117 l 953 0 l 831 0 m 831 208 l 831 406 l 668 208 "},"¾":{"ha":1258,"x_min":0,"x_max":0,"o":"m 813 1051 l 969 1051 l 471 1 l 313 0 m 294 511 b 69 692 160 511 78 574 l 210 692 b 294 606 217 631 243 606 b 378 688 347 606 378 635 b 282 769 378 744 343 769 l 232 769 l 232 856 l 279 856 b 360 917 336 856 360 879 b 289 974 360 949 335 974 b 207 899 236 974 213 949 l 74 899 b 299 1065 78 999 150 1065 b 494 929 421 1065 494 1011 b 399 815 494 878 461 832 b 513 676 478 796 513 738 b 294 511 513 571 422 511 m 986 117 l 718 117 l 718 239 l 950 526 l 1108 526 l 1108 208 l 1189 208 l 1189 117 l 1108 117 l 1108 0 l 986 0 m 986 208 l 986 406 l 824 208 "},"⅛":{"ha":1132,"x_min":0,"x_max":0,"o":"m 663 1051 l 819 1051 l 321 1 l 163 0 m 185 924 l 56 843 l 56 968 l 190 1051 l 313 1051 l 313 525 l 185 525 m 840 -18 b 760 -10 811 -18 785 -17 b 622 140 678 11 622 65 b 728 278 622 197 651 251 b 642 393 674 301 642 343 b 775 531 642 465 699 514 b 840 536 794 535 817 536 b 907 531 864 536 886 535 b 1039 393 983 514 1039 465 b 953 278 1039 343 1007 301 b 1058 140 1029 251 1058 197 b 921 -10 1058 65 1003 11 b 840 -18 896 -17 869 -18 m 840 78 b 924 161 883 78 924 101 b 840 242 924 214 885 242 b 757 161 796 242 757 214 b 840 78 757 101 797 78 m 840 313 b 908 378 878 313 908 335 b 840 446 908 425 876 446 b 772 378 804 446 772 425 b 840 313 772 335 803 313 "},"⅜":{"ha":1283,"x_min":0,"x_max":0,"o":"m 814 1051 l 971 1051 l 472 1 l 314 0 m 294 511 b 69 692 160 511 78 574 l 210 692 b 294 606 217 631 243 606 b 378 688 347 606 378 635 b 282 769 378 744 343 769 l 232 769 l 232 856 l 279 856 b 360 917 336 856 360 879 b 289 974 360 949 335 974 b 207 899 236 974 213 949 l 74 899 b 299 1065 78 999 150 1065 b 494 929 421 1065 494 1011 b 399 815 494 878 461 832 b 513 676 478 796 513 738 b 294 511 513 571 422 511 m 992 -18 b 911 -10 963 -18 936 -17 b 774 140 829 11 774 65 b 879 278 774 197 803 251 b 793 393 825 301 793 343 b 926 531 793 465 850 514 b 992 536 946 535 968 536 b 1058 531 1015 536 1038 535 b 1190 393 1135 514 1190 465 b 1104 278 1190 343 1158 301 b 1210 140 1181 251 1210 197 b 1072 -10 1210 65 1154 11 b 992 -18 1047 -17 1021 -18 m 992 78 b 1075 161 1035 78 1075 101 b 992 242 1075 214 1036 242 b 908 161 947 242 908 214 b 992 78 908 101 949 78 m 992 313 b 1060 378 1029 313 1060 335 b 992 446 1060 425 1028 446 b 924 378 956 446 924 425 b 992 313 924 335 954 313 "},"⅝":{"ha":1263,"x_min":0,"x_max":0,"o":"m 793 1051 l 950 1051 l 451 1 l 293 0 m 290 511 b 89 678 169 511 94 578 l 214 678 b 292 611 221 635 249 611 b 378 714 350 611 378 663 b 297 807 378 779 346 807 b 214 756 254 807 225 786 l 96 756 l 136 1051 l 468 1051 l 468 961 l 240 961 l 222 869 b 322 894 246 888 278 894 b 503 718 433 894 503 807 b 290 511 503 596 419 511 m 971 -18 b 890 -10 942 -18 915 -17 b 753 140 808 11 753 65 b 858 278 753 197 782 251 b 772 393 804 301 772 343 b 906 531 772 465 829 514 b 971 536 925 535 947 536 b 1038 531 994 536 1017 535 b 1169 393 1114 514 1169 465 b 1083 278 1169 343 1138 301 b 1189 140 1160 251 1189 197 b 1051 -10 1189 65 1133 11 b 971 -18 1026 -17 1000 -18 m 971 78 b 1054 161 1014 78 1054 101 b 971 242 1054 214 1015 242 b 888 161 926 242 888 214 b 971 78 888 101 928 78 m 971 313 b 1039 378 1008 313 1039 335 b 971 446 1039 425 1007 446 b 903 378 935 446 903 425 b 971 313 903 335 933 313 "},"⅞":{"ha":1128,"x_min":0,"x_max":0,"o":"m 656 1051 l 813 1051 l 314 1 l 156 0 m 308 953 l 49 953 l 49 1051 l 438 1051 l 438 953 l 260 525 l 131 525 m 836 -18 b 756 -10 807 -18 781 -17 b 618 140 674 11 618 65 b 724 278 618 197 647 251 b 638 393 669 301 638 343 b 771 531 638 465 694 514 b 836 536 790 535 813 536 b 903 531 860 536 882 535 b 1035 393 979 514 1035 465 b 949 278 1035 343 1003 301 b 1054 140 1025 251 1054 197 b 917 -10 1054 65 999 11 b 836 -18 892 -17 865 -18 m 836 78 b 919 161 879 78 919 101 b 836 242 919 214 881 242 b 753 161 792 242 753 214 b 836 78 753 101 793 78 m 836 313 b 904 378 874 313 904 335 b 836 446 904 425 872 446 b 768 378 800 446 768 425 b 836 313 768 335 799 313 "},"₀":{"ha":600,"x_min":0,"x_max":0,"o":"m 300 -22 b 74 256 132 -22 74 104 b 300 532 74 408 133 532 b 526 256 468 532 526 407 b 300 -22 526 101 467 -22 m 300 86 b 394 256 368 86 394 146 b 300 424 394 374 363 424 b 206 256 238 424 206 374 b 300 86 206 146 232 86 "},"₁":{"ha":418,"x_min":0,"x_max":0,"o":"m 185 399 l 56 318 l 56 443 l 190 526 l 313 526 l 313 0 l 185 0 "},"₂":{"ha":586,"x_min":0,"x_max":0,"o":"m 88 0 b 221 247 88 121 125 194 l 271 275 b 363 378 338 313 363 340 b 297 443 363 419 336 443 b 211 336 244 443 215 410 l 83 336 b 303 540 85 451 163 540 b 497 378 419 540 497 475 b 372 211 497 306 471 260 l 319 185 b 238 103 272 161 251 138 l 503 103 l 503 0 l 88 0 "},"₃":{"ha":585,"x_min":0,"x_max":0,"o":"m 294 -15 b 69 165 160 -15 78 47 l 210 165 b 294 79 217 104 243 79 b 378 161 347 79 378 108 b 282 243 378 218 343 243 l 232 243 l 232 329 l 279 329 b 360 390 336 329 360 353 b 289 447 360 422 335 447 b 207 372 236 447 213 422 l 74 372 b 299 539 78 472 150 539 b 494 403 421 539 494 485 b 399 289 494 351 461 306 b 513 150 478 269 513 211 b 294 -15 513 44 422 -15 "},"₄":{"ha":617,"x_min":0,"x_max":0,"o":"m 344 117 l 76 117 l 76 239 l 308 526 l 467 526 l 467 208 l 547 208 l 547 117 l 467 117 l 467 0 l 344 0 m 344 208 l 344 406 l 182 208 "},"₅":{"ha":586,"x_min":0,"x_max":0,"o":"m 290 -15 b 89 151 169 -15 94 51 l 214 151 b 292 85 221 108 249 85 b 378 188 350 85 378 136 b 297 281 378 253 346 281 b 214 229 254 281 225 260 l 96 229 l 136 525 l 468 525 l 468 435 l 240 435 l 222 343 b 322 368 246 361 278 368 b 503 192 433 368 503 281 b 290 -15 503 69 419 -15 "},"₆":{"ha":563,"x_min":0,"x_max":0,"o":"m 293 -19 b 74 249 153 -19 74 82 b 307 535 74 435 146 535 b 492 382 419 535 486 472 l 371 382 b 301 446 361 426 336 446 b 201 319 246 446 211 407 b 308 357 225 343 267 357 b 494 174 414 357 494 279 b 293 -19 494 60 411 -19 m 289 72 b 368 168 338 72 368 110 b 289 268 368 231 338 268 b 210 168 240 268 210 231 b 289 72 210 110 240 72 "},"₇":{"ha":486,"x_min":0,"x_max":0,"o":"m 308 428 l 49 428 l 49 526 l 438 526 l 438 428 l 260 0 l 131 0 "},"₈":{"ha":583,"x_min":0,"x_max":0,"o":"m 292 -18 b 211 -10 263 -18 236 -17 b 74 140 129 11 74 65 b 179 278 74 197 103 251 b 93 393 125 301 93 343 b 226 531 93 465 150 514 b 292 536 246 535 268 536 b 358 531 315 536 338 535 b 490 393 435 514 490 465 b 404 278 490 343 458 301 b 510 140 481 251 510 197 b 372 -10 510 65 454 11 b 292 -18 347 -17 321 -18 m 292 78 b 375 161 335 78 375 101 b 292 242 375 214 336 242 b 208 161 247 242 208 214 b 292 78 208 101 249 78 m 292 313 b 360 378 329 313 360 335 b 292 446 360 425 328 446 b 224 378 256 446 224 425 b 292 313 224 335 254 313 "},"₉":{"ha":563,"x_min":0,"x_max":0,"o":"m 256 -21 b 71 136 143 -21 76 42 l 192 136 b 261 68 199 89 226 68 b 361 206 317 68 357 110 b 254 168 338 176 296 168 b 68 343 149 168 68 246 b 269 533 68 454 151 533 b 489 268 410 533 489 432 b 256 -21 489 82 417 -21 m 274 257 b 353 351 322 257 353 294 b 274 442 353 404 322 442 b 194 351 225 442 194 404 b 274 257 194 294 225 257 "},"⁰":{"ha":600,"x_min":0,"x_max":0,"o":"m 300 511 b 74 789 132 511 74 638 b 300 1065 74 942 133 1065 b 526 789 468 1065 526 940 b 300 511 526 635 467 511 m 300 619 b 394 789 368 619 394 679 b 300 957 394 907 363 957 b 206 789 238 957 206 907 b 300 619 206 679 232 619 "},"¹":{"ha":418,"x_min":0,"x_max":0,"o":"m 185 924 l 56 843 l 56 968 l 190 1051 l 313 1051 l 313 525 l 185 525 "},"²":{"ha":586,"x_min":0,"x_max":0,"o":"m 88 525 b 221 772 88 646 125 719 l 271 800 b 363 903 338 838 363 865 b 297 968 363 944 336 968 b 211 861 244 968 215 935 l 83 861 b 303 1065 85 976 163 1065 b 497 903 419 1065 497 1000 b 372 736 497 831 471 785 l 319 710 b 238 628 272 686 251 663 l 503 628 l 503 525 l 88 525 "},"³":{"ha":585,"x_min":0,"x_max":0,"o":"m 294 511 b 69 692 160 511 78 574 l 210 692 b 294 606 217 631 243 606 b 378 688 347 606 378 635 b 282 769 378 744 343 769 l 232 769 l 232 856 l 279 856 b 360 917 336 856 360 879 b 289 974 360 949 335 974 b 207 899 236 974 213 949 l 74 899 b 299 1065 78 999 150 1065 b 494 929 421 1065 494 1011 b 399 815 494 878 461 832 b 513 676 478 796 513 738 b 294 511 513 571 422 511 "},"⁴":{"ha":617,"x_min":0,"x_max":0,"o":"m 344 642 l 76 642 l 76 764 l 308 1051 l 467 1051 l 467 733 l 547 733 l 547 642 l 467 642 l 467 525 l 344 525 m 344 733 l 344 931 l 182 733 "},"⁵":{"ha":586,"x_min":0,"x_max":0,"o":"m 290 511 b 89 678 169 511 94 578 l 214 678 b 292 611 221 635 249 611 b 378 714 350 611 378 663 b 297 807 378 779 346 807 b 214 756 254 807 225 786 l 96 756 l 136 1051 l 468 1051 l 468 961 l 240 961 l 222 869 b 322 894 246 888 278 894 b 503 718 433 894 503 807 b 290 511 503 596 419 511 "},"⁶":{"ha":563,"x_min":0,"x_max":0,"o":"m 293 511 b 74 779 153 511 74 613 b 307 1065 74 965 146 1065 b 492 913 419 1065 486 1003 l 371 913 b 301 976 361 957 336 976 b 201 850 246 976 211 938 b 308 888 225 874 267 888 b 494 704 414 888 494 810 b 293 511 494 590 411 511 m 289 603 b 368 699 338 603 368 640 b 289 799 368 761 338 799 b 210 699 240 799 210 761 b 289 603 210 640 240 603 "},"⁷":{"ha":486,"x_min":0,"x_max":0,"o":"m 308 953 l 49 953 l 49 1051 l 438 1051 l 438 953 l 260 525 l 131 525 "},"⁸":{"ha":583,"x_min":0,"x_max":0,"o":"m 292 511 b 211 519 263 511 236 513 b 74 669 129 540 74 594 b 179 807 74 726 103 781 b 93 922 125 831 93 872 b 226 1060 93 994 150 1043 b 292 1065 246 1064 268 1065 b 358 1060 315 1065 338 1064 b 490 922 435 1043 490 994 b 404 807 490 872 458 831 b 510 669 481 781 510 726 b 372 519 510 594 454 540 b 292 511 347 513 321 511 m 292 607 b 375 690 335 607 375 631 b 292 771 375 743 336 771 b 208 690 247 771 208 743 b 292 607 208 631 249 607 m 292 842 b 360 907 329 842 360 864 b 292 975 360 954 328 975 b 224 907 256 975 224 954 b 292 842 224 864 254 842 "},"⁹":{"ha":563,"x_min":0,"x_max":0,"o":"m 256 511 b 71 668 143 511 76 574 l 192 668 b 261 600 199 621 226 600 b 361 738 317 600 357 642 b 254 700 338 708 296 700 b 68 875 149 700 68 778 b 269 1065 68 986 151 1065 b 489 800 410 1065 489 964 b 256 511 489 614 417 511 m 274 789 b 353 883 322 789 353 826 b 274 974 353 936 322 974 b 194 883 225 974 194 936 b 274 789 194 826 225 789 "}," ":{"ha":354,"x_min":0,"x_max":0,"o":""}," ":{"ha":736,"x_min":0,"x_max":0,"o":""}," ":{"ha":1431,"x_min":0,"x_max":0,"o":""}," ":{"ha":736,"x_min":0,"x_max":0,"o":""}," ":{"ha":1431,"x_min":0,"x_max":0,"o":""}," ":{"ha":504,"x_min":0,"x_max":0,"o":""}," ":{"ha":389,"x_min":0,"x_max":0,"o":""}," ":{"ha":274,"x_min":0,"x_max":0,"o":""}," ":{"ha":935,"x_min":0,"x_max":0,"o":""}," ":{"ha":449,"x_min":0,"x_max":0,"o":""}," ":{"ha":319,"x_min":0,"x_max":0,"o":""}," ":{"ha":236,"x_min":0,"x_max":0,"o":""},"​":{"ha":42,"x_min":0,"x_max":0,"o":""},"·":{"ha":449,"x_min":0,"x_max":0,"o":"m 122 632 l 326 632 l 326 404 l 122 404 "},".":{"ha":449,"x_min":0,"x_max":0,"o":"m 122 228 l 326 228 l 326 0 l 122 0 "},",":{"ha":433,"x_min":0,"x_max":0,"o":"m 136 0 l 136 228 l 311 228 l 311 0 l 183 -243 l 67 -243 "},":":{"ha":449,"x_min":0,"x_max":0,"o":"m 122 692 l 326 692 l 326 464 l 122 464 m 122 228 l 326 228 l 326 0 l 122 0 "},";":{"ha":449,"x_min":0,"x_max":0,"o":"m 142 0 l 142 228 l 317 228 l 317 0 l 189 -243 l 72 -243 m 122 692 l 326 692 l 326 464 l 122 464 "},"…":{"ha":1004,"x_min":0,"x_max":0,"o":"m 678 228 l 882 228 l 882 0 l 678 0 m 122 228 l 326 228 l 326 0 l 122 0 m 400 228 l 604 228 l 604 0 l 400 0 "},"!":{"ha":438,"x_min":0,"x_max":0,"o":"m 122 1051 l 315 1051 l 315 288 l 122 288 m 122 228 l 315 228 l 315 0 l 122 0 "},"¡":{"ha":438,"x_min":0,"x_max":0,"o":"m 122 476 l 315 476 l 315 -287 l 122 -287 m 122 764 l 315 764 l 315 536 l 122 536 "},"?":{"ha":890,"x_min":0,"x_max":0,"o":"m 351 288 b 479 592 351 426 372 488 l 561 672 b 615 779 606 717 615 749 b 464 917 615 850 560 917 b 265 701 346 917 281 847 l 82 701 b 458 1069 89 929 232 1069 b 808 774 669 1069 808 949 b 742 604 808 703 788 651 l 628 489 b 528 288 560 421 533 376 l 351 288 m 343 228 l 536 228 l 536 0 l 343 0 "},"¿":{"ha":890,"x_min":0,"x_max":0,"o":"m 432 -306 b 82 -10 221 -306 82 -185 b 149 160 82 61 103 113 l 263 275 b 363 476 331 343 357 388 l 539 476 b 411 172 539 338 518 276 l 329 92 b 275 -15 285 47 275 15 b 426 -153 275 -86 331 -153 b 625 63 544 -153 610 -83 l 808 63 b 432 -306 801 -165 658 -306 m 354 764 l 547 764 l 547 536 l 354 536 "},"·":{"ha":449,"x_min":0,"x_max":0,"o":"m 122 632 l 326 632 l 326 404 l 122 404 "},"•":{"ha":622,"x_min":0,"x_max":0,"o":"m 311 340 b 122 529 206 340 122 424 b 311 718 122 635 206 718 b 500 529 417 718 500 635 b 311 340 500 424 417 340 "},"*":{"ha":731,"x_min":0,"x_max":0,"o":"m 324 731 l 169 610 l 100 729 l 282 803 l 100 876 l 169 996 l 324 875 l 296 1069 l 435 1069 l 407 875 l 561 996 l 631 876 l 449 803 l 631 729 l 561 610 l 407 731 l 435 536 l 296 536 "},"⁂":{"ha":1342,"x_min":0,"x_max":0,"o":"m 626 731 l 472 610 l 403 729 l 585 803 l 403 876 l 472 996 l 626 875 l 599 1069 l 738 1069 l 710 875 l 864 996 l 933 876 l 751 803 l 933 729 l 864 610 l 710 731 l 738 536 l 599 536 m 324 194 l 169 74 l 100 193 l 282 267 l 100 340 l 169 460 l 324 339 l 296 533 l 435 533 l 407 339 l 561 460 l 631 340 l 449 267 l 631 193 l 561 74 l 407 194 l 435 0 l 296 0 m 935 194 l 781 74 l 711 193 l 893 267 l 711 340 l 781 460 l 935 339 l 907 533 l 1046 533 l 1018 339 l 1172 460 l 1242 340 l 1060 267 l 1242 193 l 1172 74 l 1018 194 l 1046 0 l 907 0 "},"#":{"ha":1214,"x_min":0,"x_max":0,"o":"m 282 301 l 108 301 l 108 443 l 322 443 l 374 624 l 200 624 l 200 765 l 414 765 l 496 1051 l 651 1051 l 568 765 l 772 765 l 856 1051 l 1007 1051 l 924 765 l 1106 765 l 1106 624 l 885 624 l 831 443 l 1014 443 l 1014 301 l 792 301 l 704 0 l 551 0 l 638 301 l 436 301 l 350 0 l 197 0 m 679 440 l 732 625 l 528 625 l 474 440 "},"/":{"ha":879,"x_min":0,"x_max":0,"o":"m 599 1088 l 803 1088 l 282 -36 l 76 -37 "},"\\":{"ha":879,"x_min":0,"x_max":0,"o":"m 597 -36 l 76 1088 l 281 1088 l 803 -37 "},"⁑":{"ha":731,"x_min":0,"x_max":0,"o":"m 324 758 l 169 638 l 100 757 l 282 831 l 100 904 l 169 1024 l 324 903 l 296 1097 l 435 1097 l 407 903 l 561 1024 l 631 904 l 449 831 l 631 757 l 561 638 l 407 758 l 435 564 l 296 564 m 324 147 l 169 26 l 100 146 l 282 219 l 100 293 l 169 413 l 324 292 l 296 486 l 435 486 l 407 292 l 561 413 l 631 293 l 449 219 l 631 146 l 561 26 l 407 147 l 435 -47 l 296 -47 "},"-":{"ha":654,"x_min":0,"x_max":0,"o":"m 122 508 l 532 508 l 532 326 l 122 326 "},"–":{"ha":904,"x_min":0,"x_max":0,"o":"m 122 506 l 782 506 l 782 331 l 122 331 "},"—":{"ha":1196,"x_min":0,"x_max":0,"o":"m 122 506 l 1074 506 l 1074 331 l 122 331 "},"_":{"ha":904,"x_min":0,"x_max":0,"o":"m 122 -47 l 782 -47 l 782 -193 l 122 -193 "},"(":{"ha":476,"x_min":0,"x_max":0,"o":"m 249 -162 b 104 486 139 56 108 285 b 249 1132 108 688 139 914 l 414 1132 b 306 486 342 918 308 735 b 414 -162 308 238 342 51 l 249 -162 "},")":{"ha":476,"x_min":0,"x_max":0,"o":"m 63 -162 b 171 486 135 51 168 238 b 63 1132 168 735 135 918 l 228 1132 b 372 486 338 914 368 688 b 228 -162 368 285 338 56 l 63 -162 "},"{":{"ha":599,"x_min":0,"x_max":0,"o":"m 447 -162 b 213 51 329 -162 213 -90 l 213 286 b 85 419 213 390 171 419 l 81 419 l 81 558 l 85 558 b 213 692 171 558 213 588 l 213 918 b 447 1132 213 1060 329 1132 l 536 1132 l 536 993 l 447 993 b 393 918 403 993 393 983 l 393 692 b 300 489 393 604 357 535 b 393 286 357 443 393 374 l 393 51 b 447 -24 393 -14 403 -24 l 536 -24 l 536 -162 l 447 -162 "},"}":{"ha":599,"x_min":0,"x_max":0,"o":"m 63 -24 l 151 -24 b 206 51 196 -24 206 -14 l 206 286 b 299 489 206 374 242 443 b 206 692 242 535 206 604 l 206 918 b 151 993 206 983 196 993 l 63 993 l 63 1132 l 151 1132 b 386 918 269 1132 386 1060 l 386 692 b 514 558 386 588 428 558 l 518 558 l 518 419 l 514 419 b 386 286 428 419 386 390 l 386 51 b 151 -162 386 -90 269 -162 l 63 -162 "},"[":{"ha":529,"x_min":0,"x_max":0,"o":"m 122 1132 l 460 1132 l 460 985 l 308 985 l 308 -15 l 460 -15 l 460 -162 l 122 -162 "},"]":{"ha":529,"x_min":0,"x_max":0,"o":"m 69 -15 l 221 -15 l 221 985 l 69 985 l 69 1132 l 407 1132 l 407 -162 l 69 -162 "},"‚":{"ha":433,"x_min":0,"x_max":0,"o":"m 136 0 l 136 228 l 311 228 l 311 0 l 183 -243 l 67 -243 "},"„":{"ha":696,"x_min":0,"x_max":0,"o":"m 399 0 l 399 228 l 574 228 l 574 0 l 446 -243 l 329 -243 m 136 0 l 136 228 l 311 228 l 311 0 l 183 -243 l 67 -243 "},"“":{"ha":696,"x_min":0,"x_max":0,"o":"m 385 808 l 513 1051 l 629 1051 l 560 808 l 560 581 l 385 581 m 122 808 l 250 1051 l 367 1051 l 297 808 l 297 581 l 122 581 "},"”":{"ha":696,"x_min":0,"x_max":0,"o":"m 399 824 l 399 1051 l 574 1051 l 574 824 l 446 581 l 329 581 m 136 824 l 136 1051 l 311 1051 l 311 824 l 183 581 l 67 581 "},"‘":{"ha":433,"x_min":0,"x_max":0,"o":"m 122 808 l 250 1051 l 367 1051 l 297 808 l 297 581 l 122 581 "},"’":{"ha":433,"x_min":0,"x_max":0,"o":"m 136 824 l 136 1051 l 311 1051 l 311 824 l 183 581 l 67 581 "},"«":{"ha":860,"x_min":0,"x_max":0,"o":"m 392 382 l 569 714 l 756 714 l 574 382 l 756 49 l 569 49 m 97 382 l 275 714 l 461 714 l 279 382 l 461 49 l 275 49 "},"»":{"ha":860,"x_min":0,"x_max":0,"o":"m 581 382 l 399 714 l 585 714 l 763 382 l 585 49 l 399 49 m 286 382 l 104 714 l 290 714 l 468 382 l 290 49 l 104 49 "},"‹":{"ha":565,"x_min":0,"x_max":0,"o":"m 97 382 l 275 714 l 461 714 l 279 382 l 461 49 l 275 49 "},"›":{"ha":565,"x_min":0,"x_max":0,"o":"m 286 382 l 104 714 l 290 714 l 468 382 l 290 49 l 104 49 "},"\"":{"ha":697,"x_min":0,"x_max":0,"o":"m 378 944 l 376 1051 l 572 1051 l 569 944 l 536 668 l 411 668 m 126 944 l 125 1051 l 321 1051 l 318 944 l 285 668 l 160 668 "},"'":{"ha":446,"x_min":0,"x_max":0,"o":"m 126 944 l 125 1051 l 321 1051 l 318 944 l 285 668 l 160 668 "},"ƒ":{"ha":1011,"x_min":0,"x_max":0,"o":"m 217 -290 b 42 -260 150 -290 72 -275 l 42 -110 b 182 -133 93 -125 140 -133 b 374 61 288 -133 358 -81 l 418 478 l 190 478 l 190 635 l 433 635 l 446 753 b 796 1099 467 949 569 1099 b 969 1068 863 1099 939 1082 l 969 919 b 829 939 918 931 871 939 b 638 749 724 939 651 886 l 626 635 l 875 635 l 875 478 l 611 478 l 565 56 b 217 -290 542 -168 443 -290 "},"@":{"ha":1297,"x_min":0,"x_max":0,"o":"m 661 -187 b 60 381 294 -187 60 50 b 690 1024 60 750 329 1024 b 1238 521 1018 1024 1238 821 b 918 103 1238 240 1053 103 b 781 213 847 103 792 140 b 589 101 744 144 671 101 b 346 378 444 101 346 214 b 657 746 346 593 475 746 b 810 657 733 746 793 711 l 822 731 l 958 731 l 897 299 b 896 285 896 293 896 289 b 935 243 896 256 913 243 b 1069 522 1000 243 1069 400 b 694 876 1069 740 926 876 b 235 392 419 876 235 681 b 674 -29 235 136 389 -29 b 1106 81 807 -29 960 4 l 1172 -50 b 661 -187 996 -153 811 -187 m 622 240 b 758 410 696 240 744 314 l 765 456 b 668 606 782 565 736 606 b 515 376 578 606 515 513 b 622 240 515 288 551 240 "},"&":{"ha":1019,"x_min":0,"x_max":0,"o":"m 449 -18 b 60 315 203 -18 60 117 b 246 613 60 428 111 549 b 110 819 147 658 110 725 b 442 1069 110 947 213 1069 b 765 894 606 1069 721 1015 b 782 760 779 856 782 811 l 782 661 l 976 661 l 976 525 l 782 525 l 782 0 l 588 0 l 588 525 l 478 525 b 379 511 444 525 410 522 b 257 326 311 486 257 426 b 447 131 257 210 332 131 b 518 139 472 131 496 133 l 518 -14 b 449 -18 496 -17 472 -18 m 588 661 l 588 757 b 576 849 588 789 586 822 b 442 931 558 897 517 931 b 297 797 346 931 297 864 b 488 661 297 703 381 661 "},"¶":{"ha":804,"x_min":0,"x_max":0,"o":"m 331 408 b 44 728 147 422 44 560 b 397 1051 44 931 200 1051 l 464 1051 l 464 -167 l 331 -167 l 331 408 m 528 1051 l 760 1051 l 760 946 l 661 947 l 661 -167 l 528 -167 "},"§":{"ha":839,"x_min":0,"x_max":0,"o":"m 419 -261 b 72 56 206 -261 72 -143 l 250 56 b 415 -112 257 -64 322 -112 b 549 -4 504 -112 549 -68 b 332 147 549 69 450 93 b 44 463 189 213 44 268 b 168 678 44 556 89 632 b 117 822 132 724 117 772 b 418 1069 117 967 250 1069 b 739 753 608 1069 739 946 l 561 753 b 426 919 556 875 494 921 b 304 822 347 921 304 879 b 481 669 304 763 335 739 b 794 357 690 569 794 518 b 686 149 794 267 758 194 b 731 8 717 104 731 54 b 419 -261 731 -131 615 -261 m 561 231 b 617 332 607 268 617 292 b 442 497 617 414 572 432 l 276 581 b 224 478 235 554 224 521 b 361 324 224 414 258 371 l 561 231 "},"©":{"ha":1201,"x_min":0,"x_max":0,"o":"m 600 -19 b 60 525 303 -19 60 217 b 600 1068 60 832 303 1068 b 1142 525 899 1068 1142 832 b 600 -19 1142 217 899 -19 m 601 207 b 301 525 421 207 301 333 b 601 843 301 715 421 843 b 875 631 747 843 864 753 l 724 631 b 604 728 706 694 665 728 b 458 525 514 728 458 653 b 604 321 458 396 514 321 b 729 435 669 321 713 358 l 883 435 b 601 207 876 304 756 207 m 601 100 b 1018 525 849 100 1018 303 b 601 950 1018 747 849 950 b 185 525 354 950 185 747 b 601 100 185 303 354 100 "},"®":{"ha":1201,"x_min":0,"x_max":0,"o":"m 600 -18 b 60 526 303 -18 60 218 b 600 1069 60 833 303 1069 b 1142 526 899 1069 1142 833 b 600 -18 1142 218 899 -18 m 601 101 b 1018 526 849 101 1018 304 b 601 951 1018 749 849 951 b 185 526 354 951 185 749 b 601 101 185 304 354 101 m 367 835 l 596 835 b 738 815 660 835 704 829 b 856 635 811 786 856 719 b 699 453 856 531 801 474 l 847 222 l 701 222 l 558 444 l 501 444 l 501 222 l 367 222 m 610 556 b 729 635 696 556 729 578 b 610 713 729 690 696 713 l 501 713 l 501 556 l 610 556 "},"℗":{"ha":1201,"x_min":0,"x_max":0,"o":"m 600 -18 b 60 526 303 -18 60 218 b 600 1069 60 833 303 1069 b 1142 526 899 1069 1142 833 b 600 -18 1142 218 899 -18 m 601 101 b 1018 526 849 101 1018 304 b 601 951 1018 749 849 951 b 185 526 354 951 185 749 b 601 101 185 304 354 101 m 401 835 l 631 835 b 772 815 694 835 739 829 b 890 635 846 786 890 719 b 635 444 890 501 800 444 l 536 444 l 536 222 l 401 222 m 644 556 b 764 635 731 556 764 578 b 644 713 764 690 731 713 l 536 713 l 536 556 l 644 556 "},"™":{"ha":1139,"x_min":0,"x_max":0,"o":"m 225 949 l 42 949 l 42 1051 l 668 1051 l 806 674 l 811 674 l 946 1051 l 1097 1051 l 1097 503 l 967 503 l 967 796 l 961 796 l 856 503 l 767 503 l 656 796 l 650 796 l 650 503 l 514 503 l 514 949 l 361 949 l 361 503 l 225 503 "},"°":{"ha":529,"x_min":0,"x_max":0,"o":"m 265 639 b 49 853 140 639 49 738 b 265 1069 49 975 147 1069 b 481 856 389 1069 481 969 b 265 639 481 733 385 639 m 265 765 b 351 854 314 765 351 803 b 265 943 351 904 315 943 b 178 854 215 943 178 906 b 265 765 178 804 214 765 "},"′":{"ha":439,"x_min":0,"x_max":0,"o":"m 174 1051 l 383 1051 l 225 674 l 56 674 "},"″":{"ha":725,"x_min":0,"x_max":0,"o":"m 460 1051 l 669 1051 l 511 674 l 342 674 m 174 1051 l 383 1051 l 225 674 l 56 674 "},"|":{"ha":375,"x_min":0,"x_max":0,"o":"m 97 1051 l 278 1051 l 278 0 l 97 0 "},"¦":{"ha":375,"x_min":0,"x_max":0,"o":"m 97 1051 l 278 1051 l 278 646 l 97 646 m 97 406 l 278 406 l 278 0 l 97 0 "},"†":{"ha":794,"x_min":0,"x_max":0,"o":"m 308 631 l 49 631 l 49 782 l 308 782 l 308 1051 l 482 1051 l 482 782 l 746 782 l 746 631 l 482 631 l 482 0 l 308 0 "},"ℓ":{"ha":875,"x_min":0,"x_max":0,"o":""},"‡":{"ha":794,"x_min":0,"x_max":0,"o":"m 308 269 l 49 269 l 49 421 l 308 421 l 308 631 l 49 631 l 49 782 l 308 782 l 308 1051 l 482 1051 l 482 782 l 746 782 l 746 631 l 482 631 l 482 421 l 746 421 l 746 269 l 482 269 l 482 0 l 308 0 "},"℮":{"ha":3181,"x_min":0,"x_max":0,"o":""},"№":{"ha":1750,"x_min":0,"x_max":0,"o":"m 97 1051 l 340 1051 l 792 276 l 792 1051 l 982 1051 l 982 0 l 739 0 l 288 779 l 288 0 l 97 0 m 1060 329 l 1676 329 l 1676 167 l 1060 167 m 1368 383 b 1046 726 1169 383 1046 532 b 1368 1069 1046 921 1169 1069 b 1690 726 1565 1069 1690 921 b 1368 383 1690 532 1565 383 m 1368 540 b 1515 726 1458 540 1515 611 b 1368 911 1515 840 1458 911 b 1221 726 1278 911 1221 840 b 1368 540 1221 611 1278 540 "},"₿":{"ha":1000,"x_min":0,"x_max":0,"o":"m 253 0 l 97 0 l 97 1051 l 254 1051 l 253 1226 l 415 1226 l 417 1051 l 499 1051 l 497 1226 l 660 1226 l 661 1042 b 740 1024 690 1038 715 1032 b 907 800 844 989 906 907 b 728 564 908 683 844 593 b 939 310 874 532 938 431 b 747 29 940 168 871 74 b 660 8 722 19 693 14 l 661 -172 l 499 -172 l 497 0 l 415 0 l 417 -172 l 254 -172 m 486 153 b 667 185 553 153 621 158 b 732 315 708 208 732 249 b 654 456 732 390 701 432 b 496 481 615 475 565 481 l 300 481 l 300 153 l 486 153 m 467 628 b 632 650 529 628 590 631 b 699 765 674 669 699 704 b 618 885 699 838 665 868 b 467 899 575 897 521 899 l 300 899 l 300 628 l 467 628 "},"¢":{"ha":824,"x_min":0,"x_max":0,"o":"m 351 138 b 49 532 167 169 49 319 b 350 925 49 744 165 893 l 350 1069 l 490 1069 l 490 928 b 771 665 643 904 758 800 l 579 665 b 490 776 564 722 533 760 l 492 288 b 588 419 539 307 571 350 l 781 419 b 492 136 774 275 653 161 l 492 -18 l 351 -18 l 351 138 m 350 769 b 246 532 285 733 246 651 b 351 294 246 413 285 329 l 350 769 "},"¤":{"ha":821,"x_min":0,"x_max":0,"o":"m 85 303 l 186 397 b 142 550 161 433 142 488 b 186 706 142 615 161 669 l 85 800 l 161 876 l 260 778 b 561 779 339 835 482 835 l 660 876 l 736 800 l 635 706 b 679 550 660 669 679 615 b 635 397 679 488 660 433 l 736 303 l 660 226 l 561 325 b 260 324 482 268 339 268 l 161 226 m 411 411 b 543 550 497 411 543 475 b 410 692 543 626 497 692 b 278 550 324 692 278 626 b 411 411 278 476 324 411 "},"$":{"ha":894,"x_min":0,"x_max":0,"o":"m 378 -15 b 46 286 165 3 56 103 l 228 286 b 378 129 240 204 282 147 l 378 413 l 350 417 b 65 676 214 436 65 488 b 378 949 65 824 167 929 l 378 1069 l 517 1069 l 517 949 b 831 688 707 933 813 847 l 656 688 b 517 811 636 757 597 799 l 517 567 l 546 563 b 849 289 696 539 849 501 b 517 -15 849 119 754 1 l 517 -140 l 378 -140 l 378 -15 m 517 126 b 664 260 628 139 664 192 b 517 393 664 343 622 374 l 517 126 m 378 813 b 250 696 283 799 250 756 b 378 590 250 635 286 610 l 378 813 "},"€":{"ha":1026,"x_min":0,"x_max":0,"o":"m 708 -18 b 210 346 456 -18 274 129 l 42 346 l 42 492 l 190 492 b 194 579 190 513 190 558 l 42 579 l 42 726 l 219 726 b 732 1069 289 929 468 1069 b 971 1022 821 1069 904 1051 l 971 847 b 742 908 921 875 849 908 b 422 726 564 908 469 839 l 825 726 l 825 579 l 388 579 b 386 492 382 557 383 513 l 825 492 l 825 346 l 414 346 b 722 143 457 222 554 143 b 975 201 825 143 904 172 l 975 33 b 708 -18 888 0 803 -18 "},"₴":{"ha":875,"x_min":0,"x_max":0,"o":""},"₺":{"ha":2114,"x_min":0,"x_max":0,"o":""},"₹":{"ha":875,"x_min":0,"x_max":0,"o":""},"£":{"ha":1036,"x_min":0,"x_max":0,"o":"m 106 122 b 306 292 244 174 306 218 b 275 399 306 326 299 356 l 83 399 l 83 551 l 199 551 b 157 739 171 619 157 682 b 554 1069 157 943 325 1069 b 953 701 799 1069 935 917 l 765 701 b 554 917 740 842 678 917 b 357 728 415 917 357 835 b 400 551 357 672 372 611 l 785 551 l 785 399 l 465 399 b 494 278 482 361 494 318 b 443 163 494 235 481 193 l 918 163 l 918 0 l 106 0 l 106 122 "},"₸":{"ha":2631,"x_min":0,"x_max":0,"o":""},"₮":{"ha":2631,"x_min":0,"x_max":0,"o":""},"¥":{"ha":969,"x_min":0,"x_max":0,"o":"m 383 224 l 136 224 l 136 350 l 383 350 l 328 457 l 136 457 l 136 586 l 261 586 l 21 1051 l 246 1051 l 490 565 l 726 1051 l 949 1051 l 707 586 l 826 586 l 826 457 l 640 457 l 585 350 l 825 350 l 825 224 l 585 224 l 585 0 l 383 0 "},"⦿":{"ha":6331,"x_min":0,"x_max":0,"o":""},"∙":{"ha":449,"x_min":0,"x_max":0,"o":"m 122 524 l 326 524 l 326 296 l 122 296 "},"⋅":{"ha":631,"x_min":0,"x_max":0,"o":"m 315 301 b 200 417 254 301 200 356 b 315 532 200 478 254 532 b 431 417 376 532 431 478 b 315 301 431 356 376 301 "},"+":{"ha":840,"x_min":0,"x_max":0,"o":"m 333 342 l 42 342 l 42 490 l 333 490 l 333 792 l 507 792 l 507 490 l 799 490 l 799 342 l 507 342 l 507 29 l 333 29 "},"−":{"ha":799,"x_min":0,"x_max":0,"o":"m 42 493 l 757 493 l 757 328 l 42 328 "},"×":{"ha":847,"x_min":0,"x_max":0,"o":"m 57 150 l 321 410 l 57 669 l 164 776 l 424 513 l 683 776 l 790 669 l 526 410 l 790 150 l 683 43 l 424 307 l 164 43 "},"÷":{"ha":799,"x_min":0,"x_max":0,"o":"m 42 493 l 757 493 l 757 328 l 42 328 m 313 225 l 486 225 l 486 29 l 313 29 m 313 792 l 486 792 l 486 596 l 313 596 "},"=":{"ha":771,"x_min":0,"x_max":0,"o":"m 42 607 l 729 607 l 729 464 l 42 464 m 42 357 l 729 357 l 729 215 l 42 215 "},"≠":{"ha":771,"x_min":0,"x_max":0,"o":"m 197 215 l 42 215 l 42 346 l 268 346 l 339 476 l 42 476 l 42 607 l 408 607 l 489 756 l 625 756 l 544 607 l 729 607 l 729 476 l 475 476 l 404 346 l 729 346 l 729 215 l 333 215 l 256 71 l 119 71 "},">":{"ha":736,"x_min":0,"x_max":0,"o":"m 49 225 l 496 406 l 49 586 l 49 750 l 688 488 l 688 324 l 49 61 "},"<":{"ha":736,"x_min":0,"x_max":0,"o":"m 49 324 l 49 488 l 688 750 l 688 586 l 240 406 l 688 225 l 688 61 "},"≥":{"ha":736,"x_min":0,"x_max":0,"o":"m 49 336 l 496 517 l 49 697 l 49 861 l 688 599 l 688 435 l 49 172 m 49 149 l 688 149 l 688 0 l 49 0 "},"≤":{"ha":736,"x_min":0,"x_max":0,"o":"m 49 435 l 49 599 l 688 861 l 688 697 l 240 517 l 688 336 l 688 172 m 49 149 l 688 149 l 688 0 l 49 0 "},"±":{"ha":840,"x_min":0,"x_max":0,"o":"m 333 508 l 42 508 l 42 657 l 333 657 l 333 958 l 507 958 l 507 657 l 799 657 l 799 508 l 507 508 l 507 196 l 333 196 m 42 149 l 799 149 l 799 0 l 42 0 "},"≈":{"ha":821,"x_min":0,"x_max":0,"o":"m 36 524 b 294 688 110 604 186 688 b 540 600 403 688 472 600 b 686 690 597 600 632 640 l 785 589 b 526 425 711 508 635 425 b 282 513 418 425 349 513 b 135 422 239 513 219 500 l 36 524 m 36 235 b 294 399 110 315 186 399 b 540 311 403 399 472 311 b 686 401 597 311 632 351 l 785 300 b 526 136 711 219 635 136 b 282 224 418 136 349 224 b 135 133 239 224 219 211 l 36 235 "},"~":{"ha":821,"x_min":0,"x_max":0,"o":"m 36 340 b 294 504 110 421 186 504 b 540 417 403 504 472 417 b 686 507 597 417 632 457 l 785 406 b 526 242 711 325 635 242 b 282 329 418 242 349 329 b 135 239 239 329 219 317 l 36 340 "},"¬":{"ha":792,"x_min":0,"x_max":0,"o":"m 593 396 l 42 396 l 42 557 l 750 557 l 750 103 l 593 103 "},"^":{"ha":811,"x_min":0,"x_max":0,"o":"m 350 1051 l 460 1051 l 739 492 l 571 492 l 403 831 l 238 492 l 72 492 "},"∞":{"ha":1119,"x_min":0,"x_max":0,"o":"m 326 93 b 49 385 163 93 49 213 b 326 676 49 557 163 676 b 560 529 415 676 499 629 b 793 676 619 629 703 676 b 1071 385 957 676 1071 557 b 793 93 1071 213 957 93 b 560 239 701 93 619 142 b 326 93 501 142 418 93 m 326 251 b 475 385 382 251 426 289 b 326 518 425 481 382 518 b 214 385 256 518 214 471 b 326 251 214 299 256 251 m 793 251 b 904 385 864 251 904 299 b 793 518 904 471 864 518 b 644 385 738 518 694 481 b 793 251 693 289 736 251 "},"∫":{"ha":558,"x_min":0,"x_max":0,"o":"m 49 -85 l 115 -85 b 182 -26 167 -85 182 -72 l 182 892 b 300 1024 182 975 228 1024 l 510 1024 l 510 865 l 440 865 b 374 785 389 865 374 846 l 374 -111 b 256 -243 374 -193 328 -243 l 49 -243 "},"Ω":{"ha":1150,"x_min":0,"x_max":0,"o":"m 69 158 l 206 158 l 206 164 b 64 535 108 239 64 378 b 575 1069 64 857 261 1069 b 1086 535 889 1069 1086 857 b 944 164 1086 378 1042 239 l 944 158 l 1081 158 l 1081 0 l 639 0 l 639 153 b 878 521 789 182 878 317 b 575 906 878 763 765 906 b 272 521 385 906 272 763 b 511 153 272 317 361 182 l 511 0 l 69 0 "},"∆":{"ha":1039,"x_min":0,"x_max":0,"o":"m 49 107 l 374 1051 l 665 1051 l 990 107 l 990 0 l 49 0 m 760 175 l 524 892 l 515 892 l 279 175 "},"∏":{"ha":1028,"x_min":0,"x_max":0,"o":"m 97 1051 l 931 1051 l 931 -243 l 722 -243 l 722 890 l 306 890 l 306 -243 l 97 -243 "},"∑":{"ha":865,"x_min":0,"x_max":0,"o":"m 56 140 l 369 542 l 69 901 l 69 1051 l 764 1051 l 764 888 l 322 888 l 610 542 l 313 164 l 778 164 l 778 0 l 56 0 "},"√":{"ha":1471,"x_min":0,"x_max":0,"o":""},"∂":{"ha":3147,"x_min":0,"x_max":0,"o":""},"%":{"ha":1204,"x_min":0,"x_max":0,"o":"m 786 1067 l 969 1067 l 418 -14 l 233 -15 m 313 536 b 60 803 146 536 60 653 b 313 1068 60 953 146 1068 b 567 803 482 1068 567 953 b 313 536 567 654 479 536 m 314 661 b 406 803 383 661 406 724 b 313 943 406 890 382 943 b 221 803 244 943 221 885 b 314 661 221 724 243 661 m 890 -19 b 638 247 724 -19 638 97 b 890 513 638 397 724 513 b 1144 247 1060 513 1144 397 b 890 -19 1144 99 1057 -19 m 892 106 b 983 247 961 106 983 168 b 890 388 983 335 960 388 b 799 247 822 388 799 328 b 892 106 799 168 821 106 "},"‰":{"ha":1744,"x_min":0,"x_max":0,"o":"m 786 1067 l 969 1067 l 418 -14 l 233 -15 m 313 536 b 60 803 146 536 60 653 b 313 1068 60 953 146 1068 b 567 803 482 1068 567 953 b 313 536 567 654 479 536 m 314 661 b 406 803 383 661 406 724 b 313 943 406 890 382 943 b 221 803 244 943 221 885 b 314 661 221 724 243 661 m 890 -19 b 638 247 724 -19 638 97 b 890 513 638 397 724 513 b 1144 247 1060 513 1144 397 b 890 -19 1144 99 1057 -19 m 892 106 b 983 247 961 106 983 168 b 890 388 983 335 960 388 b 799 247 822 388 799 328 b 892 106 799 168 821 106 m 1431 -19 b 1178 247 1264 -19 1178 97 b 1431 513 1178 397 1264 513 b 1685 247 1600 513 1685 397 b 1431 -19 1685 99 1597 -19 m 1432 106 b 1524 247 1501 106 1524 168 b 1431 388 1524 335 1500 388 b 1339 247 1363 388 1339 328 b 1432 106 1339 168 1361 106 "},"⦾":{"ha":6331,"x_min":0,"x_max":0,"o":""},"↑":{"ha":1026,"x_min":0,"x_max":0,"o":"m 424 900 l 149 614 l 44 719 l 513 1188 l 982 719 l 876 614 l 600 901 l 600 -121 l 424 -121 "},"↗":{"ha":1186,"x_min":0,"x_max":0,"o":"m 56 94 l 869 903 l 451 903 l 451 1051 l 1131 1051 l 1131 344 l 982 344 l 982 782 l 175 -24 "},"→":{"ha":1563,"x_min":0,"x_max":0,"o":"m 931 89 l 1224 357 l 56 357 l 56 525 l 1222 525 l 931 792 l 1043 904 l 1507 440 l 1043 -24 "},"↘":{"ha":1186,"x_min":0,"x_max":0,"o":"m 451 149 l 869 149 l 56 957 l 175 1075 l 982 269 l 982 707 l 1131 707 l 1131 0 l 451 0 "},"↓":{"ha":1026,"x_min":0,"x_max":0,"o":"m 44 281 l 149 386 l 424 100 l 424 1121 l 600 1121 l 600 99 l 876 386 l 982 281 l 513 -187 "},"↙":{"ha":1186,"x_min":0,"x_max":0,"o":"m 56 707 l 204 707 l 204 269 l 1011 1075 l 1131 957 l 317 149 l 735 149 l 735 0 l 56 0 "},"←":{"ha":1563,"x_min":0,"x_max":0,"o":"m 56 440 l 519 904 l 632 792 l 340 525 l 1507 525 l 1507 357 l 339 357 l 632 89 l 519 -24 "},"↖":{"ha":1186,"x_min":0,"x_max":0,"o":"m 204 782 l 204 344 l 56 344 l 56 1051 l 735 1051 l 735 903 l 317 903 l 1131 94 l 1011 -24 "},"●":{"ha":1276,"x_min":0,"x_max":0,"o":"m 639 -53 b 60 526 318 -53 60 206 b 639 1104 60 846 318 1104 b 1217 526 958 1104 1217 846 b 639 -53 1217 206 958 -53 "},"○":{"ha":1276,"x_min":0,"x_max":0,"o":"m 639 -53 b 60 526 318 -53 60 206 b 639 1104 60 846 318 1104 b 1217 526 958 1104 1217 846 b 639 -53 1217 206 958 -53 m 639 108 b 1050 526 868 108 1050 296 b 639 943 1050 756 868 943 b 226 526 408 943 226 756 b 639 108 226 296 408 108 "},"◊":{"ha":806,"x_min":0,"x_max":0,"o":"m 69 444 l 69 528 l 357 972 l 449 972 l 736 528 l 736 444 l 449 0 l 357 0 m 571 486 l 403 743 l 236 486 l 403 229 "},"■":{"ha":1114,"x_min":0,"x_max":0,"o":"m 49 1051 l 1065 1051 l 1065 0 l 49 0 "},"□":{"ha":1115,"x_min":0,"x_max":0,"o":"m 49 1051 l 1067 1051 l 1067 0 l 49 0 m 913 144 l 913 907 l 203 907 l 203 144 "},"▲":{"ha":1308,"x_min":0,"x_max":0,"o":"m 654 1089 l 1260 0 l 49 0 "},"▼":{"ha":1308,"x_min":0,"x_max":0,"o":"m 49 1051 l 1260 1051 l 654 -37 "},"△":{"ha":1308,"x_min":0,"x_max":0,"o":"m 654 1089 l 1260 0 l 49 0 m 997 150 l 654 769 l 311 150 "},"▽":{"ha":1308,"x_min":0,"x_max":0,"o":"m 49 1051 l 1260 1051 l 654 -37 m 997 901 l 311 901 l 654 282 "},"̈":{"ha":0,"x_min":0,"x_max":0,"o":"m 286 1051 l 475 1051 l 475 868 l 286 868 m 0 1051 l 189 1051 l 189 868 l 0 868 "},"̦":{"ha":0,"x_min":0,"x_max":0,"o":"m 119 -292 l 119 -101 l 279 -101 l 279 -292 l 188 -460 l 67 -460 "},"̷":{"ha":0,"x_min":0,"x_max":0,"o":"m 0 422 l 622 779 l 622 618 l 0 261 "},"̸":{"ha":0,"x_min":0,"x_max":0,"o":"m 571 -17 b 60 526 256 -17 61 193 b 571 1069 61 860 256 1069 b 1082 526 886 1069 1081 860 b 571 -17 1081 193 886 -17 m 571 150 b 874 526 761 150 874 299 b 571 903 874 754 761 903 b 268 526 381 903 268 754 b 571 150 268 299 381 150 "},"¨":{"ha":475,"x_min":0,"x_max":0,"o":"m 286 1051 l 475 1051 l 475 868 l 286 868 m 0 1051 l 189 1051 l 189 868 l 0 868 "},"˙":{"ha":204,"x_min":0,"x_max":0,"o":"m 0 1051 l 204 1051 l 204 868 l 0 868 "},"`":{"ha":301,"x_min":0,"x_max":0,"o":"m 0 1051 l 214 1051 l 301 844 l 146 844 "},"´":{"ha":301,"x_min":0,"x_max":0,"o":"m 88 1051 l 301 1051 l 156 844 l 0 844 "},"˝":{"ha":546,"x_min":0,"x_max":0,"o":"m 351 1051 l 546 1051 l 400 844 l 264 844 m 88 1051 l 282 1051 l 136 844 l 0 844 "},"ˆ":{"ha":486,"x_min":0,"x_max":0,"o":"m 124 1051 l 363 1051 l 479 844 l 340 844 l 243 967 l 146 844 l 7 844 "},"ˇ":{"ha":486,"x_min":0,"x_max":0,"o":"m 7 1051 l 146 1051 l 243 929 l 340 1051 l 479 1051 l 363 844 l 124 844 "},"˘":{"ha":463,"x_min":0,"x_max":0,"o":"m 232 835 b 7 1051 117 835 22 904 l 151 1051 b 232 943 156 978 182 943 b 311 1051 281 943 307 978 l 456 1051 b 232 835 440 904 346 835 "},"˚":{"ha":403,"x_min":0,"x_max":0,"o":"m 204 810 b 47 967 118 810 47 881 b 204 1118 47 1049 118 1118 b 356 967 286 1118 356 1049 b 204 810 356 881 286 810 m 203 906 b 263 965 235 906 263 931 b 203 1025 263 999 235 1025 b 143 965 168 1025 143 999 b 203 906 143 931 168 906 "},"˜":{"ha":508,"x_min":0,"x_max":0,"o":"m 340 832 b 235 865 292 832 260 850 b 175 890 211 879 193 890 b 132 835 151 890 133 872 l 21 835 b 179 1021 17 944 75 1021 b 283 985 226 1021 257 1001 b 333 960 304 969 319 960 b 378 1021 357 960 375 978 l 488 1021 b 340 832 492 910 436 832 "},"¯":{"ha":408,"x_min":0,"x_max":0,"o":"m 0 982 l 408 982 l 408 854 l 0 854 "},"¸":{"ha":301,"x_min":0,"x_max":0,"o":"m 146 -64 l 301 -64 l 214 -271 l 0 -271 "},"˛":{"ha":349,"x_min":0,"x_max":0,"o":"m 196 -261 b 49 -118 118 -261 49 -207 b 122 22 49 -68 69 -24 l 296 0 b 189 -107 203 -56 189 -85 b 228 -144 189 -131 206 -144 b 300 -124 249 -144 276 -136 l 300 -229 b 196 -261 267 -251 231 -261 "},"ʼ":{"ha":413,"x_min":0,"x_max":0,"o":"m 115 824 l 115 1051 l 290 1051 l 290 824 l 163 581 l 46 581 "}}}
